<?xml version="1.0" encoding="utf-8"?>
<!-- Generator: Adobe Illustrator 16.0.0, SVG Export Plug-In . SVG Version: 6.00 Build 0)  -->
<!DOCTYPE svg PUBLIC "-//W3C//DTD SVG 1.1//EN" "http://www.w3.org/Graphics/SVG/1.1/DTD/svg11.dtd">
<svg version="1.1" xmlns="http://www.w3.org/2000/svg" xmlns:xlink="http://www.w3.org/1999/xlink" x="0px" y="0px" width="704.5px"
	 height="524px" viewBox="0 0 704.5 524" enable-background="new 0 0 704.5 524" xml:space="preserve">
<g id="Layer_4" display="none">
</g>
<g id="Layer_5" display="none">
</g>
<g id="Layer_6" display="none">
	<g display="inline">
		<rect x="-29" y="110" fill="#5D7A1E" width="143" height="148"/>
		<path fill="#5D7A1E" d="M-28.631,106.864c0-12.521,3.07-22.864,6.856-22.864h129.155c3.787,0,6.856,10.247,6.856,22.765"/>
		<path fill="#5D7A1E" d="M-29,261.287c0,22.242-0.006,36.16,3.781,36.16l135.328-0.037c3.787,0,3.76-13.779,3.76-36.02"/>
		<path fill="#5D7A1E" d="M27.393,301.395c0,13.436-10.891,24.326-24.326,24.326c-13.435,0-24.326-10.891-24.326-24.326"/>
		<path fill="#5D7A1E" d="M104.797,301.395c0,13.436-10.892,24.326-24.326,24.326c-13.437,0-24.328-10.891-24.328-24.326"/>
		<path fill="#FFFFFF" d="M101,238.576c0,2.443-1.98,4.424-4.423,4.424H-12.577c-2.442,0-4.423-1.98-4.423-4.424v-5.152
			c0-2.443,1.98-4.424,4.423-4.424H96.577c2.442,0,4.423,1.98,4.423,4.424V238.576z"/>
		<g>
			<circle fill="#FFFFFF" cx="41.929" cy="134.426" r="16.586"/>
			<g>
				<polyline fill="#5D7A1E" points="42.066,119.682 40.455,131.968 42.066,135.842 				"/>
				<polyline fill="#5D7A1E" points="41.994,119.682 43.605,131.968 41.994,135.842 				"/>
			</g>
		</g>
		<path fill="#FFFFFF" d="M41.475,161.331c0,0,24.195,16.219,21.354,38.517c0,0,8.121-2.025,5.939-15.441
			c0,0,11.716,11.304,11.519,21.525c-0.162,8.303-10.553,20.271-30.093,20.271c0,0,17.619-15.758-5.662-35.699
			c0,0-21.537,21.248-7.325,35.699c0,0-28.655-7.289-20.249-25.543C25.363,182.404,43.75,180.792,41.475,161.331z"/>
	</g>
</g>
<g id="Layer_9" display="none">
	<g display="inline">
		<circle fill="#70B79A" cx="230.089" cy="296.592" r="155.992"/>
		<path fill="#3F7257" stroke="#64D8A9" stroke-width="2" stroke-miterlimit="10" d="M218.703,197.997
			c0,0,65.646,44.001,57.935,104.503c0,0,22.035-5.5,16.115-41.896c0,0,31.786,30.669,31.25,58.396
			c-0.44,22.526-28.63,55.001-81.644,55.001c0,0,47.804-42.755-15.362-96.854c0,0-58.429,57.645-19.873,96.854
			c0,0-77.743-19.776-54.937-69.3C174.992,255.169,224.879,250.797,218.703,197.997z"/>
	</g>
</g>
<g id="Layer_7" display="none">
	<g display="inline">
		<rect x="-101" y="198" fill="#3F7257" width="143" height="148"/>
		<path fill="#3F7257" d="M-100.631,194.715c0-12.521,3.07-22.715,6.856-22.715H35.381c3.787,0,6.856,10.172,6.856,22.69"/>
		<path fill="#3F7257" d="M-101,348.989c0,22.241-0.006,36.16,3.781,36.16l135.328-0.038c3.787,0,3.76-13.778,3.76-36.02"/>
		<path fill="#3F7257" d="M32.797,389.096c0,13.437-10.892,24.327-24.326,24.327c-13.437,0-24.328-10.891-24.328-24.327"/>
		<path fill="#70B79A" d="M29,326.577c0,2.442-1.98,4.423-4.423,4.423H-84.577c-2.442,0-4.423-1.98-4.423-4.423v-5.154
			c0-2.442,1.98-4.423,4.423-4.423H24.577c2.442,0,4.423,1.98,4.423,4.423V326.577z"/>
		<path fill="#70B79A" stroke="#7FF4C1" stroke-miterlimit="10" d="M-31.938,249.032c0,0,24.195,16.219,21.354,38.518
			c0,0,8.121-2.026,5.939-15.441c0,0,11.716,11.305,11.519,21.524c-0.162,8.303-10.553,20.272-30.093,20.272
			c0,0,17.619-15.759-5.662-35.699c0,0-21.537,21.247-7.325,35.699c0,0-28.655-7.29-20.249-25.543
			C-48.049,270.105-29.662,268.494-31.938,249.032z"/>
	</g>
</g>
<g id="Layer_8" display="none">
	<g display="inline">
		<g>
			<g>
				<path fill="#5D7A1E" d="M145.295,482.56c0.381,2.908-0.508,5.436-2.654,7.588l-25.234,25.041
					c-1.137,1.264-2.621,2.34-4.457,3.225c-1.832,0.887-3.637,1.455-5.404,1.707c-0.127,0-0.508,0.033-1.141,0.096
					c-0.631,0.064-1.455,0.096-2.465,0.096c-2.404,0-6.293-0.412-11.67-1.232c-5.373-0.824-11.949-2.848-19.727-6.072
					c-7.781-3.225-16.604-8.063-26.469-14.512c-9.861-6.449-20.361-15.305-31.49-26.561C5.73,463.208-1.605,454.86-7.422,446.892
					c-5.82-7.967-10.5-15.335-14.041-22.101s-6.195-12.9-7.967-18.402s-2.971-10.246-3.605-14.229
					c-0.632-3.984-0.885-7.115-0.758-9.393c0.126-2.275,0.188-3.539,0.188-3.793c0.255-1.77,0.823-3.574,1.708-5.406
					c0.886-1.834,1.96-3.32,3.226-4.459l25.231-25.232c1.771-1.77,3.795-2.655,6.071-2.655c1.646,0,3.099,0.474,4.362,1.423
					c1.266,0.947,2.341,2.118,3.226,3.51l20.298,38.511c1.139,2.023,1.455,4.238,0.949,6.641c-0.504,2.402-1.58,4.426-3.225,6.07
					l-9.297,9.295c-0.252,0.254-0.473,0.666-0.664,1.234c-0.189,0.568-0.283,1.043-0.283,1.422c0.508,2.656,1.645,5.691,3.414,9.107
					c1.518,3.035,3.859,6.734,7.02,11.098c3.162,4.364,7.654,9.392,13.469,15.083c5.693,5.818,10.752,10.338,15.178,13.564
					c4.428,3.223,8.127,5.596,11.098,7.113c2.975,1.52,5.25,2.436,6.83,2.75l2.371,0.475c0.252,0,0.666-0.096,1.234-0.285
					c0.57-0.189,0.979-0.41,1.234-0.664l10.813-11.002c2.277-2.025,4.932-3.035,7.969-3.035c2.15,0,3.855,0.377,5.121,1.139h0.191
					l36.611,21.627C143.209,477.942,144.791,480.028,145.295,482.56z"/>
			</g>
		</g>
		<path fill="none" stroke="#FFFFFF" stroke-width="4" stroke-miterlimit="10" d="M-16.088,435.236c0,0,7.143-17.053,35.531-21.279"
			/>
		<path fill="none" stroke="#FFFFFF" stroke-width="4" stroke-miterlimit="10" d="M48.691,501.158c0,0,17.186-6.815,21.952-35.119"
			/>
	</g>
</g>
<g id="Layer_10" display="none">
	<g display="inline">
		<g>
			<polygon fill="#B2D362" points="250.203,292.364 134.564,292.364 183.623,340.314 61.051,445.247 -22.164,374.784 
				-153.932,482.848 -153.932,529.533 -22.164,421.472 61.051,491.927 209.104,365.199 250.203,405.384 			"/>
		</g>
		<polygon fill="#B2D362" points="-179.472,262.187 -179.472,655.821 280.57,655.821 280.57,635.909 -160.996,635.909 
			-160.996,262.187 		"/>
	</g>
	<g display="inline">
		<path fill-rule="evenodd" clip-rule="evenodd" fill="#5D7A1E" d="M-17.055,513.693c-3.164,0-5.686,2.477-5.895,5.577H8.178
			c-0.203-3.101-2.729-5.577-5.877-5.577H2.195l15.756-19.842c-8.441-4.566-16.898-0.921-25.332-0.183
			c-8.449-0.738-16.891-4.384-25.348,0.183l15.766,19.842H-17.055z"/>
		<path fill-rule="evenodd" clip-rule="evenodd" fill="#5D7A1E" d="M2.863,530.069v-1.977c2.865-0.276,5.119-2.548,5.314-5.474
			h-31.127c0.184,2.926,2.451,5.197,5.32,5.474v1.977c-19.241,1.4-34.423,17.425-34.423,37.036v49.879
			c0,2.146,0.609,4.127,1.604,5.861l6.724-6.742c1.56-1.548,4.076-1.548,5.613,0c1.563,1.564,1.563,4.062,0,5.624l-6.303,6.314
			c1.314,0.493,2.729,0.804,4.215,0.804h65.625c1.496,0,2.91-0.311,4.23-0.804l-6.32-6.314c-1.563-1.563-1.563-4.06,0-5.624
			c1.557-1.548,4.07-1.548,5.625,0l6.73,6.742c0.986-1.734,1.602-3.716,1.602-5.861v-49.879
			C37.291,547.494,22.109,531.47,2.863,530.069z"/>
	</g>
	<g display="inline">
		<path fill-rule="evenodd" clip-rule="evenodd" fill="#5D7A1E" d="M84.785,532.355c-2.609,0-4.688,2.044-4.859,4.6h25.662
			c-0.166-2.556-2.248-4.6-4.846-4.6h-0.086l12.992-16.358c-6.961-3.765-13.936-0.758-20.887-0.149
			c-6.967-0.608-13.926-3.615-20.898,0.149l12.996,16.358H84.785z"/>
	</g>
	<g display="inline">
		<path fill-rule="evenodd" clip-rule="evenodd" fill="#5D7A1E" d="M195.002,485.145c-3.967,0-7.129,3.106-7.389,6.993h39.029
			c-0.256-3.887-3.422-6.993-7.371-6.993h-0.131l19.754-24.878c-10.582-5.726-21.188-1.153-31.76-0.229
			c-10.596-0.925-21.18-5.497-31.785,0.229l19.77,24.878H195.002z"/>
		<path fill-rule="evenodd" clip-rule="evenodd" fill="#5D7A1E" d="M219.979,505.679v-2.478c3.592-0.348,6.418-3.195,6.664-6.866
			h-39.029c0.229,3.671,3.07,6.519,6.668,6.866v2.478c-24.125,1.756-43.162,21.849-43.162,46.438v62.542
			c0,2.69,0.764,5.176,2.012,7.35l8.43-8.452c1.957-1.941,5.113-1.941,7.039,0c1.957,1.96,1.957,5.094,0,7.052l-7.906,7.917
			c1.652,0.619,3.424,1.009,5.289,1.009h82.281c1.879,0,3.652-0.39,5.309-1.009l-7.926-7.917c-1.957-1.958-1.957-5.092,0-7.052
			c1.951-1.941,5.104-1.941,7.053,0l8.439,8.452c1.236-2.174,2.008-4.659,2.008-7.35v-62.542
			C263.146,527.527,244.111,507.435,219.979,505.679z"/>
	</g>
</g>
<g id="Layer_11" display="none">
	<g display="inline">
		<g>
			<path fill="#5D7A1E" d="M136.237,460.28l-11.696-7.748v-24.36c0-1.916-1.743-3.464-3.896-3.464h-19.579
				c-2.15,0-3.896,1.548-3.896,3.464l-0.182,6.123l-45.901-30.377c-1.663-1.102-3.62-1.411-5.438-1.025
				c-1.806-0.386-3.758-0.076-5.429,1.025l-85.151,56.362c-3.291,2.18-4.193,6.613-2.016,9.901c2.177,3.295,6.612,4.197,9.907,2.019
				l82.688-54.732l82.703,54.732c3.288,2.179,7.728,1.276,9.91-2.019C140.435,466.894,139.534,462.46,136.237,460.28z
				 M-35.168,479.894v80.144c0,4.734,3.841,8.577,8.577,8.577h73.587c-0.365-0.834-0.577-1.756-0.577-2.719v-56.854
				c0-3.758,3.051-6.803,6.809-6.803h34.18c3.754,0,6.799,3.045,6.799,6.803v56.854c0,0.963-0.205,1.885-0.564,2.719h22.927
				c4.74,0,8.58-3.843,8.58-8.577v-81.021l-79.499-52.608L-35.168,479.894z M28.759,520.666c0,2.227-2.195,4.04-4.886,4.04H-0.672
				c-2.695,0-4.889-1.813-4.889-4.04V486.88c0-2.235,2.193-4.042,4.889-4.042h24.545c2.69,0,4.886,1.807,4.886,4.042V520.666z"/>
			<path fill="#5D7A1E" d="M136.904,333.386c0,0,2.909,8.796-12.28,18.288c-32.393,20.271-22.793,42.711-14.34,67.755
				c-1.488-9.392,1.441-16.567,4.069-22.634c3.04-6.542,6.434-11.905,8.952-16.605c5.45-9.15,6.029-16.331,5.935-16.371
				c0.103-0.047,1.041,7.836-3.065,18.047c-1.826,5.164-4.521,11.008-6.933,17.668c-1.896,5.496-3.855,11.698-3.303,18.6
				C180.114,380.841,136.904,333.386,136.904,333.386z"/>
		</g>
		<g>
			<g>
				<path fill="#5D7A1E" d="M-34.649,479.867v80.144c0,4.734,3.84,8.578,8.576,8.578h73.587c-0.365-0.835-0.578-1.756-0.578-2.719
					v-56.853c0-3.76,3.054-6.804,6.811-6.804h34.179c3.753,0,6.8,3.044,6.8,6.804v56.853c0,0.963-0.204,1.884-0.564,2.719h22.926
					c4.741,0,8.581-3.844,8.581-8.578V478.99l-79.5-52.608L-34.649,479.867z"/>
				<path fill="#5D7A1E" d="M29.276,520.64c0,2.228-2.194,4.041-4.884,4.041H-0.153c-2.696,0-4.889-1.813-4.889-4.041v-33.786
					c0-2.234,2.192-4.042,4.889-4.042h24.546c2.689,0,4.884,1.808,4.884,4.042V520.64z"/>
			</g>
			<polygon fill="#5D7A1E" points="-34.872,480.437 46.223,426.667 126,478.99 126,560.609 117.086,569 -26.494,569 
				-34.649,559.947 			"/>
		</g>
	</g>
</g>
<g id="Layer_12" display="none">
	<g display="inline">
		<g>
			<g>
				<polygon fill="#5D7A1E" points="169.39,126 714.772,126 442.078,-90.28 169.39,-306.26 -103.311,-90.126 -376.001,126 				"/>
				<rect x="-319" y="123" fill="#5D7A1E" width="963" height="690"/>
				<rect x="446" y="385" fill="#5D7A1E" width="655" height="428"/>
				<polygon fill="#5D7A1E" points="845.823,387 1102.937,387 974.379,284.777 845.823,182.825 717.264,284.911 588.7,387 				"/>
			</g>
		</g>
		<g>
			<rect x="-298" y="152" fill="#87B6C1" width="367" height="332"/>
			<g>
				<g>
					<polygon fill="#1AA4C4" points="33.439,288.698 47.543,307.143 2.018,457.998 -58.996,399.985 					"/>
					<g>
						<path fill="#7C7C7B" d="M52.055,283.169c-4.035-4.53-11.685-2.369-17.36,5.054l14.178,18.566
							c4.565-5.976,6.588-13.593,5.373-19.091C60.57,278.187,68,285.046,68,285.046v-5.921
							C62,273.674,55.865,278.924,52.055,283.169z"/>
						<rect x="68" y="267" fill="#7C7C7B" width="2" height="30"/>
					</g>
				</g>
				<g>
					<path fill="#D8D8D6" d="M68.102,410h-214.193c0,36,13.091,53.795,33.091,62.521v7.297c0,3.171,1.604,5.183,3.842,5.183h0.335
						c2.24,0,3.822-2.012,3.822-5.183v-4.291c18,5.283,40.841,5.285,65.638,5.285c22.89,0,43.362-0.004,61.362-4.155v3.64
						c0,3.172,2.317,6.704,4.555,6.704h0.337c2.238,0,4.108-3.532,4.108-6.704v-6.104C54,466.166,68.102,449,68.102,410z"/>
					<path fill="#C1C1C1" d="M68.114,409c0,2.805-1.696,4-3.789,4h-206.964c-2.094,0-3.792-1.195-3.792-4l0,0
						c0-2.805,1.698-4,3.792-4H64.325C66.418,405,68.114,406.195,68.114,409L68.114,409z"/>
					<path fill="#D8D8D6" d="M76,403.922c0,2.926-1.712,6.078-3.949,6.078h-222.978c-2.236,0-4.073-3.152-4.073-6.078v-1.082
						c0-2.925,1.836-5.84,4.073-5.84H72.051c2.237,0,3.949,2.915,3.949,5.84V403.922z"/>
				</g>
			</g>
			<rect x="-139" y="259" fill="#7C7C7B" width="209" height="6"/>
		</g>
		<polygon fill="#889799" points="588.07,361 602,361 602,437.244 588.53,434.374 		"/>
		<g>
			<rect x="85" y="220" fill="#AABEC1" width="529" height="261"/>
			<g>
				<g>
					<rect x="535" y="396" fill="#997648" width="57" height="85"/>
					<rect x="537" y="419" fill="#D3B184" width="52" height="59"/>
					<rect x="537" y="398" fill="#D3B184" width="52" height="18"/>
					<rect x="555" y="403" fill="#7C5E32" width="17" height="3"/>
					<rect x="557" y="446" fill="#7C5E32" width="13" height="4"/>
				</g>
			</g>
			<polygon fill="#889799" points="151.307,396 166,396 166,483.244 152.148,479.928 			"/>
			<g>
				<g>
					<rect x="105" y="396" fill="#997648" width="55" height="85"/>
					<rect x="107" y="419" fill="#D3B184" width="52" height="59"/>
					<rect x="107" y="398" fill="#D3B184" width="52" height="18"/>
					<rect x="124" y="403" fill="#7C5E32" width="18" height="3"/>
					<rect x="126" y="446" fill="#7C5E32" width="14" height="4"/>
				</g>
			</g>
			<rect x="182" y="334" fill="#889799" width="340" height="149"/>
			<g>
				<rect x="179" y="332" fill="#997648" width="340" height="149"/>
				<g>
					<polygon fill="#FFFFFF" points="227.215,403 474.023,403 490.289,428 208.677,428 					"/>
					<polygon fill="#D3B184" points="501,478 199,478 199,422 214.816,422 501,422 					"/>
					<path fill="#7C7C7B" d="M366.766,415.314c-1.066,3.77-4.587,5.844-7.86,4.631l-36.562-13.526
						c-3.275-1.21-5.064-5.249-3.998-9.019l11.912-42.084c1.065-3.769,4.586-5.843,7.859-4.632l36.563,13.527
						c3.273,1.212,5.064,5.25,3.998,9.019L366.766,415.314z"/>
					<g>
						<path fill="#D8D8D8" d="M241.1,362.463c16.061,13.772-7.026,52.791,22.586,51.644c13.047-0.573,25.595-9.181,38.644-5.164
							c5.019,1.722,10.038,7.46,14.555,8.034c5.521,0.573,3.513,0,6.022-4.592c3.514-7.459,1.506-16.066,2.51-23.525
							c1.004-6.887,9.033-14.346,9.033-19.51c-0.502-16.067-33.625-14.92-41.656-14.92c-8.533,0-48.682-5.164-52.195,8.033"/>
					</g>
					<g>
						<path fill="#D8D8D8" d="M355.234,362.463c16.061,13.772-7.027,52.791,22.584,51.644c13.049-0.573,25.596-9.181,38.645-5.164
							c5.02,1.722,10.039,7.46,14.555,8.034c5.521,0.573,3.514,0,6.023-4.592c3.512-7.459,1.505-16.066,2.509-23.525
							c1.003-6.887,9.034-14.346,9.034-19.51c-0.502-16.067-33.626-14.92-41.656-14.92c-8.532,0-48.682-5.164-52.195,8.033"/>
					</g>
					<path fill="#7C7C7B" d="M464,412.86c0,3.404-1.78,6.14-4.256,6.14h-76.211c-2.477,0-4.533-2.735-4.533-6.14v-45.185
						c0-3.402,2.057-5.676,4.533-5.676h76.211c2.476,0,4.256,2.273,4.256,5.676V412.86z"/>
				</g>
			</g>
			<rect x="81" y="151" fill="#AABEC1" width="533" height="138"/>
		</g>
		<rect x="-320" y="478" fill="#997648" width="424" height="14"/>
		<rect x="-290" y="492" fill="#EF7B8E" width="394" height="34"/>
		<rect x="-18" y="488" fill="#997648" width="25" height="42"/>
		<rect x="29" y="488" fill="#997648" width="25" height="42"/>
		<rect x="76" y="488" fill="#997648" width="25" height="42"/>
		<rect x="101" y="478" fill="#997648" width="547" height="14"/>
		<rect x="101" y="492" fill="#EF7B8E" width="527" height="34"/>
		<rect x="121" y="491" fill="#997648" width="25" height="42"/>
		<rect x="169" y="491" fill="#997648" width="25" height="42"/>
		<rect x="216" y="491" fill="#997648" width="25" height="42"/>
		<rect x="263" y="491" fill="#997648" width="25" height="42"/>
		<rect x="309" y="491" fill="#997648" width="25" height="42"/>
		<rect x="355" y="488" fill="#997648" width="25" height="42"/>
		<rect x="403" y="488" fill="#997648" width="25" height="42"/>
		<rect x="450" y="488" fill="#997648" width="25" height="42"/>
		<rect x="497" y="488" fill="#997648" width="25" height="42"/>
		<rect x="613" y="123" fill="#997648" width="16" height="355"/>
		<rect x="70" y="152" fill="#997648" width="14" height="326"/>
		<rect x="498" y="491" fill="#997648" width="25" height="42"/>
		<rect x="545" y="491" fill="#997648" width="25" height="42"/>
		<rect x="592" y="491" fill="#997648" width="22" height="42"/>
	</g>
</g>
<g id="Layer_15" display="none">
	<g display="inline">
		<rect x="-64" y="-52" fill="#87B6C1" width="837" height="628"/>
		<rect x="-32" y="-52" fill="#AABEC1" width="314" height="628"/>
		<g>
			<g>
				<rect x="107.5" y="395.5" fill="#7C5E32" stroke="#B79E7D" stroke-width="7" stroke-miterlimit="10" width="129" height="176"/>
				<rect x="112" y="440" fill="#D3B184" width="117" height="127"/>
				<rect x="112" y="398" fill="#D3B184" width="117" height="38"/>
				<rect x="158" y="410" fill="#7C5E32" width="35" height="9"/>
				<rect x="209" y="482" fill="#7C5E32" width="9" height="32"/>
			</g>
			<g>
				<rect x="107.5" y="346.5" fill="#7C5E32" stroke="#B79E7D" stroke-width="7" stroke-miterlimit="10" width="129" height="41"/>
				<path fill="#D8D8D6" d="M230.188,353.361c0,17.702-25.438,32.052-56.811,32.052c-31.375,0-56.813-14.35-56.813-32.052"/>
				<rect x="108" y="383" fill="#D8D8D6" width="129" height="8"/>
				<rect x="139" y="338" fill="#91918B" width="19" height="15"/>
				<rect x="169" y="319" fill="#91918B" width="9" height="34"/>
				<rect x="193" y="338" fill="#91918B" width="19" height="15"/>
				<polygon fill="#91918B" points="168.849,319 164.523,326 183.55,326 179.225,319 				"/>
			</g>
		</g>
		<g>
			<g>
				<path fill="#D8D8D6" d="M168.662,484.92c0,31.671-32.401,57.35-72.372,57.35s-72.37-25.679-72.37-57.35"/>
				<path fill="#C1C1C1" d="M168.662,487.5c0,1.885-1.146,3.5-2.56,3.5H26.477c-1.414,0-2.557-1.615-2.557-3.5l0,0
					c0-1.887,1.143-3.5,2.557-3.5h139.626C167.516,484,168.662,485.613,168.662,487.5L168.662,487.5z"/>
				<path fill="#D8D8D6" d="M175,482.471c0,2.794-1.561,6.529-4.199,6.529H21.726c-2.635,0-4.726-3.735-4.726-6.529v-3.668
					c0-2.796,2.091-6.803,4.726-6.803h149.075c2.639,0,4.199,4.007,4.199,6.803V482.471z"/>
				<path fill="#C1C1C1" d="M166.103,475c0,1.885-1.104,5-2.459,5H29.165c-1.36,0-2.461-3.115-2.461-5l0,0c0-1.884,1.101-5,2.461-5
					h134.479C164.999,470,166.103,473.116,166.103,475L166.103,475z"/>
				<path fill="#D8D8D6" d="M169,472.27c0,1.398-3.067-0.27-5.45-0.27H29.032c-2.385,0-4.032,1.668-4.032,0.27v-2.318
					c0-1.397,1.647-1.951,4.032-1.951H163.55c2.383,0,5.45,0.554,5.45,1.951V472.27z"/>
			</g>
			<polygon fill="#D8D8D6" points="54.535,537 -34,537 -34,398 80.781,398 			"/>
			<polygon fill="#D8D8D6" points="24.713,523 105.438,523 80.781,578 -34,578 -34,523 			"/>
			<path fill="#C1C1C1" d="M80.781,403c0,1.892-0.925,5-2.073,5H-34.448c-1.143,0-2.074-3.108-2.074-5l0,0c0-1.884,0.932-5,2.074-5
				H78.708C79.856,398,80.781,401.116,80.781,403L80.781,403z"/>
			<path fill="#D8D8D6" d="M92.366,394.5c0,2.283-1.749,3.5-3.901,3.5H-44.151c-2.154,0-3.901-1.217-3.901-3.5l0,0
				c0-2.283,1.747-3.5,3.901-3.5H88.465C90.617,391,92.366,392.217,92.366,394.5L92.366,394.5z"/>
			<path fill="none" stroke="#C1C1C1" stroke-width="6" stroke-miterlimit="10" d="M106.233,541.427
				c-39.973,0-72.372-25.681-72.372-57.352"/>
		</g>
		<rect x="282" y="-52" fill="#598C91" width="33" height="628"/>
		<g>
			<g>
				<polygon fill="#1AA4C4" points="691.044,206.549 723.172,241.47 619.462,527.09 480.469,417.252 				"/>
				<g>
					<path fill="#7C7C7B" d="M733.063,196.082c-9.192-8.579-26.425-4.485-39.354,9.567l32.395,35.152
						c10.4-11.314,14.67-25.738,11.902-36.146c14.409-18.009,30.994-5.02,30.994-5.02v-11.212
						C756,178.103,741.743,188.042,733.063,196.082z"/>
				</g>
			</g>
			<g>
				<path fill="#D8D8D6" d="M770.006,436H282.059c0,68,30.941,102.065,75.941,118.586V568.4c0,6.004,3.1,9.6,8.195,9.6h0.766
					c5.103,0,8.039-3.596,8.039-9.6v-8.124c42,10.003,93.385,10.007,149.871,10.007c52.143,0,98.129-0.008,140.129-7.867v6.891
					c0,6.006,5.264,12.693,10.359,12.693h0.768c5.1,0,9.873-6.688,9.873-12.693v-11.558C739,542.555,770.006,510,770.006,436z"/>
				<path fill="#C1C1C1" d="M770.035,434.5c0,5.31-3.864,7.5-8.631,7.5h-471.48c-4.769,0-8.635-2.19-8.635-7.5l0,0
					c0-5.311,3.866-7.5,8.635-7.5h471.48C766.171,427,770.035,429.189,770.035,434.5L770.035,434.5z"/>
				<path fill="#D8D8D6" d="M788,424.705c0,5.54-3.899,11.295-8.997,11.295H271.042c-5.096,0-9.042-5.755-9.042-11.295v-2.049
					c0-5.537,3.946-10.656,9.042-10.656h507.961c5.098,0,8.997,5.119,8.997,10.656V424.705z"/>
			</g>
		</g>
		<rect x="298" y="150" fill="#7C7C7B" width="477" height="12"/>
		<rect x="-34" y="107" fill="#D8D8D8" width="271" height="200"/>
	</g>
</g>
<g id="Layer_13" display="none">
	<g display="inline">
		<rect x="-64" y="-52" fill="#AABEC1" width="833" height="641"/>
		<g>
			<g>
				<rect x="652" y="457" fill="#997648" width="90" height="118"/>
				<rect x="655" y="488" fill="#D3B184" width="83" height="83"/>
				<rect x="655" y="460" fill="#D3B184" width="83" height="24"/>
				<rect x="684" y="467" fill="#7C5E32" width="27" height="4"/>
			</g>
		</g>
		<polygon fill="#889799" points="41.487,457 64,457 64,578.244 42.396,573.705 		"/>
		<g>
			<g>
				<rect x="-33" y="457" fill="#997648" width="89" height="118"/>
				<rect x="-28" y="488" fill="#D3B184" width="82" height="83"/>
				<rect x="-28" y="460" fill="#D3B184" width="82" height="24"/>
				<rect x="-1" y="467" fill="#7C5E32" width="28" height="4"/>
			</g>
		</g>
		<rect x="90" y="371" fill="#889799" width="541" height="207"/>
		<g>
			<rect x="86" y="338" fill="#997648" width="541" height="237"/>
			<g>
				<polygon fill="#FFFFFF" points="162.252,451 554.901,451 580.779,490 132.759,490 				"/>
				<polygon fill="#D3B184" points="598,572 117,572 117,482 142.527,482 598,482 				"/>
				<path fill="#7C7C7B" d="M384.263,469.986c-1.694,6.035-7.296,9.354-12.504,7.413l-58.167-21.654
					c-5.209-1.938-8.057-8.403-6.36-14.438l18.952-67.371c1.695-6.034,7.295-9.354,12.503-7.415l58.168,21.657
					c5.208,1.938,8.057,8.401,6.36,14.437L384.263,469.986z"/>
				<g>
					<path fill="#D8D8D8" d="M184.34,385.377c25.552,22.047-11.178,84.512,35.932,82.675c20.759-0.918,40.72-14.697,61.479-8.266
						c7.984,2.755,15.97,11.941,23.155,12.858c8.783,0.92,5.589,0,9.581-7.349c5.591-11.941,2.396-25.721,3.993-37.664
						c1.598-11.021,14.371-22.963,14.371-31.231c-0.799-25.721-53.495-23.885-66.271-23.885c-13.574,0-77.448-8.266-83.038,12.861"
						/>
				</g>
				<g>
					<path fill="#D8D8D8" d="M365.919,385.377c25.55,22.047-11.179,84.512,35.929,82.675c20.76-0.918,40.722-14.697,61.481-8.266
						c7.984,2.755,15.971,11.941,23.155,12.858c8.783,0.92,5.589,0,9.581-7.349c5.589-11.941,2.395-25.721,3.992-37.664
						c1.597-11.021,14.371-22.963,14.371-31.231c-0.798-25.721-53.494-23.885-66.27-23.885c-13.574,0-77.45-8.266-83.04,12.861"/>
				</g>
				<path fill="#7C7C7B" d="M540,466.057c0,5.449-3.877,8.943-7.814,8.943H410.939C407,475,403,471.506,403,466.057v-72.336
					c0-5.446,4-8.721,7.939-8.721h121.246c3.938,0,7.814,3.274,7.814,8.721V466.057z"/>
			</g>
		</g>
	</g>
</g>
<g id="Layer_14" display="none">
	<g display="inline">
		<rect x="-64" y="-52" fill="#AABEC1" width="833" height="628"/>
		<g>
			<g>
				<rect x="-53" y="324" fill="#997648" width="186" height="250"/>
				<rect x="-46" y="391" fill="#D3B184" width="174" height="174"/>
				<rect x="-46" y="330" fill="#D3B184" width="174" height="52"/>
				<rect x="14" y="350" fill="#7C5E32" width="60" height="9"/>
				<rect x="104" y="458" fill="#7C5E32" width="11" height="46"/>
				<rect x="132" y="324" fill="#997648" width="391" height="250"/>
				<rect x="139" y="391" fill="#D3B184" width="174" height="174"/>
				<rect x="139" y="330" fill="#D3B184" width="174" height="52"/>
				<rect x="199" y="350" fill="#7C5E32" width="59" height="9"/>
				<rect x="153" y="458" fill="#7C5E32" width="11" height="46"/>
				<path fill="#7C7C7B" d="M57,322v-8.29c0-0.401,2.316-0.71,4.76-0.71h141.647c2.444,0,4.593,0.309,4.593,0.71V322"/>
				<polygon fill="#7C7C7B" points="118.467,290 144.133,290 152.688,315 109.833,315 				"/>
				<rect x="126" y="232" fill="#7C7C7B" width="11" height="71"/>
				<polygon fill="#91918B" points="126.148,228 121.342,237 142.488,237 137.684,228 				"/>
				
					<rect x="141.332" y="266.402" transform="matrix(-0.9782 -0.2076 0.2076 -0.9782 228.6624 603.4707)" fill="#7C7C7B" width="9.334" height="46.667"/>
				<polygon fill="#7C7C7B" points="154.167,274 190,274 190,266.401 146.114,266.241 				"/>
				<rect x="325" y="333" fill="#FFFFFF" width="189" height="230"/>
				<rect x="342" y="339" fill="#D8D8D8" width="157" height="38"/>
				<rect x="318" y="295" fill="#D8D8D8" width="199" height="29"/>
				<rect x="381" y="304" fill="#5D5D5D" width="78" height="17"/>
				<circle fill="#5D5D5D" cx="360.181" cy="355.749" r="10.015"/>
				<circle fill="#5D5D5D" cx="395.18" cy="355.749" r="10.014"/>
			</g>
			<rect x="434" y="346" fill="#5D5D5D" width="38" height="7"/>
			<rect x="434" y="361" fill="#5D5D5D" width="38" height="7"/>
			<g>
				<rect x="523" y="324" fill="#F9F9F9" width="235" height="250"/>
				<rect x="523" y="181" fill="#F9F9F9" width="235" height="132"/>
			</g>
		</g>
	</g>
</g>
<g id="Layer_16" display="none">
	<rect x="-64" y="-52" display="inline" fill="#AABEC1" width="833" height="629"/>
	<g display="inline">
		<rect x="557.76" y="116.432" fill="#484445" width="10.931" height="34.246"/>
		<rect x="530" y="199" fill="#4C4A4B" width="142" height="224"/>
		<g>
			<rect x="607" y="227" fill="#C0BEBF" width="90" height="161"/>
		</g>
		<g>
			<rect x="695" y="297" fill="#4C4A4B" width="29" height="25"/>
		</g>
		<rect x="535" y="400" fill="#4C4A4B" width="135" height="169"/>
		<g>
			<rect x="539" y="497" fill="#C0BEBF" width="127" height="68"/>
			<rect x="541" y="499" fill="#404040" width="123" height="64"/>
		</g>
		<g>
			<rect x="545" y="349" fill="#C0BEBF" width="55" height="6"/>
			<rect x="545" y="363" fill="#C0BEBF" width="55" height="8"/>
			<rect x="545" y="378" fill="#C0BEBF" width="55" height="8"/>
			<rect x="545" y="392" fill="#C0BEBF" width="55" height="6"/>
			<rect x="545" y="408" fill="#C0BEBF" width="55" height="6"/>
		</g>
		<g>
			<rect x="652" y="271" fill="#4C4A4B" width="35" height="8"/>
			<rect x="652" y="318" fill="#4C4A4B" width="35" height="6"/>
			<rect x="652" y="256" fill="#4C4A4B" width="35" height="8"/>
			<rect x="652" y="287" fill="#4C4A4B" width="35" height="8"/>
			<rect x="652" y="301" fill="#4C4A4B" width="35" height="5"/>
			<rect x="652" y="332" fill="#4C4A4B" width="35" height="6"/>
			<rect x="652" y="345" fill="#4C4A4B" width="35" height="6"/>
		</g>
		<g>
			<rect x="553" y="507" fill="#C0BEBF" width="41" height="8"/>
			<rect x="553" y="523" fill="#C0BEBF" width="41" height="3"/>
		</g>
		<g>
			<rect x="615" y="507" fill="#C0BEBF" width="39" height="8"/>
			<rect x="615" y="523" fill="#C0BEBF" width="39" height="3"/>
		</g>
		<rect x="535" y="262" fill="#C0BEBF" width="90" height="80"/>
		<rect x="566.171" y="115.774" fill="#C0BEBF" width="19.449" height="83.011"/>
		<g>
			<ellipse fill="#484445" cx="571.69" cy="300.98" rx="27.799" ry="35.354"/>
			<g>
				<ellipse fill="#9A9496" cx="573.719" cy="300.98" rx="27.8" ry="35.354"/>
				<ellipse fill="#282827" cx="572.628" cy="301.355" rx="18.253" ry="23.212"/>
				<ellipse fill="#5F5A5D" cx="574.014" cy="300.606" rx="18.253" ry="23.212"/>
				<g>
					<ellipse fill="#282827" cx="573.524" cy="300.781" rx="8.568" ry="10.898"/>
					<ellipse fill="#4C4A4B" cx="574.175" cy="300.43" rx="8.569" ry="10.896"/>
				</g>
			</g>
		</g>
		<rect x="559.914" y="115.911" fill="#C0BEBF" width="17.919" height="34.767"/>
		<g>
			<g>
				<rect x="545" y="433" fill="#C0BEBF" width="45" height="56"/>
				<rect x="545" y="435" fill="#404040" width="43" height="52"/>
			</g>
			<g>
				<rect x="615" y="433" fill="#C0BEBF" width="43" height="56"/>
				<rect x="615" y="435" fill="#404040" width="43" height="52"/>
			</g>
			<g>
				<rect x="594" y="433" fill="#C0BEBF" width="17" height="56"/>
			</g>
		</g>
	</g>
	<g display="inline">
		<rect x="436" y="445" fill="#404040" width="33" height="56"/>
		<rect x="218" y="378" fill="#4C4A4B" width="185" height="187"/>
		<g>
			<rect x="240" y="474" fill="#C0BEBF" width="140" height="78"/>
			<rect x="244" y="474" fill="#404040" width="132" height="72"/>
		</g>
		<g>
			<rect x="251" y="480" fill="#C0BEBF" width="57" height="4"/>
			<rect x="251" y="489" fill="#C0BEBF" width="57" height="6"/>
			<rect x="251" y="499" fill="#C0BEBF" width="57" height="6"/>
			<rect x="251" y="509" fill="#C0BEBF" width="57" height="6"/>
			<rect x="251" y="519" fill="#C0BEBF" width="57" height="5"/>
			<rect x="312" y="480" fill="#C0BEBF" width="58" height="4"/>
			<rect x="312" y="489" fill="#C0BEBF" width="58" height="6"/>
			<rect x="312" y="499" fill="#C0BEBF" width="58" height="6"/>
			<rect x="312" y="509" fill="#C0BEBF" width="58" height="6"/>
			<rect x="312" y="519" fill="#C0BEBF" width="58" height="5"/>
		</g>
		<rect x="300" y="310" fill="#4C4A4B" width="31" height="68"/>
		<rect x="300" y="310" fill="#4C4A4B" width="54" height="39"/>
		<rect x="247" y="291" fill="#4C4A4B" width="30" height="87"/>
		<rect x="226" y="291" fill="#4C4A4B" width="51" height="52"/>
		<g>
			<rect x="388" y="388" fill="#C0BEBF" width="11" height="64"/>
		</g>
		<rect x="421.764" y="223.314" fill="#5E5E5E" width="60.3" height="127.699"/>
		<g>
			<g>
				<rect x="240" y="396" fill="#C0BEBF" width="140" height="51"/>
			</g>
			<g>
				<rect x="244" y="398" fill="#404040" width="132" height="45"/>
			</g>
		</g>
		<g>
			<rect x="421.706" y="220.578" fill="#C0BEBF" width="61.073" height="124.049"/>
			<polygon fill="#C0BEBF" points="421.706,348.278 437.22,444.981 467.271,444.981 482.779,348.278 			"/>
			<rect x="403.289" y="448.634" fill="#C0BEBF" width="63.981" height="55.454"/>
		</g>
	</g>
	<g display="inline">
		<rect x="-13" y="277" fill="#4C4A4B" width="161" height="294"/>
		<g>
			<rect x="-8" y="287" fill="#C0BEBF" width="150" height="130"/>
			<rect x="-4" y="289" fill="#404040" width="142" height="126"/>
		</g>
		<g>
			<rect x="-8" y="433" fill="#C0BEBF" width="150" height="27"/>
			<rect x="-4" y="433" fill="#404040" width="142" height="23"/>
		</g>
		<g>
			<rect x="-8" y="474" fill="#C0BEBF" width="150" height="82"/>
			<rect x="-4" y="478" fill="#404040" width="142" height="74"/>
		</g>
		<rect x="-2" y="297" fill="#C0BEBF" width="66" height="8"/>
		<rect x="-2" y="314" fill="#C0BEBF" width="66" height="8"/>
		<rect x="-2" y="332" fill="#C0BEBF" width="66" height="6"/>
		<rect x="-2" y="349" fill="#C0BEBF" width="66" height="4"/>
		<rect x="-2" y="369" fill="#C0BEBF" width="66" height="4"/>
		<rect x="-2" y="382" fill="#C0BEBF" width="66" height="8"/>
		<rect x="-2" y="400" fill="#C0BEBF" width="66" height="6"/>
		<rect x="70" y="297" fill="#C0BEBF" width="68" height="8"/>
		<rect x="70" y="314" fill="#C0BEBF" width="68" height="8"/>
		<rect x="70" y="332" fill="#C0BEBF" width="68" height="6"/>
		<rect x="70" y="349" fill="#C0BEBF" width="68" height="4"/>
		<rect x="70" y="369" fill="#C0BEBF" width="68" height="4"/>
		<rect x="70" y="382" fill="#C0BEBF" width="68" height="8"/>
		<rect x="70" y="400" fill="#C0BEBF" width="68" height="6"/>
		<rect x="64" y="205" fill="#4C4A4B" width="34" height="72"/>
		<rect x="64" y="205" fill="#4C4A4B" width="59" height="39"/>
		<rect x="37" y="234" fill="#4C4A4B" width="20" height="43"/>
		<rect x="22" y="234" fill="#4C4A4B" width="35" height="26"/>
		<g>
			<rect y="482" fill="#C0BEBF" width="53" height="68"/>
			<rect x="2" y="484" fill="#404040" width="49" height="62"/>
		</g>
		<g>
			<rect x="82" y="482" fill="#C0BEBF" width="53" height="68"/>
			<rect x="84" y="484" fill="#404040" width="49" height="62"/>
		</g>
		<g>
			<rect x="57" y="482" fill="#C0BEBF" width="21" height="68"/>
		</g>
	</g>
</g>
<g id="Layer_17">
	<g>
		<g>
			<g>
				<rect y="393" fill="#FFFFFF" width="704" height="86"/>
				<path fill="#FFFFFF" d="M704.5,294.561c0-23.506-19.252-42.561-43-42.561s-43,19.055-43,42.561c0,3.246,0.379,6.401,1.074,9.439
					H618v222h86V304h-0.574C704.121,300.962,704.5,297.807,704.5,294.561z"/>
				<path fill="#FFFFFF" d="M86.5,157.561c0-23.505-19.252-42.561-43-42.561s-43,19.055-43,42.561c0,0.147,0.01,0.292,0.012,0.439H0
					v368h86V158h0.488C86.49,157.853,86.5,157.708,86.5,157.561z"/>
			</g>
			<g>
				<path fill="#FFFFFF" d="M245,241.735c-17.06,0-31,9.788-31,21.862v100.667c0,12.075,13.94,21.863,31,21.863s31-9.788,31-21.863
					V263.597C276,251.523,262.06,241.735,245,241.735z"/>
				<path fill="#FFFFFF" d="M276.986,355c0-17.06-11.761-31-26.268-31H129.768c-14.508,0-26.268,13.94-26.268,31
					c0,17.061,11.76,31,26.268,31h120.951C265.226,386,276.986,372.061,276.986,355z"/>
				<g>
					<polyline fill="#FFFFFF" points="606,389 286,389 286,230 					"/>
					<g>
						<path fill="#FFFFFF" d="M287,230h262.807C580.988,230,606,255.752,606,286.934V389"/>
					</g>
				</g>
				<g>
					<circle fill="#FFFFFF" cx="154.394" cy="263.739" r="55.739"/>
					<path fill="none" stroke="#5D7A1E" stroke-width="3" stroke-miterlimit="10" d="M173.192,282.555
						c-3.238,17.523-20.064,29.104-37.582,25.866"/>
					<path fill="none" stroke="#5D7A1E" stroke-width="3" stroke-miterlimit="10" d="M171.118,250.898
						c-3.046,11.165-14.563,17.747-25.724,14.701"/>
					<path fill="none" stroke="#5D7A1E" stroke-width="3" stroke-miterlimit="10" d="M128.313,273.721
						c-2.01,10.877-9.804,18.555-17.407,17.15"/>
				</g>
			</g>
		</g>
		<g>
			<path fill="#FFFFFF" d="M262.271,2C188.391,2,128.5,42.604,128.5,92.692c0,33.012,26.021,61.902,64.911,77.765L202.997,208
				l15.479-29.594c13.723,3.222,28.455,4.978,43.794,4.978c73.879,0,133.771-40.604,133.771-90.692
				C396.041,42.604,336.149,2,262.271,2z"/>
			<rect x="200.655" y="56" fill="none" width="139.229" height="74"/>
			
				<text transform="matrix(1 0 0 1 200.6553 105.6992)" fill="#5D7A1E" font-family="'MyriadPro-Regular'" font-size="70" letter-spacing="2">zzzz</text>
		</g>
	</g>
</g>
</svg>
