<?xml version="1.0" encoding="utf-8"?>
<!-- Generator: Adobe Illustrator 16.0.0, SVG Export Plug-In . SVG Version: 6.00 Build 0)  -->
<!DOCTYPE svg PUBLIC "-//W3C//DTD SVG 1.1//EN" "http://www.w3.org/Graphics/SVG/1.1/DTD/svg11.dtd">
<svg version="1.1" id="Layer_1" xmlns="http://www.w3.org/2000/svg" xmlns:xlink="http://www.w3.org/1999/xlink" x="0px" y="0px"
	 width="444px" height="418px" viewBox="-68.509 546.608 444 418" enable-background="new -68.509 546.608 444 418"
	 xml:space="preserve">
<g id="Layer_1_1_" display="none">
	<g display="inline">
		<g>
			
				<ellipse transform="matrix(-0.1238 -0.9923 0.9923 -0.1238 94.928 254.2182)" fill="#2B2A2A" cx="159.7" cy="85.199" rx="209.015" ry="201.773"/>
			<g>
				<polygon fill="#2B2A2A" points="286.275,-18.759 323.526,26.023 343.713,-28.652 363.883,-83.313 306.458,-73.426 
					249.03,-63.539 				"/>
				<polygon fill="#2B2A2A" points="-15.452,-40.636 4.85,13.96 42.017,-30.933 79.163,-75.82 21.704,-85.525 -35.753,-95.229 				
					"/>
				<polygon fill="#2B2A2A" points="192.314,243.359 135.607,256.664 175.482,299.121 215.359,341.577 232.191,285.816 
					249.022,230.055 				"/>
				<polygon fill="#2B2A2A" points="95.591,240.73 41.451,219.242 49.898,276.907 58.352,334.556 104.04,298.389 149.729,262.219 
									"/>
				<polygon fill="#2B2A2A" points="40.336,184.805 7.312,136.823 -17.76,189.436 -42.815,242.038 15.273,237.41 73.36,232.783 				
					"/>
				<polygon fill="#2B2A2A" points="331.436,204.863 311.134,150.267 273.967,195.161 236.82,240.048 294.28,249.753 
					351.735,259.46 				"/>
				<polygon fill="#2B2A2A" points="311.688,130.979 307.915,189.104 360.137,163.307 412.362,137.509 363.91,105.182 
					315.459,72.852 				"/>
				<polygon fill="#2B2A2A" points="354.224,4.374 299.946,-16.777 308.753,40.835 317.568,98.429 363.03,61.977 408.492,25.525 
									"/>
				<polygon fill="#2B2A2A" points="12.948,122.01 29.591,177.827 -27.068,164.33 -83.731,150.836 -43.715,108.514 -3.696,66.191 
									"/>
				<polygon fill="#2B2A2A" points="-39.685,-3.884 13.376,-27.915 7.674,30.087 1.959,88.071 -45.393,54.109 -92.743,20.147 				
					"/>
			</g>
		</g>
		<line fill="none" stroke="#1E1E1E" stroke-width="10" stroke-miterlimit="10" x1="-41.57" y1="93.5" x2="359.955" y2="78.729"/>
		<g>
			
				<ellipse transform="matrix(-0.0447 -0.999 0.999 -0.0447 -74.5938 74.1331)" fill="#1E1E1E" cx="-1.851" cy="72.733" rx="8.624" ry="7.905"/>
			
				<ellipse transform="matrix(-0.0446 -0.999 0.999 -0.0446 -52.2038 94.9718)" fill="#1E1E1E" cx="19.311" cy="72.448" rx="8.625" ry="7.905"/>
			
				<ellipse transform="matrix(-0.0447 -0.999 0.999 -0.0447 -29.7955 115.829)" fill="#1E1E1E" cx="40.482" cy="72.16" rx="8.624" ry="7.905"/>
			
				<ellipse transform="matrix(-0.0446 -0.999 0.999 -0.0446 -6.7886 135.9464)" fill="#1E1E1E" cx="61.615" cy="71.219" rx="8.625" ry="7.905"/>
			
				<ellipse transform="matrix(-0.0446 -0.999 0.999 -0.0446 15.6092 156.7973)" fill="#1E1E1E" cx="82.781" cy="70.935" rx="8.625" ry="7.905"/>
		</g>
		<g>
			
				<ellipse transform="matrix(-0.0475 -0.9989 0.9989 -0.0475 39.8447 179.7793)" fill="#1E1E1E" cx="105.639" cy="70.892" rx="8.625" ry="7.906"/>
			
				<ellipse transform="matrix(-0.0475 -0.9989 0.9989 -0.0475 62.9862 199.8398)" fill="#1E1E1E" cx="126.774" cy="69.889" rx="8.624" ry="7.905"/>
			
				<ellipse transform="matrix(-0.0476 -0.9989 0.9989 -0.0476 85.5275 220.6166)" fill="#1E1E1E" cx="147.946" cy="69.532" rx="8.625" ry="7.905"/>
			
				<ellipse transform="matrix(-0.0475 -0.9989 0.9989 -0.0475 108.0212 241.4003)" fill="#1E1E1E" cx="169.107" cy="69.197" rx="8.624" ry="7.905"/>
			
				<ellipse transform="matrix(-0.0476 -0.9989 0.9989 -0.0476 131.2032 261.4551)" fill="#1E1E1E" cx="190.247" cy="68.178" rx="8.626" ry="7.907"/>
			
				<ellipse transform="matrix(-0.0475 -0.9989 0.9989 -0.0475 153.6803 282.2393)" fill="#1E1E1E" cx="211.409" cy="67.846" rx="8.625" ry="7.906"/>
		</g>
		<g>
			
				<ellipse transform="matrix(-0.0446 -0.999 0.999 -0.0446 -108.8157 115.3208)" fill="#1E1E1E" cx="0.738" cy="109.696" rx="8.624" ry="7.905"/>
			
				<ellipse transform="matrix(-0.0447 -0.999 0.999 -0.0447 -86.4091 136.1925)" fill="#1E1E1E" cx="21.911" cy="109.41" rx="8.625" ry="7.905"/>
			
				<ellipse transform="matrix(-0.0446 -0.999 0.999 -0.0446 -64.0249 157.0221)" fill="#1E1E1E" cx="43.071" cy="109.126" rx="8.624" ry="7.905"/>
			
				<ellipse transform="matrix(-0.0447 -0.999 0.999 -0.0447 -40.9861 177.1614)" fill="#1E1E1E" cx="64.216" cy="108.178" rx="8.625" ry="7.905"/>
			
				<ellipse transform="matrix(-0.0446 -0.999 0.999 -0.0446 -18.6006 198.0016)" fill="#1E1E1E" cx="85.378" cy="107.895" rx="8.625" ry="7.905"/>
		</g>
		<g>
			
				<ellipse transform="matrix(-0.0475 -0.9989 0.9989 -0.0475 5.6384 221.091)" fill="#1E1E1E" cx="108.233" cy="107.857" rx="8.625" ry="7.905"/>
			
				<ellipse transform="matrix(-0.0475 -0.9989 0.9989 -0.0475 28.7803 241.1498)" fill="#1E1E1E" cx="129.368" cy="106.853" rx="8.625" ry="7.905"/>
			
				<ellipse transform="matrix(-0.0476 -0.9989 0.9989 -0.0476 51.3324 261.9386)" fill="#1E1E1E" cx="150.542" cy="106.497" rx="8.625" ry="7.906"/>
			
				<ellipse transform="matrix(-0.0475 -0.9989 0.9989 -0.0475 73.814 282.7113)" fill="#1E1E1E" cx="171.7" cy="106.162" rx="8.624" ry="7.906"/>
			
				<ellipse transform="matrix(-0.0475 -0.9989 0.9989 -0.0475 96.96 302.7696)" fill="#1E1E1E" cx="192.837" cy="105.156" rx="8.624" ry="7.906"/>
			
				<ellipse transform="matrix(-0.0475 -0.9989 0.9989 -0.0475 119.4746 323.5501)" fill="#1E1E1E" cx="214.003" cy="104.811" rx="8.625" ry="7.906"/>
		</g>
		<g>
			
				<ellipse transform="matrix(-0.0475 -0.9989 0.9989 -0.0475 178.9688 304.4525)" fill="#1E1E1E" cx="234.644" cy="66.896" rx="8.625" ry="7.905"/>
			
				<ellipse transform="matrix(-0.0475 -0.9989 0.9989 -0.0475 202.1101 324.5117)" fill="#1E1E1E" cx="255.778" cy="65.892" rx="8.624" ry="7.905"/>
			
				<ellipse transform="matrix(-0.0476 -0.9989 0.9989 -0.0476 224.6662 345.2789)" fill="#1E1E1E" cx="276.949" cy="65.527" rx="8.625" ry="7.905"/>
			
				<ellipse transform="matrix(-0.0475 -0.9989 0.9989 -0.0475 247.1451 366.0721)" fill="#1E1E1E" cx="298.111" cy="65.2" rx="8.624" ry="7.905"/>
			
				<ellipse transform="matrix(-0.0476 -0.9989 0.9989 -0.0476 270.3507 386.116)" fill="#1E1E1E" cx="319.251" cy="64.172" rx="8.625" ry="7.907"/>
		</g>
		<g>
			
				<ellipse transform="matrix(-0.0475 -0.9989 0.9989 -0.0475 145.1511 346.2066)" fill="#1E1E1E" cx="237.643" cy="103.897" rx="8.625" ry="7.905"/>
			
				<ellipse transform="matrix(-0.0475 -0.9989 0.9989 -0.0475 168.2924 366.2659)" fill="#1E1E1E" cx="258.777" cy="102.893" rx="8.624" ry="7.905"/>
			
				<ellipse transform="matrix(-0.0476 -0.9989 0.9989 -0.0476 190.8673 387.0425)" fill="#1E1E1E" cx="279.951" cy="102.528" rx="8.626" ry="7.905"/>
			
				<ellipse transform="matrix(-0.0475 -0.9989 0.9989 -0.0475 213.3267 407.8265)" fill="#1E1E1E" cx="301.11" cy="102.202" rx="8.624" ry="7.905"/>
		</g>
	</g>
</g>
<g id="Layer_2" display="none">
	<rect x="60.902" y="-180.008" display="inline" fill="#DDB63A" width="200" height="288"/>
	<path display="inline" fill="#1E1E1E" d="M267.902,112.992c0,3.279-2.119,6-4.734,6H57.638c-2.615,0-4.736-2.721-4.736-6l0,0
		c0-3.278,2.121-6,4.736-6h205.529C265.782,106.992,267.902,109.714,267.902,112.992L267.902,112.992z"/>
	<path display="inline" fill="#1E1E1E" d="M267.902,53.992c0,3.279-2.101,6-4.69,6H59.594c-2.591,0-4.691-2.721-4.691-6l0,0
		c0-3.278,2.102-6,4.691-6h203.617C265.802,47.992,267.902,50.714,267.902,53.992L267.902,53.992z"/>
	<g display="inline">
		<circle fill="#1E1E1E" cx="161.199" cy="-36.225" r="58.202"/>
		<circle fill="#DDB63A" cx="161.367" cy="-36.057" r="49.673"/>
	</g>
	<g display="inline">
		<path fill="#1E1E1E" d="M143.514-0.504c0,0,14.961,8.865,33.15,0l-9.063-26.88c0,0-6.008,5.147-15.048,0L143.514-0.504z"/>
	</g>
</g>
<g id="Layer_3" display="none">
	<ellipse display="inline" fill="#4DAD6A" cx="290.99" cy="186.866" rx="85.491" ry="79.634"/>
	<ellipse display="inline" fill="#4DAD6A" cx="13.497" cy="188.866" rx="83.993" ry="79.634"/>
	<g display="inline">
		<ellipse fill="#4DAD6A" cx="149.494" cy="68.866" rx="69.996" ry="79.634"/>
		<g>
			<polygon fill="#51514F" points="215.097,35.789 221.119,23.283 207.792,3.803 194.892,6.251 			"/>
			<polygon fill="#1C1C1C" points="212.302,51.066 221.623,31.706 200.993,1.547 181.021,5.338 			"/>
		</g>
		<g>
			<polygon fill="#51514F" points="84.548,38.789 78.525,26.283 91.853,6.803 104.753,9.251 			"/>
			<polygon fill="#1C1C1C" points="87.343,54.066 78.021,34.706 98.651,4.547 118.623,8.338 			"/>
		</g>
	</g>
	<g display="inline">
		<path fill="#CCAB5A" d="M350.48,260.027c0,122.072-88.644,221.033-197.989,221.033C43.143,481.061-45.5,382.1-45.5,260.027
			c0-122.074,88.643-170.035,197.99-170.035C261.837,89.992,350.48,137.953,350.48,260.027z"/>
		<path fill="#93684C" d="M334.383,261.814c0,111.869-81.234,202.56-181.441,202.56c-100.208,0-181.44-90.689-181.44-202.56
			c0-111.872,81.233-155.822,181.44-155.822C253.148,105.992,334.383,149.944,334.383,261.814z"/>
		
			<rect x="41.91" y="94.993" transform="matrix(-0.9382 0.346 -0.346 -0.9382 177.1918 237.3609)" fill="#1E1E1E" width="51.003" height="79.004"/>
		
			<rect x="206.896" y="92.973" transform="matrix(0.9382 0.346 -0.346 0.9382 60.1875 -72.2246)" fill="#1E1E1E" width="51.004" height="79.005"/>
	</g>
	
		<rect x="232.875" y="302.843" transform="matrix(0.5902 -0.8073 0.8073 0.5902 -188.465 358.006)" display="inline" fill="#1E1E1E" width="51.002" height="123.567"/>
	
		<rect x="22.889" y="302.84" transform="matrix(0.5902 0.8073 -0.8073 0.5902 314.1852 110.3704)" display="inline" fill="#1E1E1E" width="51.002" height="123.567"/>
	<g display="inline">
		<rect x="57.902" y="136.992" fill="#1E1E1E" width="178" height="243"/>
		<rect x="53.902" y="108.992" fill="#1E1E1E" width="40" height="64"/>
		<rect x="93.902" y="123.992" fill="#1E1E1E" width="19" height="55"/>
		<rect x="49.902" y="172.992" fill="#B7A763" width="40" height="96"/>
		<rect x="119.902" y="123.992" fill="#B7A763" width="69" height="77"/>
		<rect x="128.902" y="117.992" fill="#B7A763" width="51" height="34"/>
		<circle fill="#31604E" cx="193.723" cy="273.961" r="22.238"/>
		<circle fill="#B7A763" cx="73.958" cy="123.383" r="6.542"/>
		<circle fill="#B7A763" cx="73.958" cy="151.288" r="6.542"/>
		<rect x="193.902" y="129.992" fill="#B7A763" width="51" height="57"/>
		<rect x="89.902" y="157.992" fill="#5B5A57" width="30" height="101"/>
		<rect x="79.902" y="173.992" fill="#B7A763" width="51" height="11"/>
		<rect x="85.902" y="208.992" fill="#B7A763" width="34" height="10"/>
		<rect x="125.902" y="157.992" fill="#B55848" width="57" height="33"/>
		<circle fill="#B7A763" cx="193.533" cy="273.771" r="11.002"/>
		<rect x="57.902" y="269.992" fill="#31604E" width="78" height="29"/>
		<circle fill="#31604E" cx="146.176" cy="372.993" r="82.844"/>
		
			<ellipse transform="matrix(-0.6298 -0.7767 0.7767 -0.6298 -71.0862 635.3861)" fill="#214737" cx="115.86" cy="334.632" rx="24.933" ry="19.271"/>
		
			<ellipse transform="matrix(-0.6299 0.7767 -0.7767 -0.6299 550.6281 408.0382)" fill="#214737" cx="178.094" cy="335.213" rx="24.935" ry="19.273"/>
		<circle fill="#214737" cx="80.642" cy="284.715" r="10.608"/>
		<circle fill="#214737" cx="112.618" cy="284.715" r="10.608"/>
		<g>
			<rect x="238.902" y="121.992" fill="#51514F" width="15" height="98"/>
			<polygon fill="#B7A763" points="267.438,246.992 229.902,246.992 229.902,187.212 			"/>
			<polygon fill="#60605F" points="285.902,208.827 285.902,246.992 269.902,246.992 269.902,187.212 			"/>
			<path fill="#B7A763" d="M239.176,231.581"/>
			<rect x="229.902" y="186.992" fill="#353533" width="40" height="60"/>
			<rect x="263.902" y="186.992" fill="#51514F" width="7" height="60"/>
			<rect x="232.902" y="237.992" fill="#353533" width="27" height="39"/>
			<rect x="251.902" y="231.992" fill="#353533" width="14" height="38"/>
			<rect x="239.902" y="237.992" fill="#353533" width="12" height="106"/>
		</g>
	</g>
	<path display="inline" fill="#1E1E1E" d="M134.902-3.413c-6,0-6,10,0,10C141.902,6.587,141.902-3.413,134.902-3.413z"/>
	<path display="inline" fill="#1E1E1E" d="M164.902-3.413c-6,0-6,10,0,10C171.902,6.587,171.902-3.413,164.902-3.413z"/>
</g>
<g id="Layer_4">
	<g>
		<path fill="#5D7A1E" stroke="#FFFFFF" stroke-width="3" stroke-miterlimit="10" d="M-2.637,601.204
			c0,0,156.999-107.082,299.146,11.269v320.746H-2.637V601.204z"/>
		<path fill="#5D7A1E" stroke="#FFFFFF" stroke-width="3" stroke-miterlimit="10" d="M-2.637,774.757
			c0,0,156.999-50.132,299.146,5.273v155.309H-2.637V774.757z"/>
		<path fill="#5D7A1E" stroke="#FFFFFF" stroke-width="3" stroke-miterlimit="10" d="M35.551,935.16
			c0,8.301-6.727,15.03-15.029,15.03h-52.684c-8.3,0-15.029-6.729-15.029-15.03V765.788c0-8.301,6.729-15.029,15.029-15.029h52.684
			c8.303,0,15.029,6.729,15.029,15.029V935.16z"/>
		<path fill="#5D7A1E" stroke="#FFFFFF" stroke-width="3" stroke-miterlimit="10" d="M343.184,939.401
			c0,8.302-6.729,15.031-15.029,15.031h-52.686c-8.297,0-15.027-6.729-15.027-15.031V770.032c0-8.3,6.73-15.029,15.027-15.029
			h52.686c8.3,0,15.029,6.729,15.029,15.029V939.401z"/>
		<circle fill="#5D7A1E" stroke="#FFFFFF" stroke-width="3" stroke-miterlimit="10" cx="-5.864" cy="766.836" r="59.176"/>
		<circle fill="#5D7A1E" stroke="#FFFFFF" stroke-width="3" stroke-miterlimit="10" cx="312.848" cy="759.324" r="59.176"/>
	</g>
</g>
<g id="Layer_5" display="none">
	<g display="inline">
		<ellipse fill="#5D7A1E" cx="401.481" cy="168.941" rx="115.313" ry="77.758"/>
		<g>
			<ellipse fill="#5D7A1E" cx="294.63" cy="163.299" rx="20.101" ry="17.104"/>
		</g>
	</g>
</g>
<g id="Layer_6" display="none">
	<g display="inline">
		<rect x="-104.098" y="65.992" fill="#5D7A1E" width="143" height="148"/>
		<path fill="#5D7A1E" d="M-103.729,62.856c0-12.521,3.07-22.864,6.856-22.864H32.283c3.786,0,6.855,10.247,6.855,22.765"/>
		<path fill="#5D7A1E" d="M-104.098,217.279c0,22.242-0.006,36.16,3.781,36.16l135.328-0.037c3.787,0,3.76-13.779,3.76-36.021"/>
		<path fill="#5D7A1E" d="M29.699,257.387c0,13.437-10.893,24.326-24.326,24.326c-13.438,0-24.328-10.891-24.328-24.326"/>
		<path fill="#FFFFFF" d="M25.902,194.568c0,2.442-1.979,4.424-4.423,4.424H-87.675c-2.443,0-4.424-1.98-4.424-4.424v-5.152
			c0-2.443,1.98-4.424,4.424-4.424H21.479c2.442,0,4.423,1.98,4.423,4.424V194.568z"/>
		<path fill="#FFFFFF" d="M-33.623,117.323c0,0,24.194,16.219,21.354,38.518c0,0,8.121-2.026,5.939-15.441
			c0,0,11.716,11.305,11.519,21.525c-0.162,8.304-10.553,20.271-30.093,20.271c0,0,17.619-15.758-5.662-35.698
			c0,0-21.537,21.248-7.325,35.698c0,0-28.654-7.288-20.249-25.542C-49.734,138.396-31.348,136.785-33.623,117.323z"/>
	</g>
</g>
<g id="Layer_9" display="none">
	<g display="inline">
		<circle fill="#70B79A" cx="414.992" cy="101.584" r="155.992"/>
	</g>
</g>
<g id="Layer_7" display="none">
	<g display="inline">
		<rect x="83.902" y="2.992" fill="#3F7257" width="143" height="148"/>
		<path fill="#3F7257" d="M83.902,153.981c0,22.242-0.006,36.16,3.781,36.16l135.328-0.037c3.787,0,3.76-13.778,3.76-36.021"/>
		<path fill="#3F7257" d="M140.295,194.088c0,13.438-10.892,24.327-24.326,24.327s-24.326-10.892-24.326-24.327"/>
		<path fill="#3F7257" d="M217.699,194.088c0,13.438-10.893,24.327-24.326,24.327c-13.438,0-24.328-10.892-24.328-24.327"/>
		<path fill="#70B79A" d="M213.902,131.569c0,2.442-1.979,4.423-4.423,4.423H100.325c-2.442,0-4.424-1.98-4.424-4.423v-5.154
			c0-2.442,1.98-4.423,4.424-4.423h109.153c2.442,0,4.423,1.98,4.423,4.423V131.569L213.902,131.569z"/>
		<g>
			<circle fill="#70B79A" cx="154.832" cy="27.12" r="16.586"/>
			<g>
				<polyline fill="#3F7257" points="154.969,12.376 153.357,24.662 154.969,28.536 				"/>
				<polyline fill="#3F7257" points="154.896,12.376 156.508,24.662 154.896,28.536 				"/>
			</g>
		</g>
		<path fill="#70B79A" stroke="#7FF4C1" stroke-miterlimit="10" d="M152.965,54.024c0,0,24.195,16.219,21.354,38.518
			c0,0,8.121-2.026,5.939-15.441c0,0,11.716,11.305,11.519,21.524c-0.161,8.303-10.553,20.272-30.093,20.272
			c0,0,17.619-15.759-5.662-35.699c0,0-21.537,21.247-7.325,35.699c0,0-28.654-7.29-20.248-25.543
			C136.854,75.098,155.24,73.486,152.965,54.024z"/>
	</g>
</g>
<g id="Layer_8" display="none">
</g>
<g id="Layer_10" display="none">
	<rect x="-79.098" y="-239.008" display="inline" fill="#70B79A" width="498.001" height="319"/>
</g>
</svg>
