<?xml version="1.0" encoding="utf-8"?>
<!-- Generator: Adobe Illustrator 16.0.0, SVG Export Plug-In . SVG Version: 6.00 Build 0)  -->
<!DOCTYPE svg PUBLIC "-//W3C//DTD SVG 1.1//EN" "http://www.w3.org/Graphics/SVG/1.1/DTD/svg11.dtd">
<svg version="1.1" xmlns="http://www.w3.org/2000/svg" xmlns:xlink="http://www.w3.org/1999/xlink" x="0px" y="0px" width="267px"
	 height="476px" viewBox="0 0 267 476" enable-background="new 0 0 267 476" xml:space="preserve">
<g id="Layer_1">
	<g>
		<rect y="93" fill="#4D4B4C" width="267" height="383"/>
		<g>
			<rect x="10" y="106" fill="#C2BFC0" width="247" height="171"/>
			<rect x="18" y="108" fill="#404040" width="234" height="164"/>
		</g>
		<g>
			<rect x="10" y="295" fill="#C2BFC0" width="247" height="35"/>
			<rect x="18" y="297" fill="#404040" width="234" height="30"/>
		</g>
		<g>
			<rect x="10" y="350" fill="#C2BFC0" width="247" height="106"/>
			<rect x="18" y="355" fill="#404040" width="234" height="96"/>
		</g>
		<rect x="20" y="118" fill="#C2BFC0" width="108" height="10"/>
		<rect x="20" y="141" fill="#C2BFC0" width="108" height="10"/>
		<rect x="20" y="164" fill="#C2BFC0" width="108" height="10"/>
		<rect x="20" y="186" fill="#C2BFC0" width="108" height="8"/>
		<rect x="20" y="212" fill="#C2BFC0" width="108" height="7"/>
		<rect x="20" y="232" fill="#C2BFC0" width="108" height="10"/>
		<rect x="20" y="254" fill="#C2BFC0" width="108" height="8"/>
		<rect x="139" y="118" fill="#C2BFC0" width="110" height="10"/>
		<rect x="139" y="141" fill="#C2BFC0" width="110" height="10"/>
		<rect x="139" y="164" fill="#C2BFC0" width="110" height="10"/>
		<rect x="139" y="186" fill="#C2BFC0" width="110" height="8"/>
		<rect x="139" y="212" fill="#C2BFC0" width="110" height="7"/>
		<rect x="139" y="232" fill="#C2BFC0" width="110" height="10"/>
		<rect x="139" y="254" fill="#C2BFC0" width="110" height="8"/>
		<rect x="128" fill="#4D4B4C" width="56" height="93"/>
		<rect x="128" fill="#4D4B4C" width="96" height="53"/>
		<rect x="83" y="38" fill="#4D4B4C" width="33" height="55"/>
		<rect x="58" y="38" fill="#4D4B4C" width="58" height="33"/>
		<g>
			<rect x="23" y="360" fill="#C2BFC0" width="85" height="86"/>
			<rect x="25" y="363" fill="#404040" width="81" height="80"/>
		</g>
		<g>
			<rect x="159" y="360" fill="#C2BFC0" width="85" height="86"/>
			<rect x="161" y="363" fill="#404040" width="81" height="80"/>
		</g>
		<g>
			<rect x="116" y="360" fill="#C2BFC0" width="35" height="86"/>
		</g>
	</g>
</g>
<g id="Layer_2" display="none">
	<g display="inline">
		<rect x="-76" y="231" fill="#4D4B4C" width="332" height="265"/>
		<g>
			<rect x="-39" y="363" fill="#C2BFC0" width="252" height="108"/>
			<rect x="-31" y="368" fill="#404040" width="239" height="98"/>
		</g>
		<g>
			<rect x="-16" y="372" fill="#C2BFC0" width="99" height="7"/>
			<rect x="-17" y="386" fill="#C2BFC0" width="100" height="7"/>
			<rect x="-17" y="400" fill="#C2BFC0" width="100" height="7"/>
			<rect x="-17" y="415" fill="#C2BFC0" width="100" height="5"/>
			<rect x="-17" y="430" fill="#C2BFC0" width="100" height="5"/>
			<rect x="-17" y="443" fill="#C2BFC0" width="100" height="6"/>
			<rect x="-17" y="457" fill="#C2BFC0" width="100" height="5"/>
			<rect x="92" y="372" fill="#C2BFC0" width="103" height="7"/>
			<rect x="92" y="386" fill="#C2BFC0" width="103" height="7"/>
			<rect x="92" y="400" fill="#C2BFC0" width="103" height="7"/>
			<rect x="92" y="415" fill="#C2BFC0" width="103" height="5"/>
			<rect x="92" y="430" fill="#C2BFC0" width="103" height="5"/>
			<rect x="92" y="443" fill="#C2BFC0" width="103" height="6"/>
			<rect x="92" y="457" fill="#C2BFC0" width="103" height="5"/>
		</g>
		<rect x="69" y="135" fill="#4D4B4C" width="57" height="96"/>
		<rect x="69" y="135" fill="#4D4B4C" width="98" height="54"/>
		<rect x="-22" y="106" fill="#4D4B4C" width="51" height="125"/>
		<rect x="-61" y="106" fill="#4D4B4C" width="90" height="73"/>
		<g>
			<rect x="229" y="246" fill="#C2BFC0" width="18" height="87"/>
		</g>
		<g>
			<g>
				<rect x="-39" y="252" fill="#C2BFC0" width="252" height="75"/>
			</g>
			<g>
				<rect x="-30" y="256" fill="#404040" width="234" height="66"/>
			</g>
		</g>
		<g>
			<rect x="255.812" y="329.108" fill="#C2BFC0" width="114.706" height="78.176"/>
		</g>
	</g>
</g>
<g id="Layer_3" display="none">
	<rect x="19" y="55" display="inline" fill="#4D4B4C" width="221" height="270"/>
	<g display="inline">
		<rect x="140" y="88" fill="#C2BFC0" width="136" height="196"/>
	</g>
	<rect x="29" y="299" display="inline" fill="#4D4B4C" width="204" height="203"/>
	<g display="inline">
		<rect x="33" y="416" fill="#C2BFC0" width="196" height="84"/>
		<rect x="39" y="420" fill="#404040" width="186" height="76"/>
	</g>
	<g display="inline">
		<rect x="43" y="236" fill="#C2BFC0" width="86" height="8"/>
		<rect x="43" y="254" fill="#C2BFC0" width="86" height="8"/>
		<rect x="43" y="272" fill="#C2BFC0" width="86" height="8"/>
		<rect x="43" y="290" fill="#C2BFC0" width="86" height="6"/>
		<rect x="43" y="310" fill="#C2BFC0" width="86" height="6"/>
	</g>
	<g display="inline">
		<rect x="209" y="143" fill="#4D4B4C" width="54" height="8"/>
		<rect x="209" y="199" fill="#4D4B4C" width="54" height="6"/>
		<rect x="208" y="125" fill="#4D4B4C" width="55" height="8"/>
		<rect x="208" y="161" fill="#4D4B4C" width="55" height="8"/>
		<rect x="208" y="179" fill="#4D4B4C" width="55" height="6"/>
		<rect x="208" y="215" fill="#4D4B4C" width="55" height="8"/>
		<rect x="208" y="233" fill="#4D4B4C" width="55" height="6"/>
	</g>
	<g display="inline">
		<rect x="55" y="428" fill="#C2BFC0" width="61" height="8"/>
		<rect x="55" y="446" fill="#C2BFC0" width="61" height="8"/>
		<rect x="55" y="464" fill="#C2BFC0" width="61" height="8"/>
	</g>
	<g display="inline">
		<rect x="150" y="428" fill="#C2BFC0" width="61" height="8"/>
		<rect x="150" y="446" fill="#C2BFC0" width="61" height="8"/>
		<rect x="150" y="464" fill="#C2BFC0" width="61" height="8"/>
	</g>
	<rect x="29" y="130" display="inline" fill="#C2BFC0" width="139" height="98"/>
	<rect x="75.418" y="-45.72" display="inline" fill="#C2BFC0" width="30.011" height="100.72"/>
	<g display="inline">
		<circle fill="#474445" cx="83.935" cy="179" r="42.897"/>
		<g>
			<circle fill="#9A9596" cx="87.065" cy="179" r="42.897"/>
			<circle fill="#282828" cx="85.382" cy="179.455" r="28.165"/>
			<circle fill="#5E5A5C" cx="87.52" cy="178.545" r="28.165"/>
			<g>
				<circle fill="#282828" cx="86.764" cy="178.759" r="13.222"/>
				<circle fill="#4D4B4C" cx="87.768" cy="178.332" r="13.222"/>
			</g>
		</g>
	</g>
	<g display="inline">
		<g>
			<rect x="42" y="339" fill="#C2BFC0" width="68" height="68"/>
			<rect x="44" y="341" fill="#404040" width="64" height="64"/>
		</g>
		<g>
			<rect x="150" y="339" fill="#C2BFC0" width="68" height="68"/>
			<rect x="152" y="341" fill="#404040" width="64" height="64"/>
		</g>
		<g>
			<rect x="116" y="339" fill="#C2BFC0" width="28" height="68"/>
		</g>
	</g>
</g>
</svg>
