<?xml version="1.0" encoding="utf-8"?>
<!-- Generator: Adobe Illustrator 16.0.0, SVG Export Plug-In . SVG Version: 6.00 Build 0)  -->
<!DOCTYPE svg PUBLIC "-//W3C//DTD SVG 1.1//EN" "http://www.w3.org/Graphics/SVG/1.1/DTD/svg11.dtd">
<svg version="1.1" id="Layer_1" xmlns="http://www.w3.org/2000/svg" xmlns:xlink="http://www.w3.org/1999/xlink" x="0px" y="0px"
	 width="752.096px" height="711px" viewBox="0 0 752.096 711" enable-background="new 0 0 752.096 711" xml:space="preserve">
<g>
	<rect x="-2" y="228" fill="#4C4A4B" width="596" height="483"/>
	<g>
		<rect x="64" y="468" fill="#C0BEBF" width="453" height="198"/>
		<rect x="80" y="477" fill="#404040" width="428" height="180"/>
	</g>
	<g>
		<rect x="105" y="485" fill="#C0BEBF" width="178" height="13"/>
		<rect x="104" y="510" fill="#C0BEBF" width="179" height="14"/>
		<rect x="104" y="536" fill="#C0BEBF" width="179" height="13"/>
		<rect x="104" y="563" fill="#C0BEBF" width="179" height="9"/>
		<rect x="104" y="590" fill="#C0BEBF" width="179" height="9"/>
		<rect x="104" y="614" fill="#C0BEBF" width="179" height="11"/>
		<rect x="104" y="640" fill="#C0BEBF" width="179" height="9"/>
		<rect x="300" y="485" fill="#C0BEBF" width="184" height="13"/>
		<rect x="300" y="510" fill="#C0BEBF" width="184" height="14"/>
		<rect x="300" y="536" fill="#C0BEBF" width="184" height="13"/>
		<rect x="300" y="563" fill="#C0BEBF" width="184" height="9"/>
		<rect x="300" y="590" fill="#C0BEBF" width="184" height="9"/>
		<rect x="300" y="614" fill="#C0BEBF" width="184" height="11"/>
		<rect x="300" y="640" fill="#C0BEBF" width="184" height="9"/>
	</g>
	<rect x="259" y="53" fill="#4C4A4B" width="101" height="175"/>
	<rect x="259" y="53" fill="#4C4A4B" width="175" height="98"/>
	<rect x="95" fill="#4C4A4B" width="92" height="228"/>
	<rect x="25" fill="#4C4A4B" width="162" height="133"/>
	<g>
		<rect x="546" y="255" fill="#C0BEBF" width="32" height="159"/>
	</g>
	<g>
		<g>
			<rect x="64" y="266" fill="#C0BEBF" width="453" height="137"/>
		</g>
		<g>
			<rect x="81" y="273" fill="#404040" width="420" height="121"/>
		</g>
	</g>
</g>
<g>
	<rect x="661" y="424" fill="#404040" width="63" height="92"/>
	<rect x="631.126" y="70.361" fill="#5E5E5E" width="120.97" height="204.43"/>
	<g>
		<rect x="631.01" y="65.98" fill="#C0BEBF" width="122.524" height="198.588"/>
		<polygon fill="#C0BEBF" points="631.01,270.41 662.127,425.22 722.416,425.22 753.534,270.41 		"/>
		<rect x="594.057" y="431.062" fill="#C0BEBF" width="128.359" height="88.778"/>
	</g>
</g>
</svg>
