<?xml version="1.0" encoding="utf-8"?>
<!-- Generator: Adobe Illustrator 16.0.0, SVG Export Plug-In . SVG Version: 6.00 Build 0)  -->
<!DOCTYPE svg PUBLIC "-//W3C//DTD SVG 1.1//EN" "http://www.w3.org/Graphics/SVG/1.1/DTD/svg11.dtd">
<svg version="1.1" xmlns="http://www.w3.org/2000/svg" xmlns:xlink="http://www.w3.org/1999/xlink" x="0px" y="0px" width="267px"
	 height="476px" viewBox="0 0 267 476" enable-background="new 0 0 267 476" xml:space="preserve">
<g id="Layer_1" display="none">
	<g display="inline">
		<rect y="93" fill="#4D4B4C" width="267" height="383"/>
		<g>
			<rect x="10" y="106" fill="#C2BFC0" width="247" height="171"/>
			<rect x="18" y="108" fill="#404040" width="234" height="164"/>
		</g>
		<g>
			<rect x="10" y="295" fill="#C2BFC0" width="247" height="35"/>
			<rect x="18" y="297" fill="#404040" width="234" height="30"/>
		</g>
		<g>
			<rect x="10" y="350" fill="#C2BFC0" width="247" height="106"/>
			<rect x="18" y="355" fill="#404040" width="234" height="96"/>
		</g>
		<rect x="20" y="118" fill="#C2BFC0" width="108" height="10"/>
		<rect x="20" y="141" fill="#C2BFC0" width="108" height="10"/>
		<rect x="20" y="164" fill="#C2BFC0" width="108" height="10"/>
		<rect x="20" y="186" fill="#C2BFC0" width="108" height="8"/>
		<rect x="20" y="212" fill="#C2BFC0" width="108" height="7"/>
		<rect x="20" y="232" fill="#C2BFC0" width="108" height="10"/>
		<rect x="20" y="254" fill="#C2BFC0" width="108" height="8"/>
		<rect x="139" y="118" fill="#C2BFC0" width="110" height="10"/>
		<rect x="139" y="141" fill="#C2BFC0" width="110" height="10"/>
		<rect x="139" y="164" fill="#C2BFC0" width="110" height="10"/>
		<rect x="139" y="186" fill="#C2BFC0" width="110" height="8"/>
		<rect x="139" y="212" fill="#C2BFC0" width="110" height="7"/>
		<rect x="139" y="232" fill="#C2BFC0" width="110" height="10"/>
		<rect x="139" y="254" fill="#C2BFC0" width="110" height="8"/>
		<rect x="128" fill="#4D4B4C" width="56" height="93"/>
		<rect x="128" fill="#4D4B4C" width="96" height="53"/>
		<rect x="83" y="38" fill="#4D4B4C" width="33" height="55"/>
		<rect x="58" y="38" fill="#4D4B4C" width="58" height="33"/>
		<g>
			<rect x="23" y="360" fill="#C2BFC0" width="85" height="86"/>
			<rect x="25" y="363" fill="#404040" width="81" height="80"/>
		</g>
		<g>
			<rect x="159" y="360" fill="#C2BFC0" width="85" height="86"/>
			<rect x="161" y="363" fill="#404040" width="81" height="80"/>
		</g>
		<g>
			<rect x="116" y="360" fill="#C2BFC0" width="35" height="86"/>
		</g>
	</g>
</g>
<g id="Layer_2" display="none">
	<g display="inline">
		<rect x="-76" y="231" fill="#4D4B4C" width="332" height="265"/>
		<g>
			<rect x="-39" y="363" fill="#C2BFC0" width="252" height="108"/>
			<rect x="-31" y="368" fill="#404040" width="239" height="98"/>
		</g>
		<g>
			<rect x="-16" y="372" fill="#C2BFC0" width="99" height="7"/>
			<rect x="-17" y="386" fill="#C2BFC0" width="100" height="7"/>
			<rect x="-17" y="400" fill="#C2BFC0" width="100" height="7"/>
			<rect x="-17" y="415" fill="#C2BFC0" width="100" height="5"/>
			<rect x="-17" y="430" fill="#C2BFC0" width="100" height="5"/>
			<rect x="-17" y="443" fill="#C2BFC0" width="100" height="6"/>
			<rect x="-17" y="457" fill="#C2BFC0" width="100" height="5"/>
			<rect x="92" y="372" fill="#C2BFC0" width="103" height="7"/>
			<rect x="92" y="386" fill="#C2BFC0" width="103" height="7"/>
			<rect x="92" y="400" fill="#C2BFC0" width="103" height="7"/>
			<rect x="92" y="415" fill="#C2BFC0" width="103" height="5"/>
			<rect x="92" y="430" fill="#C2BFC0" width="103" height="5"/>
			<rect x="92" y="443" fill="#C2BFC0" width="103" height="6"/>
			<rect x="92" y="457" fill="#C2BFC0" width="103" height="5"/>
		</g>
		<rect x="69" y="135" fill="#4D4B4C" width="57" height="96"/>
		<rect x="69" y="135" fill="#4D4B4C" width="98" height="54"/>
		<rect x="-22" y="106" fill="#4D4B4C" width="51" height="125"/>
		<rect x="-61" y="106" fill="#4D4B4C" width="90" height="73"/>
		<g>
			<rect x="229" y="246" fill="#C2BFC0" width="18" height="87"/>
		</g>
		<g>
			<g>
				<rect x="-39" y="252" fill="#C2BFC0" width="252" height="75"/>
			</g>
			<g>
				<rect x="-30" y="256" fill="#404040" width="234" height="66"/>
			</g>
		</g>
		<g>
			<rect x="255.812" y="329.108" fill="#C2BFC0" width="114.706" height="78.176"/>
		</g>
	</g>
</g>
<g id="Layer_3">
	<g>
		<rect x="38.68" y="-2.012" fill="#474445" width="14.824" height="36.521"/>
		<rect y="86" fill="#4D4B4C" width="194" height="237"/>
		<g>
			<rect x="106" y="115" fill="#C2BFC0" width="120" height="172"/>
		</g>
		<g>
			<rect x="242" y="106" fill="#4D4B4C" width="22" height="109"/>
			<rect x="224" y="191" fill="#4D4B4C" width="40" height="24"/>
		</g>
		<rect x="9" y="301" fill="#4D4B4C" width="179" height="178"/>
		<g>
			<rect x="12" y="404" fill="#C2BFC0" width="173" height="73"/>
			<rect x="18" y="407" fill="#404040" width="163" height="66"/>
		</g>
		<g>
			<rect x="21" y="245" fill="#C2BFC0" width="75" height="8"/>
			<rect x="21" y="261" fill="#C2BFC0" width="75" height="7"/>
			<rect x="21" y="277" fill="#C2BFC0" width="75" height="7"/>
			<rect x="21" y="293" fill="#C2BFC0" width="75" height="5"/>
			<rect x="21" y="310" fill="#C2BFC0" width="75" height="5"/>
		</g>
		<g>
			<rect x="167" y="163" fill="#4D4B4C" width="47" height="8"/>
			<rect x="167" y="212" fill="#4D4B4C" width="47" height="6"/>
			<rect x="166" y="147" fill="#4D4B4C" width="48" height="7"/>
			<rect x="166" y="179" fill="#4D4B4C" width="48" height="8"/>
			<rect x="166" y="196" fill="#4D4B4C" width="48" height="4"/>
			<rect x="166" y="227" fill="#4D4B4C" width="48" height="7"/>
			<rect x="166" y="243" fill="#4D4B4C" width="48" height="5"/>
		</g>
		<g>
			<rect x="31" y="414" fill="#C2BFC0" width="54" height="7"/>
			<rect x="31" y="430" fill="#C2BFC0" width="54" height="6"/>
			<rect x="31" y="445" fill="#C2BFC0" width="54" height="7"/>
			<rect x="31" y="461" fill="#C2BFC0" width="54" height="6"/>
		</g>
		<g>
			<rect x="115" y="414" fill="#C2BFC0" width="54" height="7"/>
			<rect x="115" y="430" fill="#C2BFC0" width="54" height="6"/>
			<rect x="115" y="445" fill="#C2BFC0" width="54" height="7"/>
			<rect x="115" y="461" fill="#C2BFC0" width="54" height="6"/>
		</g>
		<rect x="9" y="152" fill="#C2BFC0" width="122" height="86"/>
		<rect x="50.085" y="-2.712" fill="#C2BFC0" width="26.377" height="88.521"/>
		<g>
			<circle fill="#474445" cx="57.57" cy="194.793" r="37.702"/>
			<g>
				<circle fill="#9A9596" cx="60.322" cy="194.792" r="37.702"/>
				<circle fill="#282828" cx="58.843" cy="195.192" r="24.754"/>
				<circle fill="#5E5A5C" cx="60.722" cy="194.393" r="24.754"/>
				<g>
					<circle fill="#282828" cx="60.057" cy="194.58" r="11.621"/>
					<circle fill="#4D4B4C" cx="60.94" cy="194.205" r="11.621"/>
				</g>
			</g>
		</g>
		<rect x="41.599" y="-2.565" fill="#C2BFC0" width="24.303" height="37.075"/>
		<g>
			<g>
				<rect x="20" y="336" fill="#C2BFC0" width="60" height="59"/>
				<rect x="22" y="338" fill="#404040" width="56" height="56"/>
			</g>
			<g>
				<rect x="115" y="336" fill="#C2BFC0" width="60" height="59"/>
				<rect x="117" y="338" fill="#404040" width="57" height="56"/>
			</g>
			<g>
				<rect x="85" y="336" fill="#C2BFC0" width="25" height="59"/>
			</g>
		</g>
	</g>
</g>
</svg>
