<svg version="1.1" id="Layer_1" xmlns="http://www.w3.org/2000/svg" xmlns:xlink="http://www.w3.org/1999/xlink" x="0px" y="0px"
	 width="1520.936px" height="1303.26px" viewBox="0 0 1520.936 1303.26" enable-background="new 0 0 1520.936 1303.26"
	 xml:space="preserve">
<g>
	<g>
		<polygon fill="#5D7A1E" points="567.39,570.26 1112.771,570.26 840.078,353.98 567.39,138 294.689,354.134 21.999,570.26 		"/>
		<rect x="79" y="567.26" fill="#5D7A1E" width="963" height="690"/>
		<g>
			<rect x="786" y="238.26" fill="#5D7A1E" width="111" height="160"/>
			<rect x="776" y="184.26" fill="#5D7A1E" width="129" height="56"/>
		</g>
		<rect x="844" y="829.26" fill="#5D7A1E" width="655" height="428"/>
		<polygon fill="#5D7A1E" points="1243.823,831.26 1500.938,831.26 1372.379,729.037 1243.823,627.085 1115.264,729.171 
			986.7,831.26 		"/>
	</g>
	<circle fill="#5D7A1E" cx="745.146" cy="1150.409" r="14.147"/>
	<path fill="#5D7A1E" d="M906.778,27.506c0,0,1.858,16.048-27.435,26.889c-62.479,23.167-54.017,64.879-48.432,110.632
		c0.777-16.563,8.314-27.782,14.947-37.212c7.503-10.097,15.192-18.056,21.155-25.191c12.54-13.699,16.066-25.757,15.919-25.858
		c0.192-0.044-0.99,13.749-11.611,29.733c-4.943,8.173-11.609,17.2-18.082,27.721c-5.181,8.715-10.719,18.613-12.214,30.594
		C963.794,123.813,906.778,27.506,906.778,27.506z"/>
</g>
<g id="bathroom">
	<rect x="100" y="596.26" fill="#87B6C1" width="367" height="332"/>
	<rect x="114" y="596.26" fill="#AABEC1" width="138" height="332"/>
	<g>
		<g>
			<rect x="175.5" y="832.76" fill="#7C5E32" stroke="#B79E7D" stroke-width="7" stroke-miterlimit="10" width="56" height="93"/>
			<rect x="177" y="856.26" fill="#D3B184" width="52" height="67"/>
			<rect x="177" y="834.26" fill="#D3B184" width="52" height="20"/>
			<rect x="197" y="840.26" fill="#7C5E32" width="16" height="5"/>
			<rect x="220" y="878.26" fill="#7C5E32" width="4" height="17"/>
		</g>
		<g>
			<rect x="175.5" y="806.76" fill="#7C5E32" stroke="#B79E7D" stroke-width="7" stroke-miterlimit="10" width="56" height="22"/>
			<path fill="#D8D8D6" d="M229.138,810.5c0,9.35-11.165,16.929-24.938,16.929c-13.773,0-24.938-7.579-24.938-16.929"/>
			<rect x="176" y="826.26" fill="#D8D8D6" width="56" height="4"/>
			<rect x="189" y="802.26" fill="#91918B" width="8" height="8"/>
			<rect x="202" y="792.26" fill="#91918B" width="4" height="18"/>
			<rect x="213" y="802.26" fill="#91918B" width="8" height="8"/>
			<polygon fill="#91918B" points="202.213,792.26 200.315,796.26 208.666,796.26 206.768,792.26 			"/>
		</g>
	</g>
	<g>
		<g>
			<path fill="#D8D8D6" d="M202.131,879.986c0,16.728-14.223,30.29-31.769,30.29c-17.546,0-31.769-13.563-31.769-30.29"/>
			<path fill="#C1C1C1" d="M202.131,881.26c0,0.996-0.503,2-1.123,2h-61.292c-0.62,0-1.123-1.004-1.123-2l0,0
				c0-0.996,0.502-2,1.123-2h61.292C201.628,879.26,202.131,880.264,202.131,881.26L202.131,881.26z"/>
			<path fill="#D8D8D6" d="M205,878.692c0,1.476-0.772,3.567-1.93,3.567h-65.439c-1.158,0-1.631-2.093-1.631-3.567v-1.938
				c0-1.477,0.474-3.494,1.631-3.494h65.439c1.158,0,1.93,2.019,1.93,3.494V878.692z"/>
			<path fill="#C1C1C1" d="M201.008,874.76c0,0.995-0.484,2.5-1.081,2.5h-59.03c-0.598,0-1.081-1.505-1.081-2.5l0,0
				c0-0.995,0.483-2.5,1.081-2.5h59.03C200.523,872.26,201.008,873.765,201.008,874.76L201.008,874.76z"/>
			<path fill="#D8D8D6" d="M202,873.304c0,0.738-1.067-0.044-2.114-0.044h-59.048c-1.048,0-1.838,0.782-1.838,0.044v-1.225
				c0-0.738,0.791-0.819,1.838-0.819h59.048c1.046,0,2.114,0.081,2.114,0.819V873.304z"/>
		</g>
		<polygon fill="#D8D8D6" points="152.034,907.26 113,907.26 113,834.26 163.554,834.26 		"/>
		<polygon fill="#D8D8D6" points="138.942,900.26 174.378,900.26 163.554,929.26 113,929.26 113,900.26 		"/>
		<path fill="#C1C1C1" d="M163.554,836.76c0,0.999-0.406,2.5-0.909,2.5h-49.672c-0.502,0-0.911-1.501-0.911-2.5l0,0
			c0-0.995,0.409-2.5,0.911-2.5h49.672C163.148,834.26,163.554,835.765,163.554,836.76L163.554,836.76z"/>
		<path fill="#D8D8D6" d="M168.64,832.26c0,1.206-0.768,2-1.713,2h-58.214c-0.945,0-1.712-0.794-1.712-2l0,0
			c0-1.206,0.768-2,1.712-2h58.214C167.872,830.26,168.64,831.054,168.64,832.26L168.64,832.26z"/>
		<path fill="none" stroke="#C1C1C1" stroke-width="6" stroke-miterlimit="10" d="M174.727,909.831
			c-17.546,0-31.769-13.563-31.769-30.291"/>
	</g>
	<rect x="252" y="596.26" fill="#598C91" width="14" height="332"/>
	<g>
		<g>
			<polygon fill="#1AA4C4" points="431.439,732.958 445.543,751.403 400.018,902.258 339.004,844.246 			"/>
			<g>
				<path fill="#7C7C7B" d="M450.055,727.43c-4.035-4.529-11.685-2.369-17.359,5.055l14.178,18.565
					c4.565-5.976,6.588-13.593,5.373-19.091c6.325-9.512,13.755-2.652,13.755-2.652v-5.921
					C460,717.934,453.865,723.184,450.055,727.43z"/>
				<rect x="466" y="711.26" fill="#7C7C7B" width="2" height="30"/>
			</g>
		</g>
		<g>
			<path fill="#D8D8D6" d="M466.102,854.26H251.909c0,36,13.091,53.795,33.091,62.521v7.297c0,3.171,1.604,5.183,3.842,5.183h0.335
				c2.24,0,3.822-2.012,3.822-5.183v-4.291c18,5.283,40.841,5.285,65.638,5.285c22.891,0,43.362-0.004,61.362-4.155v3.64
				c0,3.172,2.317,6.704,4.555,6.704h0.337c2.238,0,4.108-3.532,4.108-6.704v-6.104C452,910.426,466.102,893.26,466.102,854.26z"/>
			<path fill="#C1C1C1" d="M466.114,853.26c0,2.806-1.696,4-3.789,4H255.361c-2.094,0-3.792-1.194-3.792-4l0,0
				c0-2.805,1.698-4,3.792-4h206.964C464.418,849.26,466.114,850.456,466.114,853.26L466.114,853.26z"/>
			<path fill="#D8D8D6" d="M474,848.182c0,2.927-1.712,6.078-3.949,6.078H247.073c-2.236,0-4.073-3.151-4.073-6.078V847.1
				c0-2.925,1.836-5.84,4.073-5.84h222.978c2.237,0,3.949,2.915,3.949,5.84V848.182z"/>
		</g>
	</g>
	<rect x="259" y="703.26" fill="#7C7C7B" width="209" height="6"/>
	<rect x="113" y="680.26" fill="#D8D8D8" width="119" height="106"/>
</g>
<g id="bedroom">
	<rect x="483" y="664.26" fill="#AABEC1" width="529" height="261"/>
	<g>
		<g>
			<rect x="933" y="840.26" fill="#997648" width="57" height="85"/>
			<rect x="935" y="863.26" fill="#D3B184" width="52" height="59"/>
			<rect x="935" y="842.26" fill="#D3B184" width="52" height="18"/>
			<rect x="953" y="847.26" fill="#7C5E32" width="17" height="3"/>
			<rect x="955" y="890.26" fill="#7C5E32" width="13" height="4"/>
		</g>
	</g>
	<polygon fill="#889799" points="549.307,840.26 564,840.26 564,927.504 550.148,924.188 	"/>
	<g>
		<g>
			<rect x="503" y="840.26" fill="#997648" width="55" height="85"/>
			<rect x="505" y="863.26" fill="#D3B184" width="52" height="59"/>
			<rect x="505" y="842.26" fill="#D3B184" width="52" height="18"/>
			<rect x="522" y="847.26" fill="#7C5E32" width="18" height="3"/>
			<rect x="524" y="890.26" fill="#7C5E32" width="14" height="4"/>
		</g>
	</g>
	<rect x="580" y="778.26" fill="#889799" width="340" height="149"/>
	<g>
		<rect x="577" y="776.26" fill="#997648" width="340" height="149"/>
		<g>
			<polygon fill="#FFFFFF" points="625.215,847.26 872.023,847.26 888.289,872.26 606.677,872.26 			"/>
			<polygon fill="#D3B184" points="899,922.26 597,922.26 597,866.26 612.816,866.26 899,866.26 			"/>
			<path fill="#7C7C7B" d="M764.766,859.575c-1.065,3.77-4.587,5.844-7.859,4.631l-36.563-13.526
				c-3.274-1.21-5.063-5.249-3.998-9.019l11.912-42.084c1.065-3.77,4.586-5.843,7.859-4.632l36.563,13.526
				c3.273,1.212,5.064,5.25,3.998,9.02L764.766,859.575z"/>
			<g>
				<path fill="#D8D8D8" d="M639.1,806.723c16.062,13.772-7.025,52.791,22.586,51.645c13.048-0.573,25.596-9.182,38.645-5.164
					c5.019,1.722,10.038,7.46,14.555,8.034c5.521,0.572,3.514,0,6.022-4.593c3.514-7.459,1.506-16.065,2.51-23.524
					c1.004-6.887,9.033-14.346,9.033-19.51c-0.502-16.067-33.625-14.92-41.656-14.92c-8.533,0-48.682-5.164-52.195,8.032"/>
			</g>
			<g>
				<path fill="#D8D8D8" d="M753.234,806.723c16.061,13.772-7.027,52.791,22.584,51.645c13.049-0.573,25.596-9.182,38.645-5.164
					c5.021,1.722,10.039,7.46,14.555,8.034c5.521,0.572,3.515,0,6.023-4.593c3.512-7.459,1.505-16.065,2.509-23.524
					c1.003-6.887,9.034-14.346,9.034-19.51c-0.502-16.067-33.626-14.92-41.656-14.92c-8.531,0-48.682-5.164-52.194,8.032"/>
			</g>
			<path fill="#7C7C7B" d="M862,857.121c0,3.404-1.78,6.14-4.256,6.14h-76.211c-2.478,0-4.533-2.734-4.533-6.14v-45.186
				c0-3.401,2.057-5.676,4.533-5.676h76.211c2.476,0,4.256,2.273,4.256,5.676V857.121z"/>
		</g>
	</g>
	<rect x="479" y="595.26" fill="#AABEC1" width="533" height="138"/>
</g>
<g id="living-room">
	<g>
		<rect x="534.968" y="987.13" fill="#AABEC1" width="488" height="259"/>
	</g>
	<path fill="#877838" d="M605.968,1192.13v12.247c0,6.972,14.664,12.753,32.712,12.753h318.615c18.047,0,31.673-5.781,31.673-12.753
		v-12.247"/>
	<g>
		<polyline fill="#506D8C" points="882.968,1158.13 850.968,1158.13 850.968,1138.13 		"/>
		<g>
			<path fill="#506D8C" d="M850.968,1138.13c0,0,6.941,0,15.845,0s16.155,4.455,16.155,10.059s0,9.941,0,9.941"/>
		</g>
		<polyline fill="#506D8C" points="882.968,1157.13 850.968,1157.13 850.968,1178.13 		"/>
		<g>
			<path fill="#506D8C" d="M850.968,1178.13c0,0,6.941,0,15.845,0s16.155-5.032,16.155-10.637c0-5.604,0-10.363,0-10.363"/>
		</g>
		<polyline fill="#506D8C" points="819.968,1158.13 851.968,1158.13 851.968,1138.13 		"/>
		<g>
			<path fill="#506D8C" d="M851.968,1138.13c0,0-6.877,0-15.78,0s-16.22,4.455-16.22,10.059s0,9.941,0,9.941"/>
		</g>
		<polyline fill="#506D8C" points="819.968,1157.13 851.968,1157.13 851.968,1178.13 		"/>
		<g>
			<path fill="#506D8C" d="M851.968,1178.13c0,0-6.877,0-15.78,0s-16.22-5.032-16.22-10.637c0-5.604,0-10.363,0-10.363"/>
		</g>
	</g>
	<g>
		<rect x="615.03" y="1081.287" fill="#7F7F7E" width="78" height="56.443"/>
		<rect x="619.95" y="1084.815" fill="#94DCF2" width="31.748" height="22.733"/>
		<rect x="619.95" y="1111.076" fill="#94DCF2" width="31.748" height="22.342"/>
		<rect x="657.187" y="1084.815" fill="#94DCF2" width="31.748" height="22.733"/>
		<rect x="657.187" y="1111.076" fill="#94DCF2" width="31.748" height="22.342"/>
	</g>
	<g>
		<polyline fill="#3DB5C1" points="738.968,987.13 692.968,987.13 692.968,1124.13 		"/>
		<g>
			<path fill="#3DB5C1" d="M692.968,1124.13c0,0,10.532,0,23.366,0s23.634-18.037,23.634-40.037V985.13"/>
		</g>
	</g>
	<rect x="690.968" y="1125.13" fill="#E5C97C" width="9" height="3"/>
	<g>
		<polyline fill="#3DB5C1" points="704.968,1187.13 690.968,1187.13 690.968,1128.13 		"/>
		<g>
			<path fill="#3DB5C1" d="M690.968,1128.13c0,0,3.182,0,7.032,0s6.968,12.863,6.968,29.02s0,28.98,0,28.98"/>
		</g>
	</g>
	<g>
		<polyline fill="#3DB5C1" points="576.968,987.13 614.968,987.13 614.968,1126.13 		"/>
		<g>
			<path fill="#3DB5C1" d="M614.968,1126.13c0,0-8.518,0-18.968,0s-19.032-17.855-19.032-39.855V985.13"/>
		</g>
	</g>
	<rect x="600.968" y="1126.13" fill="#E5C97C" width="14" height="3"/>
	<g>
		<polyline fill="#3DB5C1" points="593.968,1195.13 614.968,1195.13 614.968,1129.13 		"/>
		<g>
			<path fill="#3DB5C1" d="M614.968,1129.13c0,0-4.693,0-10.468,0s-10.532,14.426-10.532,32.491s0,32.509,0,32.509"/>
		</g>
	</g>
	<rect x="893.968" y="1034.13" fill="#898883" width="16" height="34"/>
	<rect x="849.968" y="1034.13" fill="#877838" width="57" height="34"/>
	<rect x="854.968" y="1038.13" fill="#E5CB5E" width="47" height="25"/>
	<rect x="821.968" y="1034.13" fill="#898883" width="16" height="34"/>
	<rect x="778.968" y="1034.13" fill="#877838" width="57" height="34"/>
	<rect x="533.968" y="1193.13" fill="#B29E47" width="489" height="54"/>
	<rect x="783.968" y="1038.13" fill="#E5CB5E" width="47" height="25"/>
	<ellipse fill="#898883" cx="950.333" cy="1079.001" rx="17.333" ry="36.999"/>
	<ellipse fill="#877838" cx="945" cy="1079.5" rx="21" ry="37.5"/>
	<ellipse fill="#E5CB5E" cx="945.333" cy="1079.953" rx="17.333" ry="30.952"/>
	<g>
		<polyline fill="#5D989B" points="716.968,987.13 691.968,987.13 691.968,1125.13 		"/>
		<g>
			<path fill="#5D989B" d="M691.968,1125.13c0,0,5.657,0,12.532,0s12.468-18.037,12.468-40.037V985.13"/>
		</g>
	</g>
	<g>
		<path fill="#EA9D73" d="M766.968,1176.647c0,4.31-3.25,7.482-7.562,7.482h-51.842c-4.311,0-7.597-3.173-7.597-7.482v-51.842
			c0-4.311,3.286-7.676,7.597-7.676h51.842c4.312,0,7.562,3.365,7.562,7.676V1176.647z"/>
		<path fill="#E26E40" d="M835.968,1176.647c0,4.31-3.709,7.482-8.021,7.482h-51.842c-4.312,0-8.138-3.173-8.138-7.482v-51.842
			c0-4.311,3.826-7.676,8.138-7.676h51.842c4.312,0,8.021,3.365,8.021,7.676V1176.647z"/>
		<path fill="#EA9D73" d="M902.968,1176.647c0,4.31-3.258,7.482-7.569,7.482H843.56c-4.312,0-7.592-3.173-7.592-7.482v-51.842
			c0-4.311,3.28-7.676,7.592-7.676h51.839c4.312,0,7.569,3.365,7.569,7.676V1176.647z"/>
		<path fill="#E26E40" d="M756.968,1177.905c0,3.725-2.011,6.225-4.976,6.225h-36.102c-2.964,0-4.923-2.5-4.923-6.225v-45.379
			c0-3.725,1.959-6.396,4.923-6.396h36.102c2.965,0,4.976,2.672,4.976,6.396V1177.905z"/>
		<path fill="#EA9D73" d="M825.968,1177.905c0,3.725-2.71,6.225-5.675,6.225h-36.102c-2.964,0-5.224-2.5-5.224-6.225v-45.379
			c0-3.725,2.26-6.396,5.224-6.396h36.102c2.965,0,5.675,2.672,5.675,6.396V1177.905z"/>
		<path fill="#E26E40" d="M891.968,1177.905c0,3.725-1.711,6.225-4.676,6.225h-36.101c-2.964,0-5.224-2.5-5.224-6.225v-45.379
			c0-3.725,2.26-6.396,5.224-6.396h36.101c2.965,0,4.676,2.672,4.676,6.396V1177.905z"/>
		<path fill="#E26E40" d="M692.968,1198.13v-18.065c0-3.163,3.863-4.935,7.831-4.935H902.06c3.968,0,6.908,1.771,6.908,4.935v18.065
			"/>
		<path fill="#DD9773" d="M700.366,1156.67c0-4.845-4.985-8.978-11.183-8.978c-6.142,0-11.088,4.438-11.175,8.438h-0.041v56h22
			v-53.396C700.968,1158.07,700.366,1157.382,700.366,1156.67z"/>
		<rect x="677.968" y="1198.13" fill="#DD9773" width="231" height="14"/>
		<path fill="#DD9773" d="M925.401,1156.67c0-4.845-4.97-8.978-11.166-8.978c-6.144,0-11.072,4.438-11.16,8.438h-0.107v56h22
			v-53.396C924.968,1158.07,925.401,1157.382,925.401,1156.67z"/>
		<path fill="#E26E40" d="M693.968,1196.326c0,2.653-2.15,4.804-4.804,4.804h-1.393c-2.653,0-4.804-2.15-4.804-4.804v-38.393
			c0-2.653,2.15-4.804,4.804-4.804h1.393c2.653,0,4.804,2.15,4.804,4.804V1196.326z"/>
		<path fill="#E26E40" d="M919.968,1196.326c0,2.653-2.151,4.804-4.805,4.804h-1.391c-2.653,0-4.805-2.15-4.805-4.804v-38.393
			c0-2.653,2.151-4.804,4.805-4.804h1.391c2.653,0,4.805,2.15,4.805,4.804V1196.326z"/>
		<rect x="677.968" y="1212.13" fill="#E26E40" width="247" height="5"/>
	</g>
	<g>
		<polyline fill="#5D989B" points="589.968,989.13 614.968,989.13 614.968,1127.13 		"/>
		<g>
			<path fill="#5D989B" d="M614.968,1127.13c0,0-5.593,0-12.468,0s-12.532-18.037-12.532-40.037V987.13"/>
		</g>
	</g>
	<g>
		<g>
			<rect x="962.968" y="1110.13" fill="#898883" width="57" height="85"/>
		</g>
	</g>
	<g>
		<g>
			<rect x="965.968" y="1110.13" fill="#997648" width="57" height="85"/>
			<rect x="967.968" y="1133.13" fill="#D3B184" width="52" height="59"/>
			<rect x="967.968" y="1112.13" fill="#D3B184" width="52" height="18"/>
			<rect x="985.968" y="1117.13" fill="#7C5E32" width="17" height="3"/>
			<rect x="987.968" y="1160.13" fill="#7C5E32" width="13" height="4"/>
		</g>
	</g>
</g>
<g id="kitchen">
	<rect x="109" y="986.26" fill="#AABEC1" width="411" height="255"/>
	<g>
		<g>
			<rect x="113" y="1116.26" fill="#997648" width="92" height="124"/>
			<rect x="117" y="1150.26" fill="#D3B184" width="86" height="85"/>
			<rect x="117" y="1119.26" fill="#D3B184" width="86" height="26"/>
			<rect x="146" y="1129.26" fill="#7C5E32" width="30" height="4"/>
			<rect x="191" y="1183.26" fill="#7C5E32" width="5" height="22"/>
			<rect x="204" y="1116.26" fill="#997648" width="193" height="124"/>
			<rect x="208" y="1150.26" fill="#D3B184" width="86" height="85"/>
			<rect x="208" y="1119.26" fill="#D3B184" width="86" height="26"/>
			<rect x="238" y="1129.26" fill="#7C5E32" width="29" height="4"/>
			<rect x="215" y="1183.26" fill="#7C5E32" width="6" height="22"/>
			<path fill="#7C7C7B" d="M168,1116.26v-4.771c0-0.198,0.843-0.229,2.05-0.229h69.888c1.206,0,2.063,0.03,2.063,0.229v4.771"/>
			<polygon fill="#7C7C7B" points="198.028,1099.26 210.692,1099.26 214.914,1112.26 193.769,1112.26 			"/>
			<rect x="202" y="1071.26" fill="#7C7C7B" width="5" height="35"/>
			<polygon fill="#91918B" points="201.819,1069.26 199.447,1074.26 209.881,1074.26 207.51,1069.26 			"/>
			
				<rect x="209.298" y="1088.114" transform="matrix(0.9782 0.2078 -0.2078 0.9782 233.1525 -19.9666)" fill="#7C7C7B" width="4.605" height="23.027"/>
			<polygon fill="#7C7C7B" points="215.643,1091.26 233,1091.26 233,1088.146 211.508,1087.75 			"/>
			<rect x="300" y="1121.26" fill="#FFFFFF" width="93" height="113"/>
			<rect x="308" y="1124.26" fill="#D8D8D8" width="78" height="18"/>
			<rect x="297" y="1102.26" fill="#D8D8D8" width="98" height="14"/>
			<rect x="328" y="1107.26" fill="#5D5D5D" width="38" height="8"/>
			<circle fill="#5D5D5D" cx="317.289" cy="1132.231" r="4.941"/>
			<circle fill="#5D5D5D" cx="334.558" cy="1132.231" r="4.941"/>
		</g>
		<rect x="354" y="1127.26" fill="#5D5D5D" width="18" height="4"/>
		<rect x="354" y="1134.26" fill="#5D5D5D" width="18" height="4"/>
		<g>
			<rect x="397" y="1116.26" fill="#F9F9F9" width="117" height="124"/>
			<rect x="397" y="1046.26" fill="#F9F9F9" width="117" height="65"/>
			<rect x="498" y="1063.26" fill="#5D5D5D" width="4" height="26"/>
			<rect x="498" y="1147.26" fill="#5D5D5D" width="4" height="63"/>
		</g>
	</g>
</g>
<g id="furnace-room">
	<rect x="1027.5" y="984.26" fill="#AABEC1" width="442.5" height="268"/>
	<g>
		<rect x="1361.464" y="1015.618" fill="#484445" width="5.616" height="17.596"/>
		<rect x="1347" y="1058.26" fill="#4C4A4B" width="73" height="115"/>
		<g>
			<rect x="1387" y="1072.26" fill="#C0BEBF" width="46" height="83"/>
		</g>
		<g>
			<rect x="1439" y="1068.26" fill="#4C4A4B" width="8" height="53"/>
			<rect x="1432" y="1108.26" fill="#4C4A4B" width="15" height="13"/>
		</g>
		<rect x="1350" y="1161.26" fill="#4C4A4B" width="69" height="87"/>
		<g>
			<rect x="1352" y="1211.26" fill="#C0BEBF" width="65" height="35"/>
			<rect x="1353" y="1212.26" fill="#404040" width="63" height="33"/>
		</g>
		<g>
			<rect x="1355" y="1135.26" fill="#C0BEBF" width="28" height="3"/>
			<rect x="1355" y="1142.26" fill="#C0BEBF" width="28" height="4"/>
			<rect x="1355" y="1150.26" fill="#C0BEBF" width="28" height="4"/>
			<rect x="1355" y="1157.26" fill="#C0BEBF" width="28" height="3"/>
			<rect x="1355" y="1165.26" fill="#C0BEBF" width="28" height="3"/>
		</g>
		<g>
			<rect x="1410" y="1095.26" fill="#4C4A4B" width="18" height="4"/>
			<rect x="1410" y="1119.26" fill="#4C4A4B" width="18" height="3"/>
			<rect x="1410" y="1087.26" fill="#4C4A4B" width="18" height="4"/>
			<rect x="1410" y="1103.26" fill="#4C4A4B" width="18" height="4"/>
			<rect x="1410" y="1110.26" fill="#4C4A4B" width="18" height="3"/>
			<rect x="1410" y="1126.26" fill="#4C4A4B" width="18" height="3"/>
			<rect x="1410" y="1133.26" fill="#4C4A4B" width="18" height="3"/>
		</g>
		<g>
			<rect x="1359" y="1216.26" fill="#C0BEBF" width="21" height="4"/>
			<rect x="1359" y="1224.26" fill="#C0BEBF" width="21" height="2"/>
			<rect x="1359" y="1231.26" fill="#C0BEBF" width="21" height="3"/>
			<rect x="1359" y="1239.26" fill="#C0BEBF" width="21" height="2"/>
		</g>
		<g>
			<rect x="1391" y="1216.26" fill="#C0BEBF" width="20" height="4"/>
			<rect x="1391" y="1224.26" fill="#C0BEBF" width="20" height="2"/>
			<rect x="1391" y="1231.26" fill="#C0BEBF" width="20" height="3"/>
			<rect x="1391" y="1239.26" fill="#C0BEBF" width="20" height="2"/>
		</g>
		<rect x="1350" y="1090.26" fill="#C0BEBF" width="46" height="41"/>
		<rect x="1365.785" y="1015.28" fill="#C0BEBF" width="9.993" height="42.65"/>
		<g>
			<ellipse fill="#484445" cx="1368.621" cy="1110.44" rx="14.283" ry="18.165"/>
			<g>
				<ellipse fill="#9A9496" cx="1369.664" cy="1110.44" rx="14.284" ry="18.165"/>
				<ellipse fill="#282827" cx="1369.104" cy="1110.632" rx="9.378" ry="11.927"/>
				<ellipse fill="#5F5A5D" cx="1369.814" cy="1110.248" rx="9.379" ry="11.927"/>
				<g>
					<ellipse fill="#282827" cx="1369.563" cy="1110.337" rx="4.402" ry="5.6"/>
					<ellipse fill="#4C4A4B" cx="1369.898" cy="1110.157" rx="4.402" ry="5.599"/>
				</g>
			</g>
		</g>
		<rect x="1362.57" y="1015.35" fill="#C0BEBF" width="9.207" height="17.863"/>
		<g>
			<g>
				<rect x="1355" y="1178.26" fill="#C0BEBF" width="23" height="29"/>
				<rect x="1355" y="1179.26" fill="#404040" width="22" height="27"/>
			</g>
			<g>
				<rect x="1391" y="1178.26" fill="#C0BEBF" width="22" height="29"/>
				<rect x="1391" y="1179.26" fill="#404040" width="22" height="27"/>
			</g>
			<g>
				<rect x="1380" y="1178.26" fill="#C0BEBF" width="9" height="29"/>
			</g>
		</g>
	</g>
	<g>
		<rect x="1299" y="1184.26" fill="#404040" width="17" height="29"/>
		<rect x="1187" y="1150.26" fill="#4C4A4B" width="95" height="96"/>
		<g>
			<rect x="1198" y="1199.26" fill="#C0BEBF" width="72" height="40"/>
			<rect x="1200" y="1199.26" fill="#404040" width="68" height="37"/>
		</g>
		<g>
			<rect x="1204" y="1202.26" fill="#C0BEBF" width="29" height="2"/>
			<rect x="1204" y="1207.26" fill="#C0BEBF" width="29" height="3"/>
			<rect x="1204" y="1212.26" fill="#C0BEBF" width="29" height="3"/>
			<rect x="1204" y="1217.26" fill="#C0BEBF" width="29" height="3"/>
			<rect x="1204" y="1222.26" fill="#C0BEBF" width="29" height="3"/>
			<rect x="1204" y="1227.26" fill="#C0BEBF" width="29" height="3"/>
			<polygon fill="#C0BEBF" points="1204,1234.26 1233,1234.26 1233,1234.26 			"/>
			<rect x="1235" y="1202.26" fill="#C0BEBF" width="30" height="2"/>
			<rect x="1235" y="1207.26" fill="#C0BEBF" width="30" height="3"/>
			<rect x="1235" y="1212.26" fill="#C0BEBF" width="30" height="3"/>
			<rect x="1235" y="1217.26" fill="#C0BEBF" width="30" height="3"/>
			<rect x="1235" y="1222.26" fill="#C0BEBF" width="30" height="3"/>
			<rect x="1235" y="1227.26" fill="#C0BEBF" width="30" height="3"/>
			<polygon fill="#C0BEBF" points="1235,1234.26 1265,1234.26 1265,1234.26 			"/>
		</g>
		<rect x="1229" y="1115.26" fill="#4C4A4B" width="16" height="35"/>
		<rect x="1229" y="1115.26" fill="#4C4A4B" width="28" height="20"/>
		<rect x="1202" y="1105.26" fill="#4C4A4B" width="15" height="45"/>
		<rect x="1191" y="1105.26" fill="#4C4A4B" width="26" height="27"/>
		<g>
			<rect x="1274" y="1155.26" fill="#C0BEBF" width="6" height="33"/>
		</g>
		<rect x="1291.588" y="1070.535" fill="#5E5E5E" width="30.982" height="65.611"/>
		<g>
			<g>
				<rect x="1198" y="1159.26" fill="#C0BEBF" width="72" height="26"/>
			</g>
			<g>
				<rect x="1200" y="1160.26" fill="#404040" width="68" height="23"/>
			</g>
		</g>
		<g>
			<rect x="1291.559" y="1069.128" fill="#C0BEBF" width="31.381" height="63.737"/>
			<polygon fill="#C0BEBF" points="1291.559,1134.742 1299.529,1184.428 1314.97,1184.428 1322.938,1134.742 			"/>
			<rect x="1282.096" y="1186.305" fill="#C0BEBF" width="32.874" height="28.492"/>
		</g>
	</g>
	<g>
		<rect x="1068" y="1098.26" fill="#4C4A4B" width="83" height="151"/>
		<g>
			<rect x="1071" y="1103.26" fill="#C0BEBF" width="77" height="67"/>
			<rect x="1073" y="1104.26" fill="#404040" width="73" height="65"/>
		</g>
		<g>
			<rect x="1071" y="1178.26" fill="#C0BEBF" width="77" height="14"/>
			<rect x="1073" y="1178.26" fill="#404040" width="73" height="12"/>
		</g>
		<g>
			<rect x="1071" y="1199.26" fill="#C0BEBF" width="77" height="42"/>
			<rect x="1073" y="1201.26" fill="#404040" width="73" height="38"/>
		</g>
		<rect x="1074" y="1108.26" fill="#C0BEBF" width="34" height="4"/>
		<rect x="1074" y="1117.26" fill="#C0BEBF" width="34" height="4"/>
		<rect x="1074" y="1126.26" fill="#C0BEBF" width="34" height="3"/>
		<rect x="1074" y="1135.26" fill="#C0BEBF" width="34" height="2"/>
		<rect x="1074" y="1145.26" fill="#C0BEBF" width="34" height="2"/>
		<rect x="1074" y="1152.26" fill="#C0BEBF" width="34" height="4"/>
		<rect x="1074" y="1161.26" fill="#C0BEBF" width="34" height="3"/>
		<rect x="1111" y="1108.26" fill="#C0BEBF" width="35" height="4"/>
		<rect x="1111" y="1117.26" fill="#C0BEBF" width="35" height="4"/>
		<rect x="1111" y="1126.26" fill="#C0BEBF" width="35" height="3"/>
		<rect x="1111" y="1135.26" fill="#C0BEBF" width="35" height="2"/>
		<rect x="1111" y="1145.26" fill="#C0BEBF" width="35" height="2"/>
		<rect x="1111" y="1152.26" fill="#C0BEBF" width="35" height="4"/>
		<rect x="1111" y="1161.26" fill="#C0BEBF" width="35" height="3"/>
		<rect x="1108" y="1061.26" fill="#4C4A4B" width="17" height="37"/>
		<rect x="1108" y="1061.26" fill="#4C4A4B" width="30" height="20"/>
		<rect x="1094" y="1076.26" fill="#4C4A4B" width="10" height="22"/>
		<rect x="1086" y="1076.26" fill="#4C4A4B" width="18" height="13"/>
		<g>
			<rect x="1075" y="1203.26" fill="#C0BEBF" width="27" height="35"/>
			<rect x="1076" y="1204.26" fill="#404040" width="25" height="32"/>
		</g>
		<g>
			<rect x="1117" y="1203.26" fill="#C0BEBF" width="27" height="35"/>
			<rect x="1118" y="1204.26" fill="#404040" width="25" height="32"/>
		</g>
		<g>
			<rect x="1104" y="1203.26" fill="#C0BEBF" width="11" height="35"/>
		</g>
	</g>
</g>
<g id="walls">
	<rect x="78" y="922.26" fill="#997648" width="424" height="14"/>
	<rect x="79" y="970.26" fill="#997648" width="424" height="14"/>
	<rect x="108" y="936.26" fill="#EF7B8E" width="394" height="34"/>
	<g>
		<rect x="100" y="935.26" fill="#997648" width="22" height="42"/>
		<rect x="193" y="935.26" fill="#997648" width="25" height="42"/>
		<rect x="240" y="935.26" fill="#997648" width="25" height="42"/>
		<rect x="146" y="935.26" fill="#997648" width="25" height="42"/>
		<rect x="286" y="935.26" fill="#997648" width="25" height="42"/>
		<rect x="332" y="932.26" fill="#997648" width="25" height="42"/>
	</g>
	<rect x="380" y="932.26" fill="#997648" width="25" height="42"/>
	<rect x="427" y="932.26" fill="#997648" width="25" height="42"/>
	<rect x="474" y="932.26" fill="#997648" width="25" height="42"/>
	<rect x="79" y="1243.26" fill="#997648" width="931.5" height="15"/>
	<rect x="499" y="922.26" fill="#997648" width="547" height="14"/>
	<rect x="500" y="970.26" fill="#997648" width="998" height="14"/>
	<rect x="499" y="936.26" fill="#EF7B8E" width="528.5" height="34"/>
	<rect x="519" y="935.26" fill="#997648" width="25" height="42"/>
	<rect x="567" y="935.26" fill="#997648" width="25" height="42"/>
	<rect x="614" y="935.26" fill="#997648" width="25" height="42"/>
	<rect x="661" y="935.26" fill="#997648" width="25" height="42"/>
	<rect x="707" y="935.26" fill="#997648" width="25" height="42"/>
	<rect x="753" y="932.26" fill="#997648" width="25" height="42"/>
	<rect x="801" y="932.26" fill="#997648" width="25" height="42"/>
	<rect x="848" y="932.26" fill="#997648" width="25" height="42"/>
	<rect x="895" y="932.26" fill="#997648" width="25" height="42"/>
	<rect x="1011" y="567.26" fill="#997648" width="16" height="355"/>
	<rect x="99" y="983.26" fill="#997648" width="11" height="262"/>
	<rect x="99" y="570.26" fill="#997648" width="11" height="352"/>
	<rect x="468" y="596.26" fill="#997648" width="14" height="326"/>
	<rect x="1468" y="970.26" fill="#997648" width="16" height="273"/>
	<rect x="896" y="935.26" fill="#997648" width="25" height="42"/>
	<rect x="943" y="935.26" fill="#997648" width="25" height="42"/>
	<rect x="990" y="935.26" fill="#997648" width="22" height="42"/>
	<rect x="519" y="977.26" fill="#997648" width="17" height="280"/>
	<rect x="1026" y="1243.26" fill="#997648" width="472" height="15"/>
	<rect x="1010.5" y="984.26" fill="#997648" width="17" height="274"/>
	<rect x="79" y="581.26" fill="#997648" width="963" height="14"/>
</g>
</svg>
