<?xml version="1.0" encoding="utf-8"?>
<!-- Generator: Adobe Illustrator 16.0.0, SVG Export Plug-In . SVG Version: 6.00 Build 0)  -->
<!DOCTYPE svg PUBLIC "-//W3C//DTD SVG 1.1//EN" "http://www.w3.org/Graphics/SVG/1.1/DTD/svg11.dtd">
<svg version="1.1" id="Layer_1" xmlns="http://www.w3.org/2000/svg" xmlns:xlink="http://www.w3.org/1999/xlink" x="0px" y="0px"
	 width="311.984px" height="317.996px" viewBox="0 0 311.984 317.996" enable-background="new 0 0 311.984 317.996"
	 xml:space="preserve">
<g id="Layer_1_1_" display="none">
	<g display="inline">
		<g>
			
				<ellipse transform="matrix(-0.1238 -0.9923 0.9923 -0.1238 94.9275 254.2174)" fill="#2B2A2A" cx="159.7" cy="85.198" rx="209.015" ry="201.774"/>
			<g>
				<polygon fill="#2B2A2A" points="286.275,-18.759 323.527,26.023 343.712,-28.652 363.882,-83.313 306.458,-73.426 
					249.03,-63.539 				"/>
				<polygon fill="#2B2A2A" points="-15.452,-40.636 4.85,13.96 42.017,-30.933 79.163,-75.82 21.704,-85.525 -35.753,-95.229 				
					"/>
				<polygon fill="#2B2A2A" points="192.314,243.359 135.607,256.664 175.482,299.121 215.359,341.577 232.191,285.816 
					249.022,230.055 				"/>
				<polygon fill="#2B2A2A" points="95.591,240.73 41.451,219.242 49.898,276.907 58.352,334.557 104.04,298.389 149.729,262.219 
									"/>
				<polygon fill="#2B2A2A" points="40.336,184.805 7.312,136.823 -17.76,189.436 -42.815,242.038 15.273,237.41 73.36,232.783 				
					"/>
				<polygon fill="#2B2A2A" points="331.435,204.863 311.134,150.267 273.966,195.161 236.82,240.048 294.28,249.753 
					351.736,259.46 				"/>
				<polygon fill="#2B2A2A" points="311.687,130.979 307.916,189.104 360.136,163.307 412.361,137.509 363.91,105.182 
					315.458,72.852 				"/>
				<polygon fill="#2B2A2A" points="354.224,4.374 299.946,-16.777 308.753,40.835 317.568,98.429 363.031,61.977 408.492,25.525 
									"/>
				<polygon fill="#2B2A2A" points="12.948,122.01 29.591,177.827 -27.068,164.33 -83.731,150.836 -43.715,108.514 -3.696,66.191 
									"/>
				<polygon fill="#2B2A2A" points="-39.685,-3.884 13.376,-27.915 7.674,30.087 1.959,88.071 -45.393,54.109 -92.743,20.147 				
					"/>
			</g>
		</g>
		<line fill="none" stroke="#1E1E1E" stroke-width="10" stroke-miterlimit="10" x1="-41.57" y1="93.5" x2="359.955" y2="78.729"/>
		<g>
			
				<ellipse transform="matrix(-0.0447 -0.999 0.999 -0.0447 -74.5938 74.1352)" fill="#1E1E1E" cx="-1.851" cy="72.733" rx="8.624" ry="7.905"/>
			
				<ellipse transform="matrix(-0.0446 -0.999 0.999 -0.0446 -52.2045 94.9698)" fill="#1E1E1E" cx="19.311" cy="72.448" rx="8.625" ry="7.905"/>
			
				<ellipse transform="matrix(-0.0447 -0.999 0.999 -0.0447 -29.7967 115.827)" fill="#1E1E1E" cx="40.482" cy="72.16" rx="8.624" ry="7.905"/>
			
				<ellipse transform="matrix(-0.0446 -0.999 0.999 -0.0446 -6.7868 135.9483)" fill="#1E1E1E" cx="61.615" cy="71.219" rx="8.625" ry="7.905"/>
			
				<ellipse transform="matrix(-0.0446 -0.999 0.999 -0.0446 15.6094 156.7976)" fill="#1E1E1E" cx="82.781" cy="70.935" rx="8.625" ry="7.905"/>
		</g>
		<g>
			
				<ellipse transform="matrix(-0.0475 -0.9989 0.9989 -0.0475 39.8444 179.7791)" fill="#1E1E1E" cx="105.639" cy="70.892" rx="8.625" ry="7.906"/>
			
				<ellipse transform="matrix(-0.0475 -0.9989 0.9989 -0.0475 62.9859 199.8396)" fill="#1E1E1E" cx="126.774" cy="69.889" rx="8.624" ry="7.905"/>
			
				<ellipse transform="matrix(-0.0476 -0.9989 0.9989 -0.0476 85.5318 220.6184)" fill="#1E1E1E" cx="147.946" cy="69.532" rx="8.625" ry="7.905"/>
			
				<ellipse transform="matrix(-0.0476 -0.9989 0.9989 -0.0476 108.0307 241.4035)" fill="#1E1E1E" cx="169.107" cy="69.197" rx="8.624" ry="7.905"/>
			
				<ellipse transform="matrix(-0.0476 -0.9989 0.9989 -0.0476 131.2035 261.4554)" fill="#1E1E1E" cx="190.247" cy="68.178" rx="8.626" ry="7.906"/>
			
				<ellipse transform="matrix(-0.0474 -0.9989 0.9989 -0.0474 153.6679 282.2357)" fill="#1E1E1E" cx="211.409" cy="67.846" rx="8.625" ry="7.906"/>
		</g>
		<g>
			
				<ellipse transform="matrix(-0.0446 -0.999 0.999 -0.0446 -108.8155 115.3239)" fill="#1E1E1E" cx="0.738" cy="109.696" rx="8.624" ry="7.905"/>
			
				<ellipse transform="matrix(-0.0447 -0.999 0.999 -0.0447 -86.4099 136.1895)" fill="#1E1E1E" cx="21.911" cy="109.41" rx="8.625" ry="7.905"/>
			
				<ellipse transform="matrix(-0.0446 -0.999 0.999 -0.0446 -64.0247 157.0223)" fill="#1E1E1E" cx="43.071" cy="109.126" rx="8.624" ry="7.905"/>
			
				<ellipse transform="matrix(-0.0447 -0.999 0.999 -0.0447 -40.9842 177.1644)" fill="#1E1E1E" cx="64.216" cy="108.178" rx="8.625" ry="7.905"/>
			
				<ellipse transform="matrix(-0.0446 -0.999 0.999 -0.0446 -18.6008 198.0013)" fill="#1E1E1E" cx="85.378" cy="107.895" rx="8.625" ry="7.905"/>
		</g>
		<g>
			
				<ellipse transform="matrix(-0.0475 -0.9989 0.9989 -0.0475 5.6416 221.0939)" fill="#1E1E1E" cx="108.233" cy="107.857" rx="8.625" ry="7.905"/>
			
				<ellipse transform="matrix(-0.0475 -0.9989 0.9989 -0.0475 28.78 241.1496)" fill="#1E1E1E" cx="129.368" cy="106.853" rx="8.625" ry="7.905"/>
			
				<ellipse transform="matrix(-0.0476 -0.9989 0.9989 -0.0476 51.3327 261.9389)" fill="#1E1E1E" cx="150.542" cy="106.497" rx="8.625" ry="7.906"/>
			
				<ellipse transform="matrix(-0.0475 -0.9989 0.9989 -0.0475 73.8143 282.7115)" fill="#1E1E1E" cx="171.7" cy="106.162" rx="8.624" ry="7.906"/>
			
				<ellipse transform="matrix(-0.0474 -0.9989 0.9989 -0.0474 96.9485 302.7639)" fill="#1E1E1E" cx="192.836" cy="105.156" rx="8.624" ry="7.906"/>
			
				<ellipse transform="matrix(-0.0475 -0.9989 0.9989 -0.0475 119.4748 323.5504)" fill="#1E1E1E" cx="214.003" cy="104.811" rx="8.625" ry="7.906"/>
		</g>
		<g>
			
				<ellipse transform="matrix(-0.0476 -0.9989 0.9989 -0.0476 178.982 304.4554)" fill="#1E1E1E" cx="234.644" cy="66.896" rx="8.625" ry="7.905"/>
			
				<ellipse transform="matrix(-0.0474 -0.9989 0.9989 -0.0474 202.0952 324.5084)" fill="#1E1E1E" cx="255.778" cy="65.892" rx="8.624" ry="7.905"/>
			
				<ellipse transform="matrix(-0.0476 -0.9989 0.9989 -0.0476 224.6817 345.2816)" fill="#1E1E1E" cx="276.949" cy="65.527" rx="8.626" ry="7.905"/>
			
				<ellipse transform="matrix(-0.0475 -0.9989 0.9989 -0.0475 247.1454 366.0724)" fill="#1E1E1E" cx="298.111" cy="65.2" rx="8.624" ry="7.905"/>
			
				<ellipse transform="matrix(-0.0476 -0.9989 0.9989 -0.0476 270.3333 386.114)" fill="#1E1E1E" cx="319.251" cy="64.172" rx="8.625" ry="7.905"/>
		</g>
		<g>
			
				<ellipse transform="matrix(-0.0474 -0.9989 0.9989 -0.0474 145.1371 346.2011)" fill="#1E1E1E" cx="237.643" cy="103.897" rx="8.625" ry="7.905"/>
			
				<ellipse transform="matrix(-0.0476 -0.9989 0.9989 -0.0476 168.307 366.2708)" fill="#1E1E1E" cx="258.777" cy="102.893" rx="8.624" ry="7.905"/>
			
				<ellipse transform="matrix(-0.0476 -0.9989 0.9989 -0.0476 190.851 387.0372)" fill="#1E1E1E" cx="279.951" cy="102.528" rx="8.625" ry="7.905"/>
			
				<ellipse transform="matrix(-0.0474 -0.9989 0.9989 -0.0474 213.3092 407.8213)" fill="#1E1E1E" cx="301.11" cy="102.202" rx="8.624" ry="7.906"/>
		</g>
	</g>
</g>
<g id="Layer_2" display="none">
	<rect x="60.902" y="-180.008" display="inline" fill="#DDB63A" width="200" height="288"/>
	<path display="inline" fill="#1E1E1E" d="M267.902,112.992c0,3.279-2.119,6-4.734,6H57.638c-2.615,0-4.736-2.721-4.736-6l0,0
		c0-3.278,2.121-6,4.736-6h205.529C265.783,106.992,267.902,109.714,267.902,112.992L267.902,112.992z"/>
	<path display="inline" fill="#1E1E1E" d="M267.902,53.992c0,3.279-2.102,6-4.691,6H59.594c-2.591,0-4.691-2.721-4.691-6l0,0
		c0-3.278,2.101-6,4.691-6H263.21C265.802,47.992,267.902,50.714,267.902,53.992L267.902,53.992z"/>
	<g display="inline">
		<circle fill="#1E1E1E" cx="161.199" cy="-36.225" r="58.202"/>
		<circle fill="#DDB63A" cx="161.367" cy="-36.057" r="49.673"/>
	</g>
	<g display="inline">
		<path fill="#1E1E1E" d="M143.514-0.504c0,0,14.961,8.865,33.149,0l-9.062-26.88c0,0-6.008,5.147-15.048,0L143.514-0.504z"/>
	</g>
</g>
<g id="Layer_3" display="none">
	<ellipse display="inline" fill="#4DAD6A" cx="290.99" cy="186.866" rx="85.492" ry="79.634"/>
	<ellipse display="inline" fill="#4DAD6A" cx="13.497" cy="188.866" rx="83.993" ry="79.634"/>
	<g display="inline">
		<ellipse fill="#4DAD6A" cx="149.494" cy="68.866" rx="69.996" ry="79.634"/>
		<g>
			<polygon fill="#51514F" points="215.097,35.789 221.119,23.283 207.792,3.803 194.892,6.251 			"/>
			<polygon fill="#1C1C1C" points="212.302,51.066 221.623,31.706 200.994,1.547 181.021,5.338 			"/>
		</g>
		<g>
			<polygon fill="#51514F" points="84.548,38.789 78.525,26.283 91.853,6.803 104.753,9.251 			"/>
			<polygon fill="#1C1C1C" points="87.343,54.066 78.021,34.706 98.651,4.547 118.623,8.338 			"/>
		</g>
	</g>
	<g display="inline">
		<path fill="#CCAB5A" d="M350.48,260.027c0,122.072-88.645,221.033-197.99,221.033C43.143,481.061-45.5,382.1-45.5,260.027
			c0-122.074,88.643-170.035,197.99-170.035S350.48,137.953,350.48,260.027z"/>
		<path fill="#93684C" d="M334.382,261.814c0,111.869-81.233,202.56-181.44,202.56c-100.208,0-181.441-90.688-181.441-202.56
			c0-111.872,81.234-155.822,181.441-155.822C253.148,105.992,334.382,149.944,334.382,261.814z"/>
		
			<rect x="41.91" y="94.993" transform="matrix(-0.9382 0.346 -0.346 -0.9382 177.1923 237.3608)" fill="#1E1E1E" width="51.003" height="79.004"/>
		
			<rect x="206.896" y="92.973" transform="matrix(0.9382 0.346 -0.346 0.9382 60.1875 -72.2247)" fill="#1E1E1E" width="51.004" height="79.005"/>
	</g>
	
		<rect x="232.875" y="302.843" transform="matrix(0.5902 -0.8073 0.8073 0.5902 -188.4655 358.006)" display="inline" fill="#1E1E1E" width="51.002" height="123.567"/>
	
		<rect x="22.889" y="302.839" transform="matrix(0.5902 0.8073 -0.8073 0.5902 314.1833 110.3681)" display="inline" fill="#1E1E1E" width="51.002" height="123.567"/>
	<g display="inline">
		<rect x="57.902" y="136.992" fill="#1E1E1E" width="178" height="243"/>
		<rect x="53.902" y="108.992" fill="#1E1E1E" width="40" height="64"/>
		<rect x="93.902" y="123.992" fill="#1E1E1E" width="19" height="55"/>
		<rect x="49.902" y="172.992" fill="#B7A763" width="40" height="96"/>
		<rect x="119.902" y="123.992" fill="#B7A763" width="69" height="77"/>
		<rect x="128.902" y="117.992" fill="#B7A763" width="51" height="34"/>
		<circle fill="#31604E" cx="193.723" cy="273.961" r="22.238"/>
		<circle fill="#B7A763" cx="73.958" cy="123.383" r="6.542"/>
		<circle fill="#B7A763" cx="73.958" cy="151.288" r="6.542"/>
		<rect x="193.902" y="129.992" fill="#B7A763" width="51" height="57"/>
		<rect x="89.902" y="157.992" fill="#5B5A57" width="30" height="101"/>
		<rect x="79.902" y="173.992" fill="#B7A763" width="51" height="11"/>
		<rect x="85.902" y="208.992" fill="#B7A763" width="34" height="10"/>
		<rect x="125.902" y="157.992" fill="#B55848" width="57" height="33"/>
		<circle fill="#B7A763" cx="193.533" cy="273.771" r="11.002"/>
		<rect x="57.902" y="269.992" fill="#31604E" width="78" height="29"/>
		<circle fill="#31604E" cx="146.176" cy="372.993" r="82.844"/>
		
			<ellipse transform="matrix(-0.6298 -0.7767 0.7767 -0.6298 -71.0884 635.3846)" fill="#214737" cx="115.86" cy="334.632" rx="24.933" ry="19.271"/>
		
			<ellipse transform="matrix(-0.6299 0.7767 -0.7767 -0.6299 550.629 408.0327)" fill="#214737" cx="178.094" cy="335.212" rx="24.935" ry="19.272"/>
		<circle fill="#214737" cx="80.642" cy="284.715" r="10.608"/>
		<circle fill="#214737" cx="112.618" cy="284.715" r="10.608"/>
		<g>
			<rect x="238.902" y="121.992" fill="#51514F" width="15" height="98"/>
			<polygon fill="#B7A763" points="267.438,246.992 229.902,246.992 229.902,187.212 			"/>
			<polygon fill="#60605F" points="285.902,208.827 285.902,246.992 269.902,246.992 269.902,187.212 			"/>
			<path fill="#B7A763" d="M239.175,231.581"/>
			<rect x="229.902" y="186.992" fill="#353533" width="40" height="60"/>
			<rect x="263.902" y="186.992" fill="#51514F" width="7" height="60"/>
			<rect x="232.902" y="237.992" fill="#353533" width="27" height="39"/>
			<rect x="251.902" y="231.992" fill="#353533" width="14" height="38"/>
			<rect x="239.902" y="237.992" fill="#353533" width="12" height="106"/>
		</g>
	</g>
	<path display="inline" fill="#1E1E1E" d="M134.902-3.413c-6,0-6,10,0,10C141.902,6.587,141.902-3.413,134.902-3.413z"/>
	<path display="inline" fill="#1E1E1E" d="M164.902-3.413c-6,0-6,10,0,10C171.902,6.587,171.902-3.413,164.902-3.413z"/>
</g>
<g id="Layer_4" display="none">
	<g display="inline">
		<path fill="#5D7A1E" stroke="#FFFFFF" stroke-width="3" stroke-miterlimit="10" d="M82.402,86c0,0,74-50.471,141,5.313v151.18
			h-141V86z"/>
		<path fill="#5D7A1E" stroke="#FFFFFF" stroke-width="3" stroke-miterlimit="10" d="M82.402,167.803c0,0,74-23.628,141,2.486
			v73.203h-141V167.803z"/>
		<path fill="#5D7A1E" stroke="#FFFFFF" stroke-width="3" stroke-miterlimit="10" d="M100.402,243.408
			c0,3.912-3.171,7.084-7.084,7.084H68.486c-3.913,0-7.084-3.172-7.084-7.084v-79.832c0-3.912,3.171-7.084,7.084-7.084h24.832
			c3.913,0,7.084,3.172,7.084,7.084V243.408z"/>
		<path fill="#5D7A1E" stroke="#FFFFFF" stroke-width="3" stroke-miterlimit="10" d="M245.402,245.408
			c0,3.912-3.172,7.084-7.084,7.084h-24.832c-3.912,0-7.084-3.172-7.084-7.084v-79.832c0-3.912,3.172-7.084,7.084-7.084h24.832
			c3.912,0,7.084,3.172,7.084,7.084V245.408z"/>
		<circle fill="#5D7A1E" stroke="#FFFFFF" stroke-width="3" stroke-miterlimit="10" cx="80.881" cy="164.07" r="27.892"/>
		<circle fill="#5D7A1E" stroke="#FFFFFF" stroke-width="3" stroke-miterlimit="10" cx="231.103" cy="160.529" r="27.892"/>
	</g>
</g>
<g id="Layer_5" display="none">
	<g display="inline">
		<ellipse fill="#5D7A1E" cx="401.48" cy="168.941" rx="115.314" ry="77.758"/>
		<g>
			<ellipse fill="#5D7A1E" cx="294.63" cy="163.299" rx="20.102" ry="17.104"/>
		</g>
	</g>
</g>
<g id="Layer_6" display="none">
	<g display="inline">
		<rect x="-104.098" y="65.992" fill="#5D7A1E" width="143" height="148"/>
		<path fill="#5D7A1E" d="M-103.729,62.856c0-12.521,3.07-22.864,6.856-22.864H32.283c3.787,0,6.856,10.247,6.856,22.765"/>
		<path fill="#5D7A1E" d="M-104.098,217.279c0,22.242-0.006,36.16,3.781,36.16l135.328-0.037c3.787,0,3.76-13.779,3.76-36.021"/>
		<path fill="#5D7A1E" d="M29.699,257.387c0,13.437-10.892,24.326-24.326,24.326c-13.437,0-24.328-10.891-24.328-24.326"/>
		<path fill="#FFFFFF" d="M25.902,194.568c0,2.442-1.98,4.424-4.423,4.424H-87.675c-2.443,0-4.423-1.98-4.423-4.424v-5.152
			c0-2.443,1.98-4.424,4.423-4.424H21.479c2.442,0,4.423,1.98,4.423,4.424V194.568z"/>
		<path fill="#FFFFFF" d="M-33.623,117.323c0,0,24.195,16.219,21.354,38.518c0,0,8.121-2.026,5.939-15.441
			c0,0,11.716,11.305,11.519,21.525c-0.162,8.304-10.553,20.271-30.093,20.271c0,0,17.619-15.758-5.662-35.698
			c0,0-21.537,21.248-7.325,35.698c0,0-28.655-7.288-20.249-25.542C-49.734,138.396-31.348,136.785-33.623,117.323z"/>
	</g>
</g>
<g id="Layer_9" display="none">
	<g display="inline">
		<circle fill="#70B79A" cx="414.992" cy="101.584" r="155.992"/>
	</g>
</g>
<g id="Layer_7" display="none">
	<g display="inline">
		<rect x="83.902" y="2.992" fill="#3F7257" width="143" height="148"/>
		<path fill="#3F7257" d="M83.902,153.981c0,22.242-0.006,36.16,3.781,36.16l135.328-0.037c3.787,0,3.76-13.778,3.76-36.021"/>
		<path fill="#3F7257" d="M140.295,194.088c0,13.438-10.891,24.327-24.326,24.327c-13.435,0-24.326-10.892-24.326-24.327"/>
		<path fill="#3F7257" d="M217.699,194.088c0,13.438-10.892,24.327-24.326,24.327c-13.437,0-24.328-10.892-24.328-24.327"/>
		<path fill="#70B79A" d="M213.902,131.569c0,2.442-1.98,4.423-4.423,4.423H100.325c-2.442,0-4.423-1.98-4.423-4.423v-5.154
			c0-2.442,1.98-4.423,4.423-4.423h109.154c2.442,0,4.423,1.98,4.423,4.423V131.569L213.902,131.569z"/>
		<g>
			<circle fill="#70B79A" cx="154.832" cy="27.12" r="16.586"/>
			<g>
				<polyline fill="#3F7257" points="154.969,12.376 153.357,24.662 154.969,28.536 				"/>
				<polyline fill="#3F7257" points="154.896,12.376 156.507,24.662 154.896,28.536 				"/>
			</g>
		</g>
		<path fill="#70B79A" stroke="#7FF4C1" stroke-miterlimit="10" d="M152.965,54.024c0,0,24.195,16.219,21.354,38.518
			c0,0,8.121-2.026,5.938-15.441c0,0,11.717,11.305,11.52,21.524c-0.162,8.303-10.553,20.272-30.093,20.272
			c0,0,17.619-15.759-5.662-35.699c0,0-21.537,21.247-7.325,35.699c0,0-28.655-7.29-20.249-25.543
			C136.854,75.098,155.24,73.486,152.965,54.024z"/>
	</g>
</g>
<g id="Layer_10" display="none">
	<rect x="-79.098" y="-239.008" display="inline" fill="#70B79A" width="498" height="319"/>
</g>
<g>
	<g>
		<path fill="#5D7A1E" d="M246.238,158.28l-11.697-7.748v-24.36c0-1.916-1.742-3.464-3.896-3.464h-19.578
			c-2.15,0-3.896,1.548-3.896,3.464l-0.182,6.123l-45.9-30.377c-1.664-1.102-3.621-1.411-5.438-1.025
			c-1.806-0.386-3.758-0.076-5.429,1.025L65.069,158.28c-3.291,2.18-4.193,6.613-2.016,9.901c2.177,3.295,6.612,4.197,9.907,2.019
			l82.689-54.732l82.703,54.732c3.287,2.179,7.727,1.276,9.91-2.019C250.435,164.894,249.535,160.46,246.238,158.28z
			 M74.832,177.894v80.144c0,4.734,3.841,8.577,8.577,8.577h73.586c-0.365-0.834-0.576-1.756-0.576-2.719v-56.854
			c0-3.758,3.051-6.803,6.809-6.803h34.18c3.754,0,6.799,3.045,6.799,6.803v56.854c0,0.963-0.205,1.885-0.564,2.719h22.926
			c4.74,0,8.58-3.843,8.58-8.577v-81.021l-79.498-52.608L74.832,177.894z M138.759,218.666c0,2.227-2.195,4.04-4.886,4.04h-24.545
			c-2.695,0-4.889-1.813-4.889-4.04V184.88c0-2.235,2.193-4.042,4.889-4.042h24.545c2.69,0,4.886,1.807,4.886,4.042V218.666z"/>
		<path fill="#5D7A1E" d="M246.904,31.386c0,0,2.91,8.796-12.279,18.288c-32.393,20.271-22.793,42.711-14.34,67.755
			c-1.488-9.392,1.441-16.567,4.068-22.634c3.041-6.542,6.434-11.905,8.953-16.605c5.449-9.15,6.029-16.331,5.934-16.371
			c0.104-0.047,1.041,7.836-3.064,18.047c-1.826,5.164-4.521,11.008-6.934,17.668c-1.895,5.496-3.855,11.698-3.303,18.6
			C290.115,78.841,246.904,31.386,246.904,31.386z"/>
	</g>
	<g>
		<g>
			<path fill="#5D7A1E" d="M75.351,177.867v80.144c0,4.734,3.84,8.578,8.576,8.578h73.586c-0.365-0.835-0.578-1.756-0.578-2.719
				v-56.853c0-3.76,3.055-6.804,6.811-6.804h34.18c3.752,0,6.799,3.044,6.799,6.804v56.853c0,0.963-0.203,1.884-0.564,2.719h22.926
				c4.742,0,8.582-3.844,8.582-8.578V176.99l-79.5-52.608L75.351,177.867z"/>
			<path fill="#5D7A1E" d="M139.276,218.64c0,2.228-2.194,4.041-4.884,4.041h-24.546c-2.696,0-4.889-1.813-4.889-4.041v-33.786
				c0-2.234,2.192-4.042,4.889-4.042h24.546c2.689,0,4.884,1.808,4.884,4.042V218.64z"/>
		</g>
		<polygon fill="#5D7A1E" points="75.128,178.437 156.468,124.667 236.492,176.99 236.492,258.609 227.085,267.498 83.506,267.498 
			75.351,258.196 		"/>
	</g>
</g>
</svg>
