<?xml version="1.0" encoding="utf-8"?>
<!-- Generator: Adobe Illustrator 16.0.0, SVG Export Plug-In . SVG Version: 6.00 Build 0)  -->
<!DOCTYPE svg PUBLIC "-//W3C//DTD SVG 1.1//EN" "http://www.w3.org/Graphics/SVG/1.1/DTD/svg11.dtd">
<svg version="1.1" xmlns="http://www.w3.org/2000/svg" xmlns:xlink="http://www.w3.org/1999/xlink" x="0px" y="0px"
	 width="311.983px" height="317.996px" viewBox="0 0 311.983 317.996" enable-background="new 0 0 311.983 317.996"
	 xml:space="preserve">
<g id="Layer_1" display="none">
	<g display="inline">
		<g>
			
				<ellipse transform="matrix(0.9923 -0.1238 0.1238 0.9923 -9.3175 20.4201)" fill="#2B2A2A" cx="159.699" cy="85.205" rx="201.775" ry="209.016"/>
			<g>
				<polygon fill="#2B2A2A" points="286.275,-18.759 323.526,26.023 343.713,-28.652 363.883,-83.313 306.458,-73.426 
					249.03,-63.539 				"/>
				<polygon fill="#2B2A2A" points="-15.452,-40.636 4.85,13.96 42.017,-30.933 79.163,-75.82 21.704,-85.525 -35.753,-95.229 				
					"/>
				<polygon fill="#2B2A2A" points="192.314,243.359 135.607,256.664 175.482,299.121 215.359,341.577 232.191,285.816 
					249.022,230.054 				"/>
				<polygon fill="#2B2A2A" points="95.591,240.731 41.451,219.242 49.898,276.907 58.352,334.556 104.04,298.388 149.729,262.219 
									"/>
				<polygon fill="#2B2A2A" points="40.336,184.804 7.312,136.823 -17.76,189.436 -42.815,242.038 15.273,237.41 73.36,232.783 				
					"/>
				<polygon fill="#2B2A2A" points="331.436,204.863 311.134,150.267 273.967,195.161 236.82,240.048 294.28,249.753 
					351.735,259.46 				"/>
				<polygon fill="#2B2A2A" points="311.688,130.979 307.915,189.103 360.137,163.306 412.361,137.509 363.91,105.182 
					315.459,72.852 				"/>
				<polygon fill="#2B2A2A" points="354.224,4.374 299.946,-16.777 308.753,40.835 317.568,98.429 363.03,61.977 408.492,25.525 
									"/>
				<polygon fill="#2B2A2A" points="12.948,122.01 29.591,177.827 -27.068,164.33 -83.731,150.836 -43.715,108.514 -3.696,66.191 
									"/>
				<polygon fill="#2B2A2A" points="-39.685,-3.884 13.376,-27.915 7.674,30.087 1.959,88.071 -45.393,54.109 -92.743,20.147 				
					"/>
			</g>
		</g>
		<line fill="none" stroke="#1E1E1E" stroke-width="10" stroke-miterlimit="10" x1="-41.57" y1="93.5" x2="359.955" y2="78.729"/>
		<g>
			
				<ellipse transform="matrix(0.999 -0.0447 0.0447 0.999 -3.2499 -0.0102)" fill="#1E1E1E" cx="-1.854" cy="72.733" rx="7.905" ry="8.624"/>
			
				<ellipse transform="matrix(0.999 -0.0446 0.0446 0.999 -3.214 0.9341)" fill="#1E1E1E" cx="19.313" cy="72.448" rx="7.905" ry="8.625"/>
			
				<ellipse transform="matrix(0.999 -0.0447 0.0447 0.999 -3.1823 1.8798)" fill="#1E1E1E" cx="40.479" cy="72.162" rx="7.905" ry="8.624"/>
			
				<ellipse transform="matrix(0.999 -0.0446 0.0446 0.999 -3.1168 2.8207)" fill="#1E1E1E" cx="61.617" cy="71.218" rx="7.905" ry="8.625"/>
			
				<ellipse transform="matrix(0.999 -0.0446 0.0446 0.999 -3.083 3.7649)" fill="#1E1E1E" cx="82.783" cy="70.933" rx="7.905" ry="8.625"/>
		</g>
		<g>
			
				<ellipse transform="matrix(0.9989 -0.0475 0.0475 0.9989 -3.2497 5.1008)" fill="#1E1E1E" cx="105.638" cy="70.887" rx="7.906" ry="8.625"/>
			
				<ellipse transform="matrix(0.9989 -0.0475 0.0475 0.9989 -3.1782 6.1043)" fill="#1E1E1E" cx="126.772" cy="69.883" rx="7.905" ry="8.624"/>
			
				<ellipse transform="matrix(0.9989 -0.0476 0.0476 0.9989 -3.1397 7.1145)" fill="#1E1E1E" cx="147.938" cy="69.536" rx="7.905" ry="8.625"/>
			
				<ellipse transform="matrix(0.9989 -0.0475 0.0475 0.9989 -3.0974 8.1154)" fill="#1E1E1E" cx="169.104" cy="69.19" rx="7.905" ry="8.624"/>
			
				<ellipse transform="matrix(0.9989 -0.0476 0.0476 0.9989 -3.0272 9.1236)" fill="#1E1E1E" cx="190.238" cy="68.185" rx="7.906" ry="8.625"/>
			
				<ellipse transform="matrix(0.9989 -0.0475 0.0475 0.9989 -2.9852 10.1237)" fill="#1E1E1E" cx="211.404" cy="67.839" rx="7.906" ry="8.625"/>
		</g>
		<g>
			
				<ellipse transform="matrix(0.999 -0.0446 0.0446 0.999 -4.8947 0.1424)" fill="#1E1E1E" cx="0.741" cy="109.696" rx="7.905" ry="8.624"/>
			
				<ellipse transform="matrix(0.999 -0.0447 0.0447 0.999 -4.8642 1.0875)" fill="#1E1E1E" cx="21.907" cy="109.411" rx="7.905" ry="8.625"/>
			
				<ellipse transform="matrix(0.999 -0.0446 0.0446 0.999 -4.8271 2.031)" fill="#1E1E1E" cx="43.074" cy="109.125" rx="7.905" ry="8.624"/>
			
				<ellipse transform="matrix(0.999 -0.0447 0.0447 0.999 -4.767 2.9754)" fill="#1E1E1E" cx="64.211" cy="108.181" rx="7.905" ry="8.625"/>
			
				<ellipse transform="matrix(0.999 -0.0446 0.0446 0.999 -4.7267 3.9148)" fill="#1E1E1E" cx="85.378" cy="107.896" rx="7.905" ry="8.625"/>
		</g>
		<g>
			
				<ellipse transform="matrix(0.9989 -0.0475 0.0475 0.9989 -5.0037 5.266)" fill="#1E1E1E" cx="108.233" cy="107.851" rx="7.905" ry="8.625"/>
			
				<ellipse transform="matrix(0.9989 -0.0475 0.0475 0.9989 -4.932 6.2693)" fill="#1E1E1E" cx="129.367" cy="106.846" rx="7.905" ry="8.625"/>
			
				<ellipse transform="matrix(0.9989 -0.0476 0.0476 0.9989 -4.8947 7.2798)" fill="#1E1E1E" cx="150.533" cy="106.5" rx="7.905" ry="8.625"/>
			
				<ellipse transform="matrix(0.9989 -0.0475 0.0475 0.9989 -4.8513 8.2805)" fill="#1E1E1E" cx="171.698" cy="106.154" rx="7.905" ry="8.624"/>
			
				<ellipse transform="matrix(0.9989 -0.0475 0.0475 0.9989 -4.779 9.2827)" fill="#1E1E1E" cx="192.833" cy="105.148" rx="7.906" ry="8.624"/>
			
				<ellipse transform="matrix(0.9989 -0.0475 0.0475 0.9989 -4.739 10.2888)" fill="#1E1E1E" cx="213.999" cy="104.802" rx="7.906" ry="8.625"/>
		</g>
		<g>
			
				<ellipse transform="matrix(0.9989 -0.0475 0.0475 0.9989 -2.9139 11.2276)" fill="#1E1E1E" cx="234.639" cy="66.887" rx="7.905" ry="8.625"/>
			
				<ellipse transform="matrix(0.9989 -0.0475 0.0475 0.9989 -2.8423 12.2309)" fill="#1E1E1E" cx="255.772" cy="65.883" rx="7.905" ry="8.624"/>
			
				<ellipse transform="matrix(0.9989 -0.0476 0.0476 0.9989 -2.8035 13.2452)" fill="#1E1E1E" cx="276.938" cy="65.536" rx="7.905" ry="8.625"/>
			
				<ellipse transform="matrix(0.9989 -0.0475 0.0475 0.9989 -2.7615 14.2421)" fill="#1E1E1E" cx="298.104" cy="65.19" rx="7.905" ry="8.624"/>
			
				<ellipse transform="matrix(0.9989 -0.0476 0.0476 0.9989 -2.6911 15.2535)" fill="#1E1E1E" cx="319.238" cy="64.185" rx="7.906" ry="8.625"/>
		</g>
		<g>
			
				<ellipse transform="matrix(0.9989 -0.0475 0.0475 0.9989 -4.6691 11.412)" fill="#1E1E1E" cx="237.639" cy="103.887" rx="7.905" ry="8.625"/>
			
				<ellipse transform="matrix(0.9989 -0.0475 0.0475 0.9989 -4.5974 12.4153)" fill="#1E1E1E" cx="258.772" cy="102.883" rx="7.905" ry="8.624"/>
			
				<ellipse transform="matrix(0.9989 -0.0476 0.0476 0.9989 -4.5598 13.4297)" fill="#1E1E1E" cx="279.938" cy="102.536" rx="7.905" ry="8.625"/>
			
				<ellipse transform="matrix(0.9989 -0.0475 0.0475 0.9989 -4.5167 14.4265)" fill="#1E1E1E" cx="301.104" cy="102.19" rx="7.905" ry="8.624"/>
		</g>
	</g>
</g>
<g id="Layer_2" display="none">
	<rect x="60.902" y="-180.008" display="inline" fill="#DDB63A" width="200" height="288"/>
	<path display="inline" fill="#1E1E1E" d="M267.902,112.992c0,3.279-2.12,6-4.735,6H57.638c-2.615,0-4.736-2.721-4.736-6l0,0
		c0-3.278,2.121-6,4.736-6h205.529C265.782,106.992,267.902,109.714,267.902,112.992L267.902,112.992z"/>
	<path display="inline" fill="#1E1E1E" d="M267.902,53.992c0,3.279-2.101,6-4.691,6H59.594c-2.591,0-4.691-2.721-4.691-6l0,0
		c0-3.278,2.101-6,4.691-6h203.617C265.802,47.992,267.902,50.714,267.902,53.992L267.902,53.992z"/>
	<g display="inline">
		<circle fill="#1E1E1E" cx="161.199" cy="-36.225" r="58.202"/>
		<circle fill="#DDB63A" cx="161.367" cy="-36.057" r="49.673"/>
	</g>
	<g display="inline">
		<path fill="#1E1E1E" d="M143.514-0.504c0,0,14.961,8.865,33.15,0l-9.062-26.88c0,0-6.008,5.147-15.048,0L143.514-0.504z"/>
	</g>
</g>
<g id="Layer_3" display="none">
	<ellipse display="inline" fill="#4DAD6A" cx="290.99" cy="186.866" rx="85.492" ry="79.634"/>
	<ellipse display="inline" fill="#4DAD6A" cx="13.497" cy="188.866" rx="83.993" ry="79.634"/>
	<g display="inline">
		<ellipse fill="#4DAD6A" cx="149.494" cy="68.866" rx="69.996" ry="79.634"/>
		<g>
			<polygon fill="#51514F" points="215.097,35.789 221.119,23.283 207.792,3.803 194.892,6.251 			"/>
			<polygon fill="#1C1C1C" points="212.302,51.066 221.623,31.706 200.993,1.547 181.021,5.338 			"/>
		</g>
		<g>
			<polygon fill="#51514F" points="84.548,38.789 78.525,26.283 91.853,6.803 104.753,9.251 			"/>
			<polygon fill="#1C1C1C" points="87.343,54.066 78.021,34.706 98.651,4.547 118.623,8.338 			"/>
		</g>
	</g>
	<g display="inline">
		<path fill="#CCAB5A" d="M350.48,260.027c0,122.073-88.644,221.034-197.99,221.034c-109.347,0-197.99-98.961-197.99-221.034
			c0-122.074,88.643-170.035,197.99-170.035C261.837,89.992,350.48,137.953,350.48,260.027z"/>
		<path fill="#93684C" d="M334.383,261.814c0,111.87-81.234,202.56-181.441,202.56c-100.208,0-181.441-90.689-181.441-202.56
			s81.234-155.822,181.441-155.822C253.148,105.992,334.383,149.944,334.383,261.814z"/>
		
			<rect x="41.902" y="94.992" transform="matrix(0.9383 -0.346 0.346 0.9383 -42.3658 31.6224)" fill="#1E1E1E" width="51" height="79"/>
		
			<rect x="206.902" y="92.992" transform="matrix(-0.9383 -0.346 0.346 -0.9383 404.618 337.2037)" fill="#1E1E1E" width="51" height="79"/>
	</g>
	
		<rect x="232.891" y="302.86" transform="matrix(-0.5902 0.8073 -0.8073 -0.5902 705.2531 371.239)" display="inline" fill="#1E1E1E" width="51" height="123.563"/>
	
		<rect x="22.891" y="302.859" transform="matrix(-0.5902 -0.8073 0.8073 -0.5902 -217.4238 618.8998)" display="inline" fill="#1E1E1E" width="51" height="123.563"/>
	<g display="inline">
		<rect x="57.902" y="136.992" fill="#1E1E1E" width="178" height="243"/>
		<rect x="53.902" y="108.992" fill="#1E1E1E" width="40" height="64"/>
		<rect x="93.902" y="123.992" fill="#1E1E1E" width="19" height="55"/>
		<rect x="49.902" y="172.992" fill="#B7A763" width="40" height="96"/>
		<rect x="119.902" y="123.992" fill="#B7A763" width="69" height="77"/>
		<rect x="128.902" y="117.992" fill="#B7A763" width="51" height="34"/>
		<circle fill="#31604E" cx="193.723" cy="273.961" r="22.238"/>
		<circle fill="#B7A763" cx="73.958" cy="123.383" r="6.542"/>
		<circle fill="#B7A763" cx="73.958" cy="151.288" r="6.542"/>
		<rect x="193.902" y="129.992" fill="#B7A763" width="51" height="57"/>
		<rect x="89.902" y="157.992" fill="#5B5A57" width="30" height="101"/>
		<rect x="79.902" y="173.992" fill="#B7A763" width="51" height="11"/>
		<rect x="85.902" y="208.992" fill="#B7A763" width="34" height="10"/>
		<rect x="125.902" y="157.992" fill="#B55848" width="57" height="33"/>
		<circle fill="#B7A763" cx="193.533" cy="273.771" r="11.002"/>
		<rect x="57.902" y="269.992" fill="#31604E" width="78" height="29"/>
		<circle fill="#31604E" cx="146.176" cy="372.993" r="82.844"/>
		
			<ellipse transform="matrix(0.7767 -0.6298 0.6298 0.7767 -184.8946 147.6988)" fill="#214737" cx="115.876" cy="334.636" rx="19.272" ry="24.934"/>
		
			<ellipse transform="matrix(-0.7767 -0.6299 0.6299 -0.7767 105.2581 707.7515)" fill="#214737" cx="178.084" cy="335.218" rx="19.272" ry="24.934"/>
		<circle fill="#214737" cx="80.642" cy="284.715" r="10.608"/>
		<circle fill="#214737" cx="112.618" cy="284.715" r="10.608"/>
		<g>
			<rect x="238.902" y="121.992" fill="#51514F" width="15" height="98"/>
			<polygon fill="#B7A763" points="267.438,246.992 229.902,246.992 229.902,187.212 			"/>
			<polygon fill="#60605F" points="285.902,208.827 285.902,246.992 269.902,246.992 269.902,187.212 			"/>
			<path fill="#B7A763" d="M239.176,231.581"/>
			<rect x="229.902" y="186.992" fill="#353533" width="40" height="60"/>
			<rect x="263.902" y="186.992" fill="#51514F" width="7" height="60"/>
			<rect x="232.902" y="237.992" fill="#353533" width="27" height="39"/>
			<rect x="251.902" y="231.992" fill="#353533" width="14" height="38"/>
			<rect x="239.902" y="237.992" fill="#353533" width="12" height="106"/>
		</g>
	</g>
	<path display="inline" fill="#1E1E1E" d="M134.902-3.413c-6,0-6,10,0,10C141.902,6.587,141.902-3.413,134.902-3.413z"/>
	<path display="inline" fill="#1E1E1E" d="M164.902-3.413c-6,0-6,10,0,10C171.902,6.587,171.902-3.413,164.902-3.413z"/>
</g>
<g id="Layer_4" display="none">
	<g display="inline">
		<circle fill="#70B79A" cx="167.992" cy="186.584" r="155.992"/>
		<path fill="#3F7257" stroke="#64D8A9" stroke-width="4" stroke-miterlimit="10" d="M93.902,105.559c0,0,74-50.471,141,5.313
			v150.121h-141V105.559z"/>
		<path fill="#3F7257" stroke="#64D8A9" stroke-width="4" stroke-miterlimit="10" d="M93.902,187.361c0,0,74-23.628,141,2.487
			v72.144h-141V187.361z"/>
		<path fill="#3F7257" stroke="#64D8A9" stroke-width="4" stroke-miterlimit="10" d="M111.902,261.908
			c0,3.912-3.172,7.084-7.084,7.084H79.986c-3.912,0-7.084-3.172-7.084-7.084v-79.832c0-3.912,3.172-7.084,7.084-7.084h24.832
			c3.912,0,7.084,3.172,7.084,7.084V261.908z"/>
		<path fill="#3F7257" stroke="#64D8A9" stroke-width="4" stroke-miterlimit="10" d="M256.902,263.908
			c0,3.912-3.172,7.084-7.084,7.084h-24.832c-3.912,0-7.084-3.172-7.084-7.084v-79.832c0-3.912,3.172-7.084,7.084-7.084h24.832
			c3.912,0,7.084,3.172,7.084,7.084V263.908z"/>
		<circle fill="#3F7257" stroke="#64D8A9" stroke-width="4" stroke-miterlimit="10" cx="95.923" cy="183.63" r="27.892"/>
		<circle fill="#3F7257" stroke="#64D8A9" stroke-width="4" stroke-miterlimit="10" cx="241.144" cy="180.088" r="27.892"/>
	</g>
</g>
<g id="Layer_5">
	<g>
		<ellipse fill="#5D7A1E" cx="154.48" cy="167.941" rx="115.314" ry="77.758"/>
		<g>
			<rect x="248.902" y="150.992" fill="#5D7A1E" width="35" height="34"/>
			<rect x="87.902" y="222.992" fill="#5D7A1E" width="26" height="36"/>
			<rect x="193.902" y="222.992" fill="#5D7A1E" width="26" height="36"/>
			<ellipse fill="#5D7A1E" cx="47.63" cy="162.299" rx="20.101" ry="17.104"/>
			<path fill="#5D7A1E" d="M235.82,126.071c0,0-10.066-58.956-27.301-47.839c0,0-5.963,9.454-15.723,32.141L235.82,126.071z"/>
			<circle fill="#FFFFFF" cx="214.26" cy="139.366" r="11.108"/>
		</g>
	</g>
	<path fill="#FFFFFF" d="M183.902,104.539c0,1.967-2.559,3.453-6.287,3.453h-57.96c-3.729,0-6.753-1.486-6.753-3.453v-0.594
		c0-1.967,3.023-3.953,6.753-3.953h57.96c3.729,0,6.287,1.986,6.287,3.953V104.539z"/>
	<g>
		<circle fill="#FFFFFF" cx="149.266" cy="68.552" r="38.98"/>
		<circle fill="#5D7A1E" cx="149.379" cy="68.438" r="35.93"/>
		<rect x="136.727" y="48.103" fill="none" width="40.672" height="35.927"/>
		<text transform="matrix(1 0 0 1 136.7266 83.3984)" fill="#FFFFFF" font-family="'MyriadPro-Regular'" font-size="49.7136">$</text>
	</g>
</g>
<g id="Layer_6" display="none">
	<g display="inline">
		<rect x="83.902" y="63.992" fill="#5D7A1E" width="143" height="148"/>
		<path fill="#5D7A1E" d="M84.271,60.856c0-12.521,3.07-22.864,6.856-22.864h129.155c3.787,0,6.856,10.247,6.856,22.765"/>
		<path fill="#5D7A1E" d="M83.902,215.279c0,22.242-0.006,36.16,3.781,36.16l135.328-0.037c3.787,0,3.76-13.779,3.76-36.02"/>
		<path fill="#5D7A1E" d="M140.295,255.387c0,13.436-10.891,24.326-24.326,24.326c-13.435,0-24.326-10.891-24.326-24.326"/>
		<path fill="#5D7A1E" d="M217.699,255.387c0,13.436-10.892,24.326-24.326,24.326c-13.437,0-24.328-10.891-24.328-24.326"/>
		<path fill="#FFFFFF" d="M213.902,192.568c0,2.443-1.98,4.424-4.423,4.424H100.325c-2.443,0-4.423-1.98-4.423-4.424v-5.152
			c0-2.443,1.98-4.424,4.423-4.424h109.154c2.442,0,4.423,1.98,4.423,4.424V192.568z"/>
		<g>
			<circle fill="#FFFFFF" cx="154.832" cy="88.418" r="16.586"/>
			<g>
				<polyline fill="#5D7A1E" points="154.969,73.674 153.357,85.96 154.969,89.834 				"/>
				<polyline fill="#5D7A1E" points="154.896,73.674 156.508,85.96 154.896,89.834 				"/>
			</g>
		</g>
		<path fill="#FFFFFF" d="M154.377,115.323c0,0,24.195,16.219,21.354,38.518c0,0,8.121-2.026,5.939-15.441
			c0,0,11.716,11.305,11.519,21.525c-0.162,8.303-10.553,20.271-30.093,20.271c0,0,17.619-15.758-5.662-35.699
			c0,0-21.537,21.248-7.325,35.699c0,0-28.655-7.289-20.249-25.542C138.266,136.396,156.652,134.785,154.377,115.323z"/>
	</g>
</g>
<g id="Layer_9" display="none">
	<g display="inline">
		<circle fill="#70B79A" cx="414.992" cy="101.584" r="155.992"/>
	</g>
</g>
<g id="Layer_7" display="none">
	<g display="inline">
		<rect x="83.902" y="2.992" fill="#3F7257" width="143" height="148"/>
		<path fill="#3F7257" d="M83.902,153.981c0,22.241-0.006,36.16,3.781,36.16l135.328-0.038c3.787,0,3.76-13.778,3.76-36.02"/>
		<path fill="#3F7257" d="M140.295,194.088c0,13.437-10.891,24.327-24.326,24.327c-13.435,0-24.326-10.891-24.326-24.327"/>
		<path fill="#3F7257" d="M217.699,194.088c0,13.437-10.892,24.327-24.326,24.327c-13.437,0-24.328-10.891-24.328-24.327"/>
		<path fill="#70B79A" d="M213.902,131.569c0,2.442-1.98,4.423-4.423,4.423H100.325c-2.442,0-4.423-1.98-4.423-4.423v-5.154
			c0-2.442,1.98-4.423,4.423-4.423h109.154c2.442,0,4.423,1.98,4.423,4.423V131.569z"/>
		<g>
			<circle fill="#70B79A" cx="154.832" cy="27.12" r="16.586"/>
			<g>
				<polyline fill="#3F7257" points="154.969,12.376 153.357,24.662 154.969,28.536 				"/>
				<polyline fill="#3F7257" points="154.896,12.376 156.508,24.662 154.896,28.536 				"/>
			</g>
		</g>
		<path fill="#70B79A" stroke="#7FF4C1" stroke-miterlimit="10" d="M152.965,54.024c0,0,24.195,16.219,21.354,38.518
			c0,0,8.121-2.026,5.939-15.441c0,0,11.716,11.305,11.519,21.524c-0.162,8.303-10.553,20.272-30.093,20.272
			c0,0,17.619-15.759-5.662-35.699c0,0-21.537,21.247-7.325,35.699c0,0-28.655-7.29-20.249-25.543
			C136.854,75.098,155.24,73.486,152.965,54.024z"/>
	</g>
</g>
<g id="Layer_8">
</g>
<g id="Layer_10" display="none">
	<rect x="-79.098" y="-239.008" display="inline" fill="#70B79A" width="498" height="319"/>
</g>
</svg>
