<?xml version="1.0" encoding="utf-8"?>
<!-- Generator: Adobe Illustrator 16.0.0, SVG Export Plug-In . SVG Version: 6.00 Build 0)  -->
<!DOCTYPE svg PUBLIC "-//W3C//DTD SVG 1.1//EN" "http://www.w3.org/Graphics/SVG/1.1/DTD/svg11.dtd">
<svg version="1.1" id="kitchen" xmlns="http://www.w3.org/2000/svg" xmlns:xlink="http://www.w3.org/1999/xlink" x="0px" y="0px"
	 width="833px" height="628px" viewBox="0 0 833 628" enable-background="new 0 0 833 628" xml:space="preserve">
<g id="Layer_4" display="none">
</g>
<g id="Layer_5" display="none">
	<g display="inline">
		<g>
			<ellipse fill="#5D7A1E" cx="-106.422" cy="489.949" rx="115.314" ry="77.758"/>
			<g>
				<rect x="-12" y="473" fill="#5D7A1E" width="35" height="34"/>
			</g>
		</g>
	</g>
</g>
<g id="Layer_6" display="none">
	<g display="inline">
		<rect x="35" y="162" fill="#5D7A1E" width="143" height="148"/>
		<path fill="#5D7A1E" d="M35.369,158.864c0-12.521,3.07-22.864,6.856-22.864H171.38c3.787,0,6.856,10.247,6.856,22.765"/>
		<path fill="#5D7A1E" d="M35,313.287c0,22.242-0.006,36.16,3.781,36.16l135.328-0.037c3.787,0,3.76-13.779,3.76-36.02"/>
		<path fill="#5D7A1E" d="M91.393,353.395c0,13.437-10.891,24.326-24.326,24.326s-24.326-10.891-24.326-24.326"/>
		<path fill="#5D7A1E" d="M168.797,353.395c0,13.437-10.892,24.326-24.326,24.326c-13.437,0-24.328-10.891-24.328-24.326"/>
		<path fill="#FFFFFF" d="M165,290.576c0,2.443-1.98,4.424-4.423,4.424H51.423C48.98,295,47,293.02,47,290.576v-5.152
			c0-2.443,1.98-4.424,4.423-4.424h109.154c2.442,0,4.423,1.98,4.423,4.424V290.576z"/>
		<g>
			<circle fill="#FFFFFF" cx="105.929" cy="186.426" r="16.586"/>
			<g>
				<polyline fill="#5D7A1E" points="106.066,171.682 104.455,183.968 106.066,187.842 				"/>
				<polyline fill="#5D7A1E" points="105.994,171.682 107.605,183.968 105.994,187.842 				"/>
			</g>
		</g>
		<path fill="#FFFFFF" d="M105.475,213.331c0,0,24.195,16.219,21.354,38.517c0,0,8.121-2.025,5.939-15.441
			c0,0,11.716,11.304,11.519,21.525c-0.162,8.303-10.553,20.271-30.093,20.271c0,0,17.619-15.758-5.662-35.699
			c0,0-21.537,21.248-7.325,35.699c0,0-28.655-7.289-20.249-25.543C89.363,234.404,107.75,232.792,105.475,213.331z"/>
	</g>
</g>
<g id="Layer_9" display="none">
	<g display="inline">
		<circle fill="#70B79A" cx="294.089" cy="348.592" r="155.992"/>
		<path fill="#3F7257" stroke="#64D8A9" stroke-width="2" stroke-miterlimit="10" d="M282.703,249.997
			c0,0,65.646,44.001,57.935,104.503c0,0,22.035-5.5,16.115-41.896c0,0,31.786,30.669,31.25,58.396
			c-0.44,22.525-28.63,55.001-81.644,55.001c0,0,47.804-42.755-15.362-96.854c0,0-58.429,57.646-19.873,96.854
			c0,0-77.743-19.776-54.937-69.3C238.992,307.169,288.879,302.797,282.703,249.997z"/>
	</g>
</g>
<g id="Layer_7" display="none">
	<g display="inline">
		<rect x="-37" y="250" fill="#3F7257" width="143" height="148"/>
		<path fill="#3F7257" d="M-36.631,246.715c0-12.521,3.07-22.715,6.856-22.715H99.381c3.787,0,6.856,10.172,6.856,22.69"/>
		<path fill="#3F7257" d="M-37,400.989c0,22.241-0.006,36.16,3.781,36.16l135.328-0.038c3.787,0,3.76-13.778,3.76-36.021"/>
		<path fill="#3F7257" d="M19.393,441.096c0,13.438-10.891,24.327-24.326,24.327s-24.326-10.891-24.326-24.327"/>
		<path fill="#3F7257" d="M96.797,441.096c0,13.438-10.892,24.327-24.326,24.327c-13.437,0-24.328-10.891-24.328-24.327"/>
		<path fill="#70B79A" d="M93,378.577c0,2.442-1.98,4.423-4.423,4.423H-20.577c-2.442,0-4.423-1.98-4.423-4.423v-5.154
			c0-2.442,1.98-4.423,4.423-4.423H88.577c2.442,0,4.423,1.98,4.423,4.423V378.577z"/>
		<g>
			<circle fill="#70B79A" cx="33.929" cy="274.128" r="16.586"/>
			<g>
				<polyline fill="#3F7257" points="34.066,259.384 32.455,271.67 34.066,275.544 				"/>
				<polyline fill="#3F7257" points="33.994,259.384 35.605,271.67 33.994,275.544 				"/>
			</g>
		</g>
		<path fill="#70B79A" stroke="#7FF4C1" stroke-miterlimit="10" d="M32.063,301.032c0,0,24.195,16.219,21.354,38.518
			c0,0,8.121-2.026,5.939-15.44c0,0,11.716,11.305,11.519,21.523c-0.162,8.303-10.553,20.272-30.093,20.272
			c0,0,17.619-15.759-5.662-35.699c0,0-21.537,21.247-7.325,35.699c0,0-28.655-7.29-20.249-25.544
			C15.951,322.105,34.338,320.494,32.063,301.032z"/>
	</g>
</g>
<g id="Layer_8" display="none">
	<g display="inline">
		<g>
			<g>
				<path fill="#5D7A1E" d="M209.295,534.56c0.381,2.908-0.508,5.437-2.654,7.589l-25.234,25.041
					c-1.137,1.264-2.621,2.34-4.457,3.225c-1.832,0.887-3.637,1.455-5.404,1.707c-0.127,0-0.508,0.033-1.141,0.096
					c-0.631,0.064-1.455,0.096-2.465,0.096c-2.404,0-6.293-0.411-11.67-1.231c-5.373-0.824-11.949-2.848-19.727-6.072
					c-7.781-3.225-16.604-8.063-26.469-14.512c-9.861-6.449-20.361-15.305-31.49-26.562c-8.854-8.727-16.189-17.073-22.006-25.043
					c-5.82-7.967-10.5-15.335-14.041-22.101s-6.195-12.9-7.967-18.402s-2.971-10.246-3.605-14.229
					c-0.632-3.984-0.885-7.115-0.758-9.394c0.126-2.274,0.188-3.539,0.188-3.793c0.255-1.77,0.823-3.573,1.708-5.405
					c0.886-1.834,1.96-3.32,3.226-4.459l25.231-25.232c1.771-1.771,3.795-2.655,6.071-2.655c1.646,0,3.099,0.475,4.362,1.424
					c1.266,0.946,2.341,2.117,3.226,3.51l20.298,38.511c1.139,2.022,1.455,4.238,0.949,6.641c-0.504,2.402-1.58,4.427-3.225,6.07
					l-9.297,9.295c-0.252,0.254-0.473,0.666-0.664,1.234c-0.189,0.567-0.283,1.043-0.283,1.422c0.508,2.656,1.645,5.69,3.414,9.106
					c1.518,3.035,3.859,6.734,7.02,11.099c3.162,4.364,7.654,9.392,13.469,15.083c5.693,5.817,10.752,10.338,15.178,13.563
					c4.428,3.224,8.127,5.597,11.098,7.113c2.975,1.521,5.25,2.436,6.83,2.75l2.371,0.475c0.252,0,0.666-0.096,1.234-0.284
					c0.57-0.189,0.979-0.41,1.234-0.664l10.813-11.002c2.277-2.025,4.932-3.035,7.969-3.035c2.15,0,3.855,0.377,5.121,1.139h0.191
					l36.611,21.627C207.209,529.942,208.791,532.028,209.295,534.56z"/>
			</g>
		</g>
		<path fill="none" stroke="#FFFFFF" stroke-width="4" stroke-miterlimit="10" d="M47.912,487.236c0,0,7.143-17.054,35.531-21.279"
			/>
		<path fill="none" stroke="#FFFFFF" stroke-width="4" stroke-miterlimit="10" d="M112.691,553.158c0,0,17.186-6.815,21.952-35.119"
			/>
	</g>
</g>
<g id="Layer_10" display="none">
	<g display="inline">
		<g>
			<polygon fill="#B2D362" points="314.203,344.364 198.564,344.364 247.623,392.314 125.051,497.247 41.836,426.784 
				-89.932,534.848 -89.932,581.533 41.836,473.472 125.051,543.927 273.104,417.199 314.203,457.384 			"/>
		</g>
		<polygon fill="#B2D362" points="-115.472,314.187 -115.472,707.821 344.57,707.821 344.57,687.909 -96.996,687.909 
			-96.996,314.187 		"/>
	</g>
	<g display="inline">
		<path fill="#5D7A1E" d="M46.945,565.693c-3.164,0-5.686,2.477-5.895,5.576h31.127c-0.203-3.101-2.729-5.576-5.877-5.576h-0.105
			l15.756-19.843c-8.441-4.565-16.898-0.921-25.332-0.183c-8.449-0.738-16.891-4.384-25.348,0.183l15.766,19.843H46.945z"/>
		<path fill="#5D7A1E" d="M66.863,582.069v-1.978c2.865-0.275,5.119-2.548,5.314-5.474H41.051c0.184,2.926,2.451,5.197,5.32,5.474
			v1.978c-19.241,1.399-34.423,17.425-34.423,37.036v49.879c0,2.146,0.609,4.127,1.604,5.86l6.724-6.741
			c1.56-1.549,4.076-1.549,5.613,0c1.563,1.563,1.563,4.062,0,5.623l-6.303,6.314c1.314,0.493,2.729,0.804,4.215,0.804h65.625
			c1.496,0,2.91-0.311,4.23-0.804l-6.32-6.314c-1.563-1.563-1.563-4.06,0-5.623c1.557-1.549,4.07-1.549,5.625,0l6.73,6.741
			c0.986-1.733,1.602-3.716,1.602-5.86v-49.879C101.291,599.494,86.109,583.47,66.863,582.069z"/>
		<g>
			<rect x="54.652" y="601.741" fill="#FFFFFF" width="3.947" height="60.157"/>
			<g>
				<g>
					<path fill="#FFFFFF" d="M41.125,621.287c0.992,5.241,5.377,9.579,11.291,11.438v-5.987c-3.963-1.232-6.785-4.266-6.785-7.854
						c0-3.496,2.717-6.498,6.545-7.774c0.076-0.03,0.166-0.078,0.24-0.122v-5.491c-0.539,0.103-1.094,0.254-1.623,0.433
						c-4.922,2.013-8.541,5.814-9.607,10.374c-0.135,0.888-0.223,1.786-0.223,2.748C40.963,619.816,41.02,620.554,41.125,621.287z"
						/>
				</g>
				<g>
					<path fill="#FFFFFF" d="M63.691,612.688c2.279,1.531,3.736,3.813,4.338,6.783l5.285-1.727
						c-2.238-7.086-6.576-11.151-12.955-12.248v5.535C61.482,611.425,62.609,611.965,63.691,612.688z"/>
				</g>
			</g>
		</g>
	</g>
	<g display="inline">
		<path fill="#5D7A1E" d="M148.785,584.355c-2.609,0-4.688,2.044-4.859,4.6h25.662c-0.166-2.557-2.248-4.6-4.846-4.6h-0.086
			l12.992-16.358c-6.961-3.765-13.936-0.758-20.887-0.149c-6.967-0.607-13.926-3.614-20.898,0.149l12.996,16.358H148.785z"/>
		<path fill="#5D7A1E" d="M165.205,597.858v-1.628c2.365-0.229,4.223-2.103,4.383-4.515h-25.662c0.15,2.412,2.02,4.284,4.385,4.515
			v1.628c-15.863,1.155-28.381,14.366-28.381,30.536v41.124c0,1.769,0.502,3.403,1.324,4.832l5.541-5.56
			c1.287-1.275,3.363-1.275,4.627,0c1.289,1.291,1.289,3.35,0,4.637l-5.197,5.207c1.086,0.407,2.252,0.663,3.477,0.663h54.105
			c1.234,0,2.4-0.256,3.492-0.663l-5.213-5.207c-1.287-1.287-1.287-3.346,0-4.637c1.281-1.275,3.355-1.275,4.637,0l5.551,5.56
			c0.813-1.429,1.32-3.063,1.32-4.832v-41.124C193.594,612.226,181.076,599.015,165.205,597.858z"/>
		<g>
			<rect x="155.141" y="614.079" fill="#FFFFFF" width="3.254" height="49.597"/>
			<g>
				<g>
					<path fill="#FFFFFF" d="M143.986,630.193c0.816,4.321,4.432,7.897,9.309,9.434v-4.939c-3.268-1.016-5.594-3.516-5.594-6.475
						c0-2.882,2.238-5.356,5.395-6.411c0.064-0.022,0.139-0.063,0.199-0.1v-4.528c-0.445,0.085-0.902,0.21-1.336,0.357
						c-4.061,1.656-7.043,4.794-7.924,8.554c-0.109,0.729-0.184,1.473-0.184,2.264C143.852,628.98,143.9,629.587,143.986,630.193z"
						/>
				</g>
				<g>
					<path fill="#FFFFFF" d="M162.594,623.104c1.877,1.263,3.078,3.144,3.574,5.594l4.359-1.424
						c-1.846-5.842-5.424-9.196-10.684-10.1v4.564C160.771,622.063,161.701,622.508,162.594,623.104z"/>
				</g>
			</g>
		</g>
	</g>
	<g display="inline">
		<path fill="#5D7A1E" d="M259.002,537.145c-3.967,0-7.129,3.106-7.389,6.993h39.029c-0.256-3.887-3.422-6.993-7.371-6.993h-0.131
			l19.754-24.878c-10.582-5.726-21.188-1.152-31.76-0.229c-10.596-0.925-21.18-5.497-31.785,0.229l19.77,24.878H259.002z"/>
		<path fill="#5D7A1E" d="M283.979,557.679v-2.478c3.592-0.349,6.418-3.195,6.664-6.866h-39.029c0.229,3.671,3.07,6.519,6.668,6.866
			v2.478c-24.125,1.756-43.162,21.85-43.162,46.438v62.542c0,2.689,0.764,5.176,2.012,7.35l8.43-8.452
			c1.957-1.94,5.113-1.94,7.039,0c1.957,1.96,1.957,5.095,0,7.053l-7.906,7.917c1.652,0.618,3.424,1.009,5.289,1.009h82.281
			c1.879,0,3.652-0.391,5.31-1.009l-7.926-7.917c-1.957-1.958-1.957-5.093,0-7.053c1.95-1.94,5.104-1.94,7.053,0l8.438,8.452
			c1.236-2.174,2.009-4.659,2.009-7.35v-62.542C327.146,579.527,308.111,559.435,283.979,557.679z"/>
		<g>
			<rect x="268.666" y="582.347" fill="#FFFFFF" width="4.951" height="75.43"/>
			<g>
				<g>
					<path fill="#FFFFFF" d="M251.707,606.854c1.242,6.572,6.74,12.011,14.154,14.346v-7.511c-4.969-1.544-8.508-5.348-8.508-9.846
						c0-4.385,3.408-8.149,8.209-9.751c0.096-0.038,0.207-0.098,0.299-0.152v-6.885c-0.676,0.127-1.371,0.318-2.033,0.54
						c-6.174,2.521-10.709,7.292-12.047,13.01c-0.168,1.111-0.279,2.239-0.279,3.443
						C251.502,605.01,251.574,605.934,251.707,606.854z"/>
				</g>
				<g>
					<path fill="#FFFFFF" d="M280,596.07c2.859,1.92,4.684,4.78,5.441,8.506l6.625-2.166c-2.805-8.884-8.246-13.982-16.242-15.355
						v6.939C277.23,594.486,278.646,595.166,280,596.07z"/>
					<path fill="#FFFFFF" d="M287.564,634.901c0,3.39-1.938,6.458-4.967,8.587c-1.393,1.146-3.127,1.936-5.252,2.391
						c-0.453,0.128-0.922,0.266-1.412,0.354v6.836c0.281-0.035,0.523-0.077,0.809-0.133c10.033-3.349,16.961-10.356,16.961-18.502
						c0-8.397-7.303-14.95-17.789-18.184l0.02,7.265C282.615,624.794,287.564,629.386,287.564,634.901z"/>
				</g>
			</g>
		</g>
	</g>
</g>
<g id="Layer_11" display="none">
	<g display="inline">
		<g>
			<path fill="#5D7A1E" d="M200.237,512.28l-11.696-7.748v-24.36c0-1.916-1.743-3.464-3.896-3.464h-19.579
				c-2.15,0-3.896,1.548-3.896,3.464l-0.182,6.123l-45.901-30.377c-1.663-1.102-3.62-1.411-5.438-1.025
				c-1.806-0.386-3.758-0.075-5.429,1.025L19.069,512.28c-3.291,2.18-4.193,6.612-2.016,9.9c2.177,3.295,6.612,4.197,9.907,2.02
				l82.688-54.732l82.703,54.732c3.288,2.179,7.728,1.275,9.91-2.02C204.435,518.894,203.534,514.46,200.237,512.28z
				 M28.832,531.894v80.145c0,4.733,3.841,8.577,8.577,8.577h73.587c-0.365-0.834-0.577-1.756-0.577-2.719v-56.854
				c0-3.758,3.051-6.803,6.809-6.803h34.18c3.754,0,6.799,3.045,6.799,6.803v56.854c0,0.963-0.205,1.885-0.564,2.719h22.927
				c4.74,0,8.58-3.844,8.58-8.577v-81.021l-79.499-52.607L28.832,531.894z M92.759,572.666c0,2.227-2.195,4.04-4.886,4.04H63.328
				c-2.695,0-4.889-1.813-4.889-4.04V538.88c0-2.235,2.193-4.042,4.889-4.042h24.545c2.69,0,4.886,1.807,4.886,4.042V572.666z"/>
			<path fill="#5D7A1E" d="M200.904,385.386c0,0,2.909,8.796-12.28,18.288c-32.393,20.271-22.793,42.711-14.34,67.755
				c-1.488-9.392,1.441-16.566,4.069-22.634c3.04-6.542,6.434-11.905,8.952-16.605c5.45-9.149,6.029-16.33,5.935-16.37
				c0.103-0.048,1.041,7.836-3.065,18.047c-1.826,5.164-4.521,11.008-6.933,17.668c-1.896,5.496-3.855,11.698-3.303,18.6
				C244.114,432.841,200.904,385.386,200.904,385.386z"/>
		</g>
		<g>
			<g>
				<path fill="#5D7A1E" d="M29.351,531.867v80.144c0,4.734,3.84,8.578,8.576,8.578h73.587c-0.365-0.835-0.578-1.756-0.578-2.719
					v-56.854c0-3.76,3.054-6.804,6.811-6.804h34.179c3.753,0,6.8,3.044,6.8,6.804v56.854c0,0.963-0.204,1.884-0.564,2.719h22.926
					c4.741,0,8.581-3.844,8.581-8.578V530.99l-79.5-52.608L29.351,531.867z"/>
				<path fill="#5D7A1E" d="M93.276,572.64c0,2.229-2.194,4.041-4.884,4.041H63.847c-2.696,0-4.889-1.813-4.889-4.041v-33.786
					c0-2.233,2.192-4.041,4.889-4.041h24.546c2.689,0,4.884,1.808,4.884,4.041L93.276,572.64L93.276,572.64z"/>
			</g>
			<polygon fill="#5D7A1E" points="29.128,532.438 110.223,478.667 190,530.99 190,612.609 181.086,621 37.506,621 29.351,611.947 
							"/>
		</g>
	</g>
</g>
<g id="Layer_12" display="none">
	<g display="inline">
		<g>
			<g>
				<polygon fill="#5D7A1E" points="233.39,178 778.771,178 506.078,-38.28 233.39,-254.26 -39.311,-38.126 -312.001,178 				"/>
				<rect x="-255" y="175" fill="#5D7A1E" width="963" height="690"/>
				<g>
					<rect x="452" y="-154" fill="#5D7A1E" width="111" height="160"/>
				</g>
				<rect x="510" y="437" fill="#5D7A1E" width="655" height="428"/>
				<polygon fill="#5D7A1E" points="909.823,439 1166.938,439 1038.379,336.777 909.823,234.825 781.264,336.911 652.7,439 				"/>
			</g>
		</g>
		<g>
			<rect x="-234" y="204" fill="#87B6C1" width="367" height="332"/>
			<g>
				<g>
					<polygon fill="#1AA4C4" points="97.439,340.698 111.543,359.143 66.018,509.998 5.004,451.985 					"/>
					<g>
						<path fill="#7C7C7B" d="M116.055,335.169c-4.035-4.53-11.685-2.369-17.36,5.054l14.178,18.566
							c4.565-5.977,6.588-13.593,5.373-19.091c6.325-9.513,13.755-2.652,13.755-2.652v-5.921
							C126,325.674,119.865,330.924,116.055,335.169z"/>
						<rect x="132" y="319" fill="#7C7C7B" width="2" height="30"/>
					</g>
				</g>
				<g>
					<path fill="#D8D8D6" d="M132.102,462H-82.091c0,36,13.091,53.795,33.091,62.521v7.297c0,3.171,1.604,5.183,3.842,5.183h0.335
						c2.24,0,3.822-2.012,3.822-5.183v-4.291c18,5.282,40.841,5.284,65.638,5.284c22.89,0,43.362-0.004,61.362-4.154v3.64
						c0,3.172,2.317,6.704,4.555,6.704h0.337c2.238,0,4.108-3.532,4.108-6.704v-6.104C118,518.166,132.102,501,132.102,462z"/>
					<path fill="#C1C1C1" d="M132.114,461c0,2.805-1.696,4-3.789,4H-78.639c-2.094,0-3.792-1.195-3.792-4l0,0
						c0-2.805,1.698-4,3.792-4h206.964C130.418,457,132.114,458.195,132.114,461L132.114,461z"/>
					<path fill="#D8D8D6" d="M140,455.922c0,2.926-1.712,6.078-3.949,6.078H-86.927c-2.236,0-4.073-3.152-4.073-6.078v-1.082
						c0-2.925,1.836-5.84,4.073-5.84h222.978c2.237,0,3.949,2.915,3.949,5.84V455.922z"/>
				</g>
			</g>
			<rect x="-75" y="311" fill="#7C7C7B" width="209" height="6"/>
		</g>
		<polygon fill="#889799" points="652.07,413 666,413 666,489.244 652.53,486.374 		"/>
		<g>
			<rect x="149" y="272" fill="#AABEC1" width="529" height="261"/>
			<g>
				<g>
					<rect x="599" y="448" fill="#997648" width="57" height="85"/>
					<rect x="601" y="471" fill="#D3B184" width="52" height="59"/>
					<rect x="601" y="450" fill="#D3B184" width="52" height="18"/>
					<rect x="619" y="455" fill="#7C5E32" width="17" height="3"/>
					<rect x="621" y="498" fill="#7C5E32" width="13" height="4"/>
				</g>
			</g>
			<polygon fill="#889799" points="215.307,448 230,448 230,535.244 216.148,531.928 			"/>
			<g>
				<g>
					<rect x="169" y="448" fill="#997648" width="55" height="85"/>
					<rect x="171" y="471" fill="#D3B184" width="52" height="59"/>
					<rect x="171" y="450" fill="#D3B184" width="52" height="18"/>
					<rect x="188" y="455" fill="#7C5E32" width="18" height="3"/>
					<rect x="190" y="498" fill="#7C5E32" width="14" height="4"/>
				</g>
			</g>
			<rect x="246" y="386" fill="#889799" width="340" height="149"/>
			<g>
				<rect x="243" y="384" fill="#997648" width="340" height="149"/>
				<g>
					<polygon fill="#FFFFFF" points="291.215,455 538.023,455 554.289,480 272.677,480 					"/>
					<polygon fill="#D3B184" points="565,530 263,530 263,474 278.816,474 565,474 					"/>
					<path fill="#7C7C7B" d="M430.766,467.314c-1.065,3.77-4.587,5.844-7.859,4.631l-36.563-13.526
						c-3.274-1.21-5.063-5.249-3.998-9.019l11.912-42.084c1.065-3.77,4.586-5.844,7.859-4.633l36.563,13.527
						c3.273,1.212,5.064,5.25,3.998,9.02L430.766,467.314z"/>
					<g>
						<path fill="#D8D8D8" d="M305.1,414.463c16.061,13.772-7.026,52.791,22.585,51.645c13.048-0.573,25.596-9.182,38.645-5.164
							c5.019,1.722,10.038,7.46,14.555,8.033c5.521,0.573,3.514,0,6.022-4.592c3.514-7.459,1.506-16.065,2.51-23.524
							c1.004-6.888,9.033-14.347,9.033-19.511c-0.502-16.066-33.625-14.92-41.656-14.92c-8.533,0-48.682-5.164-52.195,8.033"/>
					</g>
					<g>
						<path fill="#D8D8D8" d="M419.234,414.463c16.061,13.772-7.027,52.791,22.584,51.645c13.049-0.573,25.596-9.182,38.645-5.164
							c5.021,1.722,10.039,7.46,14.555,8.033c5.521,0.573,3.515,0,6.023-4.592c3.512-7.459,1.505-16.065,2.509-23.524
							c1.003-6.888,9.034-14.347,9.034-19.511c-0.502-16.066-33.626-14.92-41.656-14.92c-8.532,0-48.682-5.164-52.194,8.033"/>
					</g>
					<path fill="#7C7C7B" d="M528,464.86c0,3.403-1.78,6.14-4.256,6.14h-76.211c-2.478,0-4.533-2.735-4.533-6.14v-45.186
						c0-3.401,2.057-5.676,4.533-5.676h76.211c2.476,0,4.256,2.272,4.256,5.676V464.86z"/>
				</g>
			</g>
			<rect x="145" y="203" fill="#AABEC1" width="533" height="138"/>
		</g>
		<g>
			<rect x="-225" y="594" fill="#AABEC1" width="411" height="255"/>
		</g>
		<rect x="-256" y="530" fill="#997648" width="424" height="14"/>
		<rect x="-255" y="578" fill="#997648" width="424" height="14"/>
		<rect x="-226" y="544" fill="#EF7B8E" width="394" height="34"/>
		<rect x="-2" y="540" fill="#997648" width="25" height="42"/>
		<rect x="46" y="540" fill="#997648" width="25" height="42"/>
		<rect x="93" y="540" fill="#997648" width="25" height="42"/>
		<rect x="140" y="540" fill="#997648" width="25" height="42"/>
		<rect x="708" y="592" fill="#AABEC1" width="428" height="268"/>
		<rect x="165" y="530" fill="#997648" width="547" height="14"/>
		<rect x="166" y="578" fill="#997648" width="545" height="14"/>
		<rect x="165" y="544" fill="#EF7B8E" width="527" height="34"/>
		<rect x="185" y="543" fill="#997648" width="25" height="42"/>
		<rect x="233" y="543" fill="#997648" width="25" height="42"/>
		<rect x="280" y="543" fill="#997648" width="25" height="42"/>
		<rect x="327" y="543" fill="#997648" width="25" height="42"/>
		<rect x="373" y="543" fill="#997648" width="25" height="42"/>
		<rect x="419" y="540" fill="#997648" width="25" height="42"/>
		<rect x="467" y="540" fill="#997648" width="25" height="42"/>
		<rect x="514" y="540" fill="#997648" width="25" height="42"/>
		<rect x="561" y="540" fill="#997648" width="25" height="42"/>
		<rect x="677" y="175" fill="#997648" width="16" height="355"/>
		<rect x="134" y="204" fill="#997648" width="14" height="326"/>
		<rect x="562" y="543" fill="#997648" width="25" height="42"/>
		<rect x="609" y="543" fill="#997648" width="25" height="42"/>
		<rect x="656" y="543" fill="#997648" width="22" height="42"/>
		<rect x="185" y="585" fill="#997648" width="17" height="280"/>
	</g>
</g>
<g id="Layer_15" display="none">
	<g display="inline">
		<rect fill="#87B6C1" width="837" height="628"/>
		<rect x="32" fill="#AABEC1" width="314" height="628"/>
		<g>
			<g>
				<rect x="171.5" y="447.5" fill="#7C5E32" stroke="#B79E7D" stroke-width="7" stroke-miterlimit="10" width="129" height="176"/>
				<rect x="176" y="492" fill="#D3B184" width="117" height="127"/>
				<rect x="176" y="450" fill="#D3B184" width="117" height="38"/>
				<rect x="222" y="462" fill="#7C5E32" width="35" height="9"/>
				<rect x="273" y="534" fill="#7C5E32" width="9" height="32"/>
			</g>
			<g>
				<rect x="171.5" y="398.5" fill="#7C5E32" stroke="#B79E7D" stroke-width="7" stroke-miterlimit="10" width="129" height="41"/>
				<path fill="#D8D8D6" d="M294.188,405.361c0,17.701-25.438,32.052-56.811,32.052c-31.375,0-56.813-14.351-56.813-32.052"/>
				<rect x="172" y="435" fill="#D8D8D6" width="129" height="8"/>
				<rect x="203" y="390" fill="#91918B" width="19" height="15"/>
				<rect x="233" y="371" fill="#91918B" width="9" height="34"/>
				<rect x="257" y="390" fill="#91918B" width="19" height="15"/>
				<polygon fill="#91918B" points="232.849,371 228.523,378 247.55,378 243.225,371 				"/>
			</g>
		</g>
		<g>
			<g>
				<path fill="#D8D8D6" d="M232.662,536.92c0,31.671-32.401,57.35-72.372,57.35s-72.37-25.679-72.37-57.35"/>
				<path fill="#C1C1C1" d="M232.662,539.5c0,1.885-1.146,3.5-2.56,3.5H90.477c-1.414,0-2.557-1.615-2.557-3.5l0,0
					c0-1.887,1.143-3.5,2.557-3.5h139.626C231.516,536,232.662,537.613,232.662,539.5L232.662,539.5z"/>
				<path fill="#D8D8D6" d="M239,534.471c0,2.794-1.561,6.529-4.199,6.529H85.726c-2.635,0-4.726-3.735-4.726-6.529v-3.668
					c0-2.796,2.091-6.803,4.726-6.803h149.075c2.639,0,4.199,4.007,4.199,6.803V534.471z"/>
				<path fill="#C1C1C1" d="M230.103,527c0,1.885-1.104,5-2.459,5H93.165c-1.36,0-2.461-3.115-2.461-5l0,0c0-1.884,1.101-5,2.461-5
					h134.479C228.999,522,230.103,525.116,230.103,527L230.103,527z"/>
				<path fill="#D8D8D6" d="M233,524.27c0,1.398-3.067-0.27-5.45-0.27H93.032c-2.385,0-4.032,1.668-4.032,0.27v-2.317
					c0-1.397,1.647-1.951,4.032-1.951H227.55c2.383,0,5.45,0.554,5.45,1.951V524.27z"/>
			</g>
			<polygon fill="#D8D8D6" points="118.535,589 30,589 30,450 144.781,450 			"/>
			<polygon fill="#D8D8D6" points="88.713,575 169.438,575 144.781,630 30,630 30,575 			"/>
			<path fill="#C1C1C1" d="M144.781,455c0,1.892-0.925,5-2.073,5H29.552c-1.143,0-2.074-3.108-2.074-5l0,0c0-1.884,0.932-5,2.074-5
				h113.156C143.856,450,144.781,453.116,144.781,455L144.781,455z"/>
			<path fill="#D8D8D6" d="M156.366,446.5c0,2.283-1.749,3.5-3.901,3.5H19.849c-2.154,0-3.901-1.217-3.901-3.5l0,0
				c0-2.283,1.747-3.5,3.901-3.5h132.616C154.617,443,156.366,444.217,156.366,446.5L156.366,446.5z"/>
			<path fill="none" stroke="#C1C1C1" stroke-width="6" stroke-miterlimit="10" d="M170.233,593.427
				c-39.973,0-72.372-25.681-72.372-57.352"/>
		</g>
		<rect x="346" fill="#598C91" width="33" height="628"/>
		<g>
			<g>
				<polygon fill="#1AA4C4" points="755.044,258.549 787.172,293.47 683.462,579.09 544.469,469.252 				"/>
				<g>
					<path fill="#7C7C7B" d="M797.063,248.082c-9.191-8.579-26.425-4.485-39.354,9.567l32.395,35.152
						c10.4-11.314,14.671-25.738,11.902-36.146c14.409-18.009,30.994-5.021,30.994-5.021v-11.212
						C820,230.103,805.743,240.042,797.063,248.082z"/>
					<rect x="833" y="217" fill="#7C7C7B" width="6" height="57"/>
				</g>
			</g>
			<g>
				<path fill="#D8D8D6" d="M834.006,488H346.059c0,68,30.941,102.065,75.941,118.586V620.4c0,6.004,3.1,9.6,8.195,9.6h0.766
					c5.104,0,8.039-3.596,8.039-9.6v-8.124c42,10.003,93.385,10.007,149.871,10.007c52.143,0,98.129-0.008,140.129-7.867v6.891
					c0,6.006,5.264,12.693,10.359,12.693h0.768c5.1,0,9.873-6.688,9.873-12.693v-11.558C803,594.555,834.006,562,834.006,488z"/>
				<path fill="#C1C1C1" d="M834.035,486.5c0,5.31-3.864,7.5-8.631,7.5h-471.48c-4.769,0-8.635-2.19-8.635-7.5l0,0
					c0-5.311,3.866-7.5,8.635-7.5h471.48C830.171,479,834.035,481.189,834.035,486.5L834.035,486.5z"/>
				<path fill="#D8D8D6" d="M852,476.705c0,5.54-3.899,11.295-8.997,11.295H335.042c-5.096,0-9.042-5.755-9.042-11.295v-2.049
					c0-5.537,3.946-10.656,9.042-10.656h507.961c5.098,0,8.997,5.119,8.997,10.656V476.705z"/>
			</g>
		</g>
		<rect x="362" y="202" fill="#7C7C7B" width="477" height="12"/>
		<rect x="30" y="159" fill="#D8D8D8" width="271" height="200"/>
	</g>
</g>
<g id="Layer_13" display="none">
	<g display="inline">
		<rect fill="#AABEC1" width="833" height="641"/>
		<g>
			<g>
				<rect x="716" y="509" fill="#997648" width="90" height="118"/>
				<rect x="719" y="540" fill="#D3B184" width="83" height="83"/>
				<rect x="719" y="512" fill="#D3B184" width="83" height="24"/>
				<rect x="748" y="519" fill="#7C5E32" width="27" height="4"/>
				<rect x="750" y="579" fill="#7C5E32" width="22" height="5"/>
			</g>
		</g>
		<polygon fill="#889799" points="105.487,509 128,509 128,630.244 106.396,625.705 		"/>
		<g>
			<g>
				<rect x="31" y="509" fill="#997648" width="89" height="118"/>
				<rect x="36" y="540" fill="#D3B184" width="82" height="83"/>
				<rect x="36" y="512" fill="#D3B184" width="82" height="24"/>
				<rect x="63" y="519" fill="#7C5E32" width="28" height="4"/>
				<rect x="65" y="579" fill="#7C5E32" width="22" height="5"/>
			</g>
		</g>
		<rect x="154" y="423" fill="#889799" width="541" height="207"/>
		<g>
			<rect x="150" y="390" fill="#997648" width="541" height="237"/>
			<g>
				<polygon fill="#FFFFFF" points="226.252,503 618.901,503 644.779,542 196.759,542 				"/>
				<polygon fill="#D3B184" points="662,624 181,624 181,534 206.527,534 662,534 				"/>
				<path fill="#7C7C7B" d="M448.263,521.986c-1.693,6.035-7.296,9.354-12.504,7.413l-58.167-21.654
					c-5.209-1.938-8.057-8.403-6.359-14.438l18.951-67.371c1.695-6.033,7.296-9.354,12.504-7.414l58.168,21.656
					c5.208,1.938,8.057,8.401,6.359,14.438L448.263,521.986z"/>
				<g>
					<path fill="#D8D8D8" d="M248.34,437.377c25.552,22.047-11.178,84.512,35.932,82.675c20.759-0.918,40.72-14.696,61.479-8.266
						c7.984,2.755,15.97,11.94,23.155,12.857c8.783,0.921,5.589,0,9.581-7.349c5.591-11.941,2.396-25.721,3.993-37.664
						c1.598-11.021,14.37-22.963,14.37-31.23c-0.799-25.722-53.494-23.886-66.271-23.886c-13.574,0-77.448-8.266-83.038,12.861"/>
				</g>
				<g>
					<path fill="#D8D8D8" d="M429.919,437.377c25.55,22.047-11.179,84.512,35.929,82.675c20.761-0.918,40.723-14.696,61.481-8.266
						c7.984,2.755,15.971,11.94,23.155,12.857c8.783,0.921,5.589,0,9.581-7.349c5.589-11.941,2.395-25.721,3.991-37.664
						c1.598-11.021,14.371-22.963,14.371-31.23c-0.798-25.722-53.494-23.886-66.27-23.886c-13.574,0-77.45-8.266-83.04,12.861"/>
				</g>
				<path fill="#7C7C7B" d="M604,518.057c0,5.449-3.877,8.943-7.814,8.943H474.939C471,527,467,523.506,467,518.057v-72.336
					c0-5.445,4-8.721,7.939-8.721h121.245c3.938,0,7.814,3.274,7.814,8.721L604,518.057L604,518.057z"/>
			</g>
		</g>
	</g>
</g>
<g id="Layer_14">
	<g>
		<rect fill="#AABEC1" width="833" height="628"/>
		<g>
			<g>
				<rect x="11" y="376" fill="#997648" width="186" height="250"/>
				<rect x="18" y="443" fill="#D3B184" width="174" height="174"/>
				<rect x="18" y="382" fill="#D3B184" width="174" height="52"/>
				<rect x="78" y="402" fill="#7C5E32" width="60" height="9"/>
				<rect x="168" y="510" fill="#7C5E32" width="11" height="46"/>
				<rect x="196" y="376" fill="#997648" width="391" height="250"/>
				<rect x="203" y="443" fill="#D3B184" width="174" height="174"/>
				<rect x="203" y="382" fill="#D3B184" width="174" height="52"/>
				<rect x="263" y="402" fill="#7C5E32" width="59" height="9"/>
				<rect x="217" y="510" fill="#7C5E32" width="11" height="46"/>
				<path fill="#7C7C7B" d="M121,374v-8.29c0-0.401,2.316-0.71,4.76-0.71h141.647c2.444,0,4.593,0.309,4.593,0.71V374"/>
				<polygon fill="#7C7C7B" points="182.467,342 208.133,342 216.688,367 173.833,367 				"/>
				<rect x="190" y="284" fill="#7C7C7B" width="11" height="71"/>
				<polygon fill="#91918B" points="190.148,280 185.342,289 206.488,289 201.684,280 				"/>
				
					<rect x="205.328" y="318.411" transform="matrix(0.9782 0.2076 -0.2076 0.9782 75.5139 -36.1471)" fill="#7C7C7B" width="9.334" height="46.666"/>
				<polygon fill="#7C7C7B" points="218.167,326 254,326 254,318.4 210.114,318.241 				"/>
				<rect x="389" y="385" fill="#FFFFFF" width="189" height="230"/>
				<rect x="406" y="391" fill="#D8D8D8" width="157" height="38"/>
				<rect x="382" y="347" fill="#D8D8D8" width="199" height="29"/>
				<rect x="445" y="356" fill="#5D5D5D" width="78" height="17"/>
				<circle fill="#5D5D5D" cx="424.181" cy="407.749" r="10.015"/>
				<circle fill="#5D5D5D" cx="459.18" cy="407.749" r="10.014"/>
			</g>
			<rect x="498" y="398" fill="#5D5D5D" width="38" height="7"/>
			<rect x="498" y="413" fill="#5D5D5D" width="38" height="7"/>
			<g>
				<rect x="587" y="376" fill="#F9F9F9" width="235" height="250"/>
				<rect x="587" y="233" fill="#F9F9F9" width="235" height="132"/>
				<rect x="790" y="268" fill="#5D5D5D" width="9" height="52"/>
				<rect x="790" y="438" fill="#5D5D5D" width="9" height="128"/>
			</g>
		</g>
	</g>
</g>
</svg>
