<?xml version="1.0" encoding="utf-8"?>
<!-- Generator: Adobe Illustrator 16.0.0, SVG Export Plug-In . SVG Version: 6.00 Build 0)  -->
<!DOCTYPE svg PUBLIC "-//W3C//DTD SVG 1.1//EN" "http://www.w3.org/Graphics/SVG/1.1/DTD/svg11.dtd">
<svg version="1.1" xmlns="http://www.w3.org/2000/svg" xmlns:xlink="http://www.w3.org/1999/xlink" x="0px" y="0px" width="489px"
	 height="262px" viewBox="0 0 489 262" enable-background="new 0 0 489 262" xml:space="preserve">
<g id="Layer_4" display="none">
</g>
<g id="Layer_5" display="none">
	<g display="inline">
		<g>
			<path fill="#FFFFFF" d="M392.396,199.189c0,97.019-116.639,175.672-260.52,175.672c-143.885,0-260.522-78.653-260.522-175.672
				c0-97.023,116.638-175.672,260.522-175.672C275.758,23.517,392.396,102.166,392.396,199.189z"/>
			<g>
				<rect x="345.438" y="160" fill="#FFFFFF" width="80" height="78"/>
				<path fill="#FFFFFF" d="M315.643,104.595c0,0-22.742-133.195-61.677-108.079c0,0-13.474,21.359-35.523,72.613L315.643,104.595z"
					/>
				<circle fill="#5D7A1E" cx="266.933" cy="134.631" r="25.096"/>
			</g>
		</g>
		<path fill="#5D7A1E" d="M200.438,62.727c0,4.443-5.611,7.273-14.035,7.273H55.458c-8.427,0-16.02-2.83-16.02-7.273v-1.342
			c0-4.444,7.593-9.385,16.02-9.385h130.945c8.424,0,14.035,4.941,14.035,9.385V62.727z"/>
		<g>
			<path fill="#5D7A1E" d="M208.162-25.355c0,48.636-39.43,88.067-88.067,88.067c-48.636,0-88.065-39.431-88.065-88.067
				c0-48.635,39.43-88.065,88.065-88.065C168.732-113.421,208.162-73.99,208.162-25.355z"/>
			<circle fill="#FFFFFF" cx="120.352" cy="-25.611" r="81.173"/>
			<rect x="91.766" y="-71.555" fill="none" width="91.888" height="81.167"/>
			<text transform="matrix(1 0 0 1 91.7666 8.1875)" fill="#5D7A1E" font-family="'MyriadPro-Regular'" font-size="112.3145">$</text>
		</g>
	</g>
</g>
<g id="Layer_6" display="none">
</g>
<g id="Layer_9" display="none">
</g>
<g id="Layer_7" display="none">
</g>
<g id="Layer_8" display="none">
	<g display="inline">
		<g>
			<g>
				<path fill="#FFFFFF" d="M174.646,181.793c0.381,2.908-0.508,5.436-2.654,7.588l-25.234,25.041
					c-1.137,1.264-2.621,2.34-4.457,3.225c-1.832,0.887-3.637,1.455-5.404,1.707c-0.127,0-0.508,0.033-1.141,0.096
					c-0.631,0.064-1.455,0.096-2.465,0.096c-2.404,0-6.293-0.412-11.67-1.232c-5.373-0.824-11.949-2.848-19.727-6.072
					c-7.781-3.225-16.604-8.063-26.469-14.512c-9.861-6.449-20.361-15.305-31.49-26.561c-8.854-8.727-16.189-17.074-22.006-25.043
					c-5.82-7.967-10.5-15.335-14.041-22.101s-6.195-12.9-7.967-18.402S-3.05,95.376-3.685,91.394
					c-0.632-3.984-0.885-7.115-0.758-9.393c0.126-2.275,0.188-3.539,0.188-3.793c0.255-1.77,0.823-3.574,1.708-5.406
					c0.886-1.834,1.96-3.32,3.226-4.459L25.911,43.11c1.771-1.77,3.795-2.655,6.071-2.655c1.646,0,3.099,0.474,4.362,1.423
					c1.266,0.947,2.341,2.118,3.226,3.51l20.298,38.512c1.139,2.023,1.455,4.238,0.949,6.641c-0.504,2.402-1.58,4.426-3.225,6.07
					l-9.297,9.295c-0.252,0.254-0.473,0.666-0.664,1.234c-0.189,0.568-0.283,1.043-0.283,1.422c0.508,2.656,1.645,5.691,3.414,9.107
					c1.518,3.035,3.859,6.734,7.02,11.098c3.162,4.364,7.654,9.392,13.469,15.083c5.693,5.818,10.752,10.338,15.178,13.564
					c4.428,3.223,8.127,5.596,11.098,7.113c2.975,1.52,5.25,2.436,6.83,2.75l2.371,0.475c0.252,0,0.666-0.096,1.234-0.285
					c0.57-0.189,0.979-0.41,1.234-0.664l10.813-11.002c2.277-2.025,4.932-3.035,7.969-3.035c2.15,0,3.855,0.377,5.121,1.139h0.191
					l36.611,21.627C172.56,177.176,174.142,179.262,174.646,181.793z"/>
			</g>
		</g>
		<path fill="none" stroke="#5D7A1E" stroke-width="3" stroke-miterlimit="10" d="M13.263,134.47c0,0,7.143-17.053,35.531-21.279"/>
		<path fill="none" stroke="#5D7A1E" stroke-width="3" stroke-miterlimit="10" d="M78.042,200.392c0,0,17.186-6.815,21.952-35.119"
			/>
	</g>
</g>
<g id="Layer_19" display="none">
	<g display="inline">
		<path fill="#FFFFFF" d="M80.803,143.06l81.574-78.225c-4.183-2.053-9.565-3.419-16.677-3.419c-31.811,0-133.868,0-133.868,0
			S6.085,61.43-0.317,64.105L80.803,143.06z"/>
		<path fill="#FFFFFF" d="M86.965,161.991c-1.736,1.658-3.971,2.488-6.201,2.488c-2.259,0-4.518-0.845-6.249-2.538l-88.235-85.884
			c-2.173,4.067-3.603,9.195-3.603,15.841c0,30.485,1.325,108.686,1.325,108.686h192.193V87.922c0,0,0.187-4.517-1.774-9.807
			L86.965,161.991z"/>
	</g>
</g>
<g id="Layer_20" display="none">
	<g display="inline">
		<path fill="#FFFFFF" d="M381.283,88H231.729c-4.013,0-6.29,2.848-6.29,6.86v91.43c0,4.011,2.277,7.71,6.29,7.71h111.975
			l17.699,12.674L362.771,194h18.513c4.013,0,8.155-3.699,8.155-7.71V94.86C389.438,90.848,385.296,88,381.283,88z M381.438,179.407
			c0,3.435-3.793,6.593-7.229,6.593h-15.852l-1.051,10.939L342.031,186H239.662c-3.436,0-5.224-3.158-5.224-6.593v-78.285
			c0-3.436,1.788-6.122,5.224-6.122H374.21c3.436,0,7.229,2.687,7.229,6.122V179.407z"/>
		<rect x="278.147" y="105.183" fill="none" width="94.986" height="83.698"/>
		
			<text transform="matrix(1 0 0 1 278.1475 170.166)" fill="#FFFFFF" font-family="'FranklinGothic-Demi'" font-size="97.4267" letter-spacing="3">A</text>
		<rect x="137.904" y="74.1" fill="none" width="94.986" height="83.698"/>
		
			<text transform="matrix(1 0 0 1 137.9043 139.0825)" fill="#FFFFFF" font-family="'FranklinGothic-Demi'" font-size="97.4267" letter-spacing="3">Q</text>
		<path fill="#FFFFFF" d="M233.438,158h-97.341l-15.276,10.939L119.771,158h-15.852c-3.436,0-7.48-2.841-7.48-6.275V73.44
			c0-3.436,4.045-6.44,7.48-6.44h134.548c3.436,0,4.972,3.004,4.972,6.44V95h9V67.178c0-4.013-2.024-7.178-6.038-7.178H96.846
			c-4.013,0-8.407,3.165-8.407,7.178v91.43c0,4.012,4.395,7.393,8.407,7.393h18.513l1.368,12.675L134.426,166h99.013V158z"/>
	</g>
</g>
<g id="Layer_10" display="none">
	<g display="inline">
		<g>
			<polygon fill="#B2D362" points="27.642,174.364 -87.997,174.364 -38.938,222.314 -161.511,327.247 -244.726,256.784 
				-376.493,364.848 -376.493,411.533 -244.726,303.472 -161.511,373.927 -13.458,247.199 27.642,287.384 			"/>
		</g>
		<polygon fill="#B2D362" points="-402.034,144.187 -402.034,537.821 58.009,537.821 58.009,517.909 -383.557,517.909 
			-383.557,144.187 		"/>
	</g>
</g>
<g id="Layer_11" display="none">
</g>
<g id="Layer_12" display="none">
	<g display="inline">
		<g>
			<g>
				<polygon fill="#5D7A1E" points="-53.172,8 492.211,8 219.517,-208.28 -53.172,-424.26 -325.872,-208.126 -598.563,8 				"/>
				<rect x="-541.562" y="5" fill="#5D7A1E" width="963" height="690"/>
				<polygon fill="#5D7A1E" points="623.262,269 880.375,269 751.817,166.777 623.262,64.825 494.702,166.911 366.139,269 				"/>
			</g>
		</g>
		<polygon fill="#889799" points="365.509,243 379.438,243 379.438,319.244 365.969,316.374 		"/>
		<g>
			<rect x="-137.562" y="102" fill="#AABEC1" width="529" height="261"/>
			<rect x="-40.562" y="216" fill="#889799" width="340" height="149"/>
			<g>
				<rect x="-43.562" y="214" fill="#997648" width="340" height="149"/>
				<g>
					<path fill="#7C7C7B" d="M144.204,297.314c-1.066,3.77-4.587,5.844-7.86,4.631l-36.562-13.526
						c-3.275-1.21-5.064-5.249-3.998-9.019l11.912-42.084c1.065-3.769,4.586-5.843,7.859-4.632l36.563,13.527
						c3.273,1.212,5.064,5.25,3.998,9.019L144.204,297.314z"/>
					<g>
						<path fill="#D8D8D8" d="M18.538,244.463c16.061,13.772-7.026,52.791,22.586,51.644c13.047-0.573,25.595-9.181,38.644-5.164
							c5.019,1.722,10.038,7.46,14.555,8.034c5.521,0.573,3.513,0,6.022-4.592c3.514-7.459,1.506-16.066,2.51-23.525
							c1.004-6.887,9.033-14.346,9.033-19.51c-0.502-16.067-33.625-14.92-41.656-14.92c-8.533,0-48.682-5.164-52.195,8.033"/>
					</g>
					<g>
						<path fill="#D8D8D8" d="M132.673,244.463c16.061,13.772-7.027,52.791,22.584,51.644c13.049-0.573,25.596-9.181,38.645-5.164
							c5.02,1.722,10.039,7.46,14.555,8.034c5.521,0.573,3.514,0,6.023-4.592c3.512-7.459,1.505-16.066,2.509-23.525
							c1.003-6.887,9.034-14.346,9.034-19.51c-0.502-16.067-33.626-14.92-41.656-14.92c-8.532,0-48.682-5.164-52.195,8.033"/>
					</g>
					<path fill="#7C7C7B" d="M241.438,294.86c0,3.404-1.78,6.14-4.256,6.14h-76.211c-2.477,0-4.533-2.735-4.533-6.14v-45.185
						c0-3.402,2.057-5.676,4.533-5.676h76.211c2.476,0,4.256,2.273,4.256,5.676V294.86z"/>
				</g>
			</g>
			<rect x="-141.562" y="33" fill="#AABEC1" width="533" height="138"/>
		</g>
		<rect x="390.438" y="5" fill="#997648" width="16" height="355"/>
	</g>
</g>
<g id="Layer_22">
	<g id="living-room">
		<g>
			<rect x="1" y="2" fill="#AABEC1" width="488" height="259"/>
		</g>
		<path fill="#877838" d="M72,207v12.247C72,226.219,86.664,232,104.712,232h318.615c18.047,0,31.673-5.781,31.673-12.753V207"/>
		<g>
			<polyline fill="#506D8C" points="349,173 317,173 317,153 			"/>
			<g>
				<path fill="#506D8C" d="M317,153c0,0,6.941,0,15.845,0c8.904,0,16.155,4.455,16.155,10.06c0,5.604,0,9.94,0,9.94"/>
			</g>
			<polyline fill="#506D8C" points="349,172 317,172 317,193 			"/>
			<g>
				<path fill="#506D8C" d="M317,193c0,0,6.941,0,15.845,0c8.904,0,16.155-5.032,16.155-10.637S349,172,349,172"/>
			</g>
			<polyline fill="#506D8C" points="286,173 318,173 318,153 			"/>
			<g>
				<path fill="#506D8C" d="M318,153c0,0-6.877,0-15.78,0c-8.902,0-16.22,4.455-16.22,10.06c0,5.604,0,9.94,0,9.94"/>
			</g>
			<polyline fill="#506D8C" points="286,172 318,172 318,193 			"/>
			<g>
				<path fill="#506D8C" d="M318,193c0,0-6.877,0-15.78,0c-8.902,0-16.22-5.032-16.22-10.637S286,172,286,172"/>
			</g>
		</g>
		<g>
			<rect x="81.063" y="96.157" fill="#7F7F7E" width="78" height="56.443"/>
			<rect x="85.982" y="99.685" fill="#94DCF2" width="31.748" height="22.733"/>
			<rect x="85.982" y="125.946" fill="#94DCF2" width="31.748" height="22.342"/>
			<rect x="123.22" y="99.685" fill="#94DCF2" width="31.747" height="22.733"/>
			<rect x="123.22" y="125.946" fill="#94DCF2" width="31.747" height="22.342"/>
		</g>
		<g>
			<polyline fill="#3DB5C1" points="205,2 159,2 159,139 			"/>
			<g>
				<path fill="#3DB5C1" d="M159,139c0,0,10.532,0,23.366,0S206,120.963,206,98.963V0"/>
			</g>
		</g>
		<rect x="157" y="140" fill="#E5C97C" width="9" height="3"/>
		<g>
			<polyline fill="#3DB5C1" points="171,202 157,202 157,143 			"/>
			<g>
				<path fill="#3DB5C1" d="M157,143c0,0,3.183,0,7.032,0S171,155.863,171,172.021c0,16.156,0,28.979,0,28.979"/>
			</g>
		</g>
		<g>
			<polyline fill="#3DB5C1" points="43,2 81,2 81,141 			"/>
			<g>
				<path fill="#3DB5C1" d="M81,141c0,0-8.518,0-18.968,0S43,123.146,43,101.146V0"/>
			</g>
		</g>
		<rect x="67" y="141" fill="#E5C97C" width="14" height="3"/>
		<g>
			<polyline fill="#3DB5C1" points="60,210 81,210 81,144 			"/>
			<g>
				<path fill="#3DB5C1" d="M81,144c0,0-4.692,0-10.468,0S60,158.426,60,176.491C60,194.556,60,209,60,209"/>
			</g>
		</g>
		<rect x="360" y="49" fill="#898883" width="16" height="34"/>
		<rect x="316" y="49" fill="#877838" width="57" height="34"/>
		<rect x="321" y="53" fill="#E5CB5E" width="47" height="25"/>
		<rect x="288" y="49" fill="#898883" width="16" height="34"/>
		<rect x="245" y="49" fill="#877838" width="57" height="34"/>
		<rect y="208" fill="#B29E47" width="489" height="54"/>
		<rect x="250" y="53" fill="#E5CB5E" width="47" height="25"/>
		<ellipse fill="#898883" cx="416.365" cy="93.871" rx="17.333" ry="36.999"/>
		<ellipse fill="#877838" cx="411.032" cy="94.37" rx="21" ry="37.5"/>
		<ellipse fill="#E5CB5E" cx="411.365" cy="94.823" rx="17.333" ry="30.952"/>
		<g>
			<polyline fill="#5D989B" points="183,2 158,2 158,140 			"/>
			<g>
				<path fill="#5D989B" d="M158,140c0,0,5.657,0,12.532,0S183,121.963,183,99.963V0"/>
			</g>
		</g>
		<g>
			<path fill="#EA9D73" d="M233,191.517c0,4.311-3.25,7.482-7.562,7.482h-51.842c-4.312,0-7.598-3.173-7.598-7.482v-51.842
				c0-4.311,3.286-7.676,7.598-7.676h51.842c4.312,0,7.562,3.365,7.562,7.676V191.517z"/>
			<path fill="#E26E40" d="M302,191.517c0,4.311-3.709,7.482-8.021,7.482h-51.842c-4.313,0-8.139-3.173-8.139-7.482v-51.842
				c0-4.311,3.826-7.676,8.139-7.676h51.842c4.312,0,8.021,3.365,8.021,7.676V191.517z"/>
			<path fill="#EA9D73" d="M369,191.517c0,4.311-3.258,7.482-7.568,7.482h-51.84c-4.312,0-7.592-3.173-7.592-7.482v-51.842
				c0-4.311,3.28-7.676,7.592-7.676h51.84c4.312,0,7.568,3.365,7.568,7.676V191.517L369,191.517z"/>
			<path fill="#E26E40" d="M223,192.775c0,3.725-2.011,6.225-4.976,6.225h-36.103c-2.964,0-4.923-2.5-4.923-6.225v-45.379
				c0-3.726,1.959-6.396,4.923-6.396h36.103c2.965,0,4.976,2.672,4.976,6.396V192.775z"/>
			<path fill="#EA9D73" d="M292,192.775c0,3.725-2.71,6.225-5.675,6.225h-36.102c-2.965,0-5.225-2.5-5.225-6.225v-45.379
				c0-3.726,2.26-6.396,5.225-6.396h36.102c2.965,0,5.675,2.672,5.675,6.396V192.775z"/>
			<path fill="#E26E40" d="M358,192.775c0,3.725-1.711,6.225-4.676,6.225h-36.101c-2.965,0-5.225-2.5-5.225-6.225v-45.379
				c0-3.726,2.26-6.396,5.225-6.396h36.101c2.965,0,4.676,2.672,4.676,6.396V192.775z"/>
			<path fill="#E26E40" d="M159,213v-18.064c0-3.163,3.863-4.936,7.831-4.936h201.261c3.969,0,6.908,1.771,6.908,4.936V213"/>
			<path fill="#DD9773" d="M166.398,171.54c0-4.845-4.985-8.978-11.184-8.978c-6.142,0-11.088,4.438-11.175,8.438h-0.041v56h22
				v-53.396C167,172.94,166.398,172.252,166.398,171.54z"/>
			<rect x="144" y="213" fill="#DD9773" width="231" height="14"/>
			<path fill="#DD9773" d="M391.434,171.54c0-4.845-4.971-8.978-11.166-8.978c-6.145,0-11.072,4.438-11.16,8.438H369v56h22v-53.396
				C391,172.94,391.434,172.252,391.434,171.54z"/>
			<path fill="#E26E40" d="M160,211.196c0,2.652-2.149,4.804-4.804,4.804h-1.393c-2.653,0-4.805-2.149-4.805-4.804v-38.393
				c0-2.653,2.15-4.805,4.805-4.805h1.393c2.653,0,4.804,2.15,4.804,4.805V211.196z"/>
			<path fill="#E26E40" d="M386,211.196c0,2.652-2.15,4.804-4.805,4.804h-1.391c-2.653,0-4.806-2.149-4.806-4.804v-38.393
				c0-2.653,2.151-4.805,4.806-4.805h1.391c2.653,0,4.805,2.15,4.805,4.805V211.196z"/>
			<rect x="144" y="227" fill="#E26E40" width="247" height="5"/>
		</g>
		<g>
			<polyline fill="#5D989B" points="56,4 81,4 81,142 			"/>
			<g>
				<path fill="#5D989B" d="M81,142c0,0-5.593,0-12.468,0S56,123.963,56,101.963V2"/>
			</g>
		</g>
		<g>
			<g>
				<rect x="429" y="125" fill="#898883" width="57" height="85"/>
			</g>
		</g>
		<g>
			<g>
				<rect x="432" y="125" fill="#997648" width="57" height="85"/>
				<rect x="434" y="148" fill="#D3B184" width="52" height="59"/>
				<rect x="434" y="127" fill="#D3B184" width="52" height="18"/>
				<rect x="452" y="132" fill="#7C5E32" width="17" height="3"/>
				<rect x="454" y="175" fill="#7C5E32" width="13" height="4"/>
			</g>
		</g>
	</g>
</g>
<g id="Layer_21" display="none">
	<path display="inline" fill="#B29E47" d="M460.438,205c0,6.627-5.373,12-12,12h-378c-6.627,0-12-5.373-12-12v-33
		c0-6.627,5.373-12,12-12h378c6.627,0,12,5.373,12,12V205z"/>
	<path display="inline" fill="#877838" d="M67.438,160v12.377c0,6.971,14.632,12.623,32.68,12.623h318.615
		c18.047,0,31.705-5.651,31.705-12.623V160"/>
	<g display="inline">
		<polyline fill="#506D8C" points="344.438,126 312.438,126 312.438,106 		"/>
		<g>
			<path fill="#506D8C" d="M312.438,106c0,0,6.909,0,15.813,0s16.188,4.585,16.188,10.188c0,5.604,0,9.812,0,9.812"/>
		</g>
		<polyline fill="#506D8C" points="344.438,125 312.438,125 312.438,146 		"/>
		<g>
			<path fill="#506D8C" d="M312.438,146c0,0,6.909,0,15.813,0s16.188-4.902,16.188-10.506s0-10.494,0-10.494"/>
		</g>
		<polyline fill="#506D8C" points="281.438,126 313.438,126 313.438,106 		"/>
		<g>
			<path fill="#506D8C" d="M313.438,106c0,0-6.909,0-15.813,0s-16.188,4.585-16.188,10.188c0,5.604,0,9.812,0,9.812"/>
		</g>
		<polyline fill="#506D8C" points="281.438,125 313.438,125 313.438,146 		"/>
		<g>
			<path fill="#506D8C" d="M313.438,146c0,0-6.909,0-15.813,0s-16.188-4.902-16.188-10.506s0-10.494,0-10.494"/>
		</g>
	</g>
	<g display="inline">
		<rect x="76.469" y="49.288" fill="#C9C64B" width="78" height="56.442"/>
		<rect x="81.389" y="52.815" fill="#C7D1C3" width="31.748" height="22.733"/>
		<rect x="81.389" y="79.077" fill="#C7D1C3" width="31.748" height="22.342"/>
		<rect x="118.625" y="52.815" fill="#C7D1C3" width="31.748" height="22.733"/>
		<rect x="118.625" y="79.077" fill="#C7D1C3" width="31.748" height="22.342"/>
	</g>
	<g display="inline">
		<polyline fill="#3DB5C1" points="166.438,30 152.438,30 152.438,93 		"/>
		<g>
			<path fill="#3DB5C1" d="M152.438,93c0,0,3.15,0,7,0s7-14.064,7-31.588s0-31.412,0-31.412"/>
		</g>
	</g>
	<rect x="152.438" y="93" display="inline" fill="#E5C97C" width="9" height="3"/>
	<g display="inline">
		<polyline fill="#3DB5C1" points="166.438,155 152.438,155 152.438,96 		"/>
		<g>
			<path fill="#3DB5C1" d="M152.438,96c0,0,3.15,0,7,0s7,12.993,7,29.149s0,29.851,0,29.851"/>
		</g>
	</g>
	<g display="inline">
		<path fill="#EA9D73" d="M224.438,137.825c0,3.962-3.212,7.175-7.175,7.175h-47.65c-3.963,0-7.175-3.212-7.175-7.175v-47.65
			c0-3.962,3.212-7.175,7.175-7.175h47.65c3.963,0,7.175,3.212,7.175,7.175V137.825z"/>
		<path fill="#E26E40" d="M287.438,137.825c0,3.962-3.212,7.175-7.175,7.175h-47.65c-3.963,0-7.175-3.212-7.175-7.175v-47.65
			c0-3.962,3.212-7.175,7.175-7.175h47.65c3.963,0,7.175,3.212,7.175,7.175V137.825z"/>
		<path fill="#EA9D73" d="M349.438,137.825c0,3.962-3.213,7.175-7.176,7.175h-47.648c-3.963,0-7.176-3.212-7.176-7.175v-47.65
			c0-3.962,3.213-7.175,7.176-7.175h47.648c3.963,0,7.176,3.212,7.176,7.175V137.825z"/>
		<path fill="#E26E40" d="M215.438,138.981c0,3.424-2.265,6.019-4.989,6.019h-33.184c-2.724,0-4.827-2.595-4.827-6.019v-41.71
			c0-3.424,2.104-6.271,4.827-6.271h33.184c2.725,0,4.989,2.848,4.989,6.271V138.981z"/>
		<path fill="#EA9D73" d="M278.438,138.981c0,3.424-2.485,6.019-5.21,6.019h-33.184c-2.724,0-4.606-2.595-4.606-6.019v-41.71
			c0-3.424,1.883-6.271,4.606-6.271h33.184c2.725,0,5.21,2.848,5.21,6.271V138.981z"/>
		<path fill="#E26E40" d="M339.438,138.981c0,3.424-1.902,6.019-4.627,6.019h-33.183c-2.725,0-5.19-2.595-5.19-6.019v-41.71
			c0-3.424,2.466-6.271,5.19-6.271h33.183c2.725,0,4.627,2.848,4.627,6.271V138.981z"/>
		<path fill="#E26E40" d="M156.438,157v-16.034c0-2.907,3.309-4.966,6.956-4.966h184.99c3.647,0,6.054,2.059,6.054,4.966V157"/>
		<path fill="#DD9773" d="M162.901,119.463c0-4.453-4.535-8.235-10.231-8.235c-5.646,0-10.144,3.772-10.224,7.772h-0.008v51h20
			v-48.64C163.438,120.75,162.901,120.118,162.901,119.463z"/>
		<rect x="142.438" y="157" fill="#DD9773" width="212" height="13"/>
		<path fill="#DD9773" d="M369.838,119.463c0-4.453-4.567-8.235-10.263-8.235c-5.646,0-10.176,3.772-10.257,7.772h0.12v51h20v-48.64
			C369.438,120.75,369.838,120.118,369.838,119.463z"/>
		<path fill="#E26E40" d="M157.438,155.585c0,2.438-1.977,4.415-4.415,4.415h-1.17c-2.438,0-4.415-1.977-4.415-4.415v-35.17
			c0-2.438,1.977-4.415,4.415-4.415h1.17c2.438,0,4.415,1.977,4.415,4.415V155.585z"/>
		<path fill="#E26E40" d="M364.438,155.585c0,2.438-1.978,4.415-4.416,4.415h-1.168c-2.438,0-4.416-1.977-4.416-4.415v-35.17
			c0-2.438,1.978-4.415,4.416-4.415h1.168c2.438,0,4.416,1.977,4.416,4.415V155.585z"/>
		<rect x="142.438" y="170" fill="#E26E40" width="227" height="5"/>
	</g>
	<g display="inline">
		<polyline fill="#3DB5C1" points="62.438,31 76.438,31 76.438,94 		"/>
		<g>
			<path fill="#3DB5C1" d="M76.438,94c0,0-3.15,0-7,0s-7-14.064-7-31.588s0-31.412,0-31.412"/>
		</g>
	</g>
	<rect x="67.438" y="94" display="inline" fill="#E5C97C" width="9" height="3"/>
	<g display="inline">
		<polyline fill="#3DB5C1" points="62.438,160 76.438,160 76.438,97 		"/>
		<g>
			<path fill="#3DB5C1" d="M76.438,97c0,0-3.15,0-7,0s-7,13.886-7,31.133s0,30.867,0,30.867"/>
		</g>
	</g>
</g>
<g id="Layer_15" display="none">
	<g display="inline">
		<rect x="-286.562" y="-170" fill="#87B6C1" width="837" height="628"/>
		<rect x="-254.562" y="-170" fill="#AABEC1" width="314" height="628"/>
		<g>
			<g>
				
					<rect x="-115.062" y="228.5" fill="#7C5E32" stroke="#B79E7D" stroke-width="7" stroke-miterlimit="10" width="129" height="41"/>
				<path fill="#D8D8D6" d="M7.626,235.361c0,17.702-25.438,32.052-56.811,32.052c-31.375,0-56.813-14.35-56.813-32.052"/>
			</g>
		</g>
		<rect x="59.438" y="-170" fill="#598C91" width="33" height="628"/>
		<g>
			<g>
				<polygon fill="#1AA4C4" points="468.482,88.549 500.61,123.47 396.9,409.09 257.907,299.252 				"/>
				<g>
					<path fill="#7C7C7B" d="M510.502,78.082c-9.192-8.579-26.425-4.485-39.354,9.567l32.395,35.152
						c10.4-11.314,14.67-25.738,11.902-36.146c14.409-18.009,30.994-5.02,30.994-5.02V70.423
						C533.438,60.103,519.182,70.042,510.502,78.082z"/>
				</g>
			</g>
		</g>
		<rect x="75.438" y="32" fill="#7C7C7B" width="477" height="12"/>
		<rect x="-256.562" y="-11" fill="#D8D8D8" width="271" height="200"/>
	</g>
</g>
<g id="Layer_13" display="none">
	<g display="inline">
		<rect x="-286.562" y="-170" fill="#AABEC1" width="833" height="641"/>
		<rect x="-132.562" y="253" fill="#889799" width="541" height="207"/>
		<g>
			<rect x="-136.562" y="220" fill="#997648" width="541" height="237"/>
			<g>
				<path fill="#7C7C7B" d="M161.701,351.986c-1.694,6.035-7.296,9.354-12.504,7.413L91.03,337.745
					c-5.209-1.938-8.057-8.403-6.36-14.438l18.952-67.371c1.695-6.034,7.295-9.354,12.503-7.415l58.168,21.657
					c5.208,1.938,8.057,8.401,6.36,14.437L161.701,351.986z"/>
				<g>
					<path fill="#D8D8D8" d="M-38.222,267.377c25.552,22.047-11.178,84.512,35.932,82.675c20.759-0.918,40.72-14.697,61.479-8.266
						c7.984,2.755,15.97,11.941,23.155,12.858c8.783,0.92,5.589,0,9.581-7.349c5.591-11.941,2.396-25.721,3.993-37.664
						c1.598-11.021,14.371-22.963,14.371-31.231c-0.799-25.721-53.495-23.885-66.271-23.885c-13.574,0-77.448-8.266-83.038,12.861"
						/>
				</g>
				<g>
					<path fill="#D8D8D8" d="M143.357,267.377c25.55,22.047-11.179,84.512,35.929,82.675c20.76-0.918,40.722-14.697,61.481-8.266
						c7.984,2.755,15.971,11.941,23.155,12.858c8.783,0.92,5.589,0,9.581-7.349c5.589-11.941,2.395-25.721,3.992-37.664
						c1.597-11.021,14.371-22.963,14.371-31.231c-0.798-25.721-53.494-23.885-66.27-23.885c-13.574,0-77.45-8.266-83.04,12.861"/>
				</g>
			</g>
		</g>
	</g>
</g>
<g id="Layer_14" display="none">
	<g display="inline">
		<rect x="-286.562" y="-170" fill="#AABEC1" width="833" height="628"/>
		<g>
			<g>
				<rect x="-90.562" y="206" fill="#997648" width="391" height="250"/>
				<rect x="-83.562" y="212" fill="#D3B184" width="174" height="52"/>
				<rect x="-23.562" y="232" fill="#7C5E32" width="59" height="9"/>
				<rect x="102.438" y="215" fill="#FFFFFF" width="189" height="230"/>
				<rect x="119.438" y="221" fill="#D8D8D8" width="157" height="38"/>
				<rect x="95.438" y="177" fill="#D8D8D8" width="199" height="29"/>
				<rect x="158.438" y="186" fill="#5D5D5D" width="78" height="17"/>
				<circle fill="#5D5D5D" cx="137.619" cy="237.749" r="10.015"/>
				<circle fill="#5D5D5D" cx="172.618" cy="237.749" r="10.014"/>
			</g>
			<rect x="211.438" y="228" fill="#5D5D5D" width="38" height="7"/>
			<rect x="211.438" y="243" fill="#5D5D5D" width="38" height="7"/>
			<g>
				<rect x="300.438" y="206" fill="#F9F9F9" width="235" height="250"/>
				<rect x="300.438" y="63" fill="#F9F9F9" width="235" height="132"/>
			</g>
		</g>
	</g>
</g>
<g id="Layer_16" display="none">
	<rect x="-286.562" y="-170" display="inline" fill="#AABEC1" width="833" height="629"/>
	<g display="inline">
		<rect x="335.198" y="-1.568" fill="#484445" width="10.931" height="34.246"/>
		<rect x="307.438" y="81" fill="#4C4A4B" width="142" height="224"/>
		<g>
			<rect x="384.438" y="109" fill="#C0BEBF" width="90" height="161"/>
		</g>
		<g>
			<rect x="486.438" y="101" fill="#4C4A4B" width="15" height="103"/>
			<rect x="472.438" y="179" fill="#4C4A4B" width="29" height="25"/>
		</g>
		<g>
			<rect x="322.438" y="231" fill="#C0BEBF" width="55" height="6"/>
			<rect x="322.438" y="245" fill="#C0BEBF" width="55" height="8"/>
			<rect x="322.438" y="260" fill="#C0BEBF" width="55" height="8"/>
		</g>
		<g>
			<rect x="429.438" y="153" fill="#4C4A4B" width="35" height="8"/>
			<rect x="429.438" y="200" fill="#4C4A4B" width="35" height="6"/>
			<rect x="429.438" y="138" fill="#4C4A4B" width="35" height="8"/>
			<rect x="429.438" y="169" fill="#4C4A4B" width="35" height="8"/>
			<rect x="429.438" y="183" fill="#4C4A4B" width="35" height="5"/>
			<rect x="429.438" y="214" fill="#4C4A4B" width="35" height="6"/>
			<rect x="429.438" y="227" fill="#4C4A4B" width="35" height="6"/>
		</g>
		<rect x="312.438" y="144" fill="#C0BEBF" width="90" height="80"/>
		<rect x="343.609" y="-2.226" fill="#C0BEBF" width="19.449" height="83.011"/>
		<g>
			<ellipse fill="#484445" cx="349.129" cy="182.98" rx="27.799" ry="35.354"/>
			<g>
				<ellipse fill="#9A9496" cx="351.157" cy="182.98" rx="27.8" ry="35.354"/>
				<ellipse fill="#282827" cx="350.066" cy="183.355" rx="18.253" ry="23.212"/>
				<ellipse fill="#5F5A5D" cx="351.452" cy="182.606" rx="18.253" ry="23.212"/>
				<g>
					<ellipse fill="#282827" cx="350.963" cy="182.781" rx="8.568" ry="10.898"/>
					<ellipse fill="#4C4A4B" cx="351.614" cy="182.43" rx="8.569" ry="10.896"/>
				</g>
			</g>
		</g>
		<rect x="337.353" y="-2.089" fill="#C0BEBF" width="17.919" height="34.767"/>
	</g>
	<g display="inline">
		<rect x="-4.562" y="260" fill="#4C4A4B" width="185" height="187"/>
		<rect x="77.438" y="192" fill="#4C4A4B" width="31" height="68"/>
		<rect x="77.438" y="192" fill="#4C4A4B" width="54" height="39"/>
		<rect x="24.438" y="173" fill="#4C4A4B" width="30" height="87"/>
		<rect x="3.438" y="173" fill="#4C4A4B" width="51" height="52"/>
		<rect x="199.202" y="105.314" fill="#5E5E5E" width="60.3" height="127.699"/>
		<g>
			<rect x="199.145" y="102.578" fill="#C0BEBF" width="61.073" height="124.049"/>
			<polygon fill="#C0BEBF" points="199.145,230.278 214.658,326.981 244.709,326.981 260.218,230.278 			"/>
		</g>
	</g>
</g>
<g id="Layer_17" display="none">
	<g display="inline">
		<g>
			<g>
				<path fill="#AABEC1" d="M481.938,176.561c0-23.506-19.252-42.561-43-42.561s-43,19.055-43,42.561
					c0,3.246,0.379,6.401,1.074,9.439h-1.574v222h86V186h-0.574C481.56,182.962,481.938,179.807,481.938,176.561z"/>
			</g>
			<g>
				<path fill="#AABEC1" d="M22.438,123.735c-17.06,0-31,9.788-31,21.862v100.667c0,12.075,13.94,21.863,31,21.863
					s31-9.788,31-21.863V145.597C53.438,133.523,39.498,123.735,22.438,123.735z"/>
				<path fill="#AABEC1" d="M54.425,237c0-17.06-11.761-31-26.268-31H-92.794c-14.508,0-26.268,13.94-26.268,31
					c0,17.061,11.76,31,26.268,31H28.157C42.664,268,54.425,254.061,54.425,237z"/>
				<g>
					<polyline fill="#AABEC1" points="383.438,271 63.438,271 63.438,112 					"/>
					<g>
						<path fill="#AABEC1" d="M64.438,112h262.807c31.182,0,56.193,25.752,56.193,56.934V271"/>
					</g>
				</g>
			</g>
		</g>
		<g>
			<path fill="#AABEC1" d="M39.709-116c-73.88,0-133.771,40.604-133.771,90.692c0,33.012,26.021,61.902,64.911,77.765L-19.564,90
				l15.479-29.594c13.723,3.222,28.455,4.978,43.794,4.978c73.879,0,133.771-40.604,133.771-90.692
				C173.479-75.396,113.588-116,39.709-116z"/>
			<rect x="-21.906" y="-62" fill="none" width="139.229" height="74"/>
			
				<text transform="matrix(1 0 0 1 -21.9063 -12.3008)" fill="#5D7A1E" font-family="'MyriadPro-Regular'" font-size="70" letter-spacing="2">zzzz</text>
		</g>
	</g>
</g>
<g id="Layer_18" display="none">
	
		<polyline display="inline" fill="none" stroke="#5D7A1E" stroke-width="11" stroke-linecap="round" stroke-linejoin="round" stroke-miterlimit="10" points="
		-175.062,324 -175.062,177.5 -48.062,177.5 -48.062,324.511 -28.544,256 5.53,324.511 22.182,280.994 72.141,324.5 436.438,324.5 	
		"/>
</g>
</svg>
