<?xml version="1.0" encoding="UTF-8" standalone="no"?>
<!-- Created with Inkscape (http://www.inkscape.org/) -->
<svg
   xmlns:svg="http://www.w3.org/2000/svg"
   xmlns="http://www.w3.org/2000/svg"
   version="1.0"
   width="255.91624"
   height="99.544998"
   id="svg2"
   xml:space="preserve"><defs
     id="defs5"><clipPath
       id="clipPath157"><path
         d="M 468.828,426.606 L 421,426.606 L 421,381.606 L 468.828,381.606 L 468.828,426.606 z"
         id="path159" /></clipPath></defs><g
     transform="matrix(1.25,0,0,-1.25,-237.5,880.075)"
     id="g11"><text
       transform="matrix(1,0,0,-1,412.523,37.33)"
       id="text13"><tspan
         x="0 4.1040001 6.9840002 10.624 14.632 18.879999 22.52 25.176001 29.424 32.624001 34.647999 41 44.639999 48.647999 52.608002 56.248001 57.976002 60 63.504002 65.528 70.615997 72.344002 75.223999 79.096001 81.120003 85.407997 87.639999 89.664001 94.176003 97.816002 101.824 105.328 109.616 113.576 116.976 120.744 123.4 125.424 129.35201 135.056 139.304 141.032 144.8 150.504 158.60001"
         y="0"
         id="tspan15"
         style="font-size:8px;font-variant:normal;font-weight:normal;writing-mode:lr-tb;fill:#231f20;fill-opacity:1;fill-rule:nonzero;stroke:none;font-family:CharlotteSansBookLetPlain;-inkscape-font-specification:CharlotteSansBookLetPlain">Standards Manual • City of Vancouver Emblem 2</tspan></text>
<path
       d="M 256.379,654.636 L 257.09,653.414 C 256.492,653.018 255.803,652.695 255.011,652.454 C 254.227,652.201 253.226,652.078 252.02,652.078 C 250.913,652.078 249.91,652.289 249.018,652.703 C 248.116,653.129 247.341,653.705 246.697,654.456 C 246.041,655.195 245.558,656.008 245.227,656.894 C 244.914,657.788 244.748,658.708 244.748,659.656 C 244.748,660.605 244.915,661.524 245.231,662.422 C 245.567,663.323 246.05,664.137 246.702,664.869 C 247.343,665.602 248.116,666.165 249.018,666.591 C 249.91,667.008 250.913,667.219 252.02,667.219 C 252.873,667.219 253.62,667.156 254.258,667.036 C 254.887,666.912 255.389,666.777 255.758,666.629 C 256.127,666.476 256.467,666.305 256.791,666.116 L 256.214,664.734 C 256.042,664.815 255.835,664.909 255.594,665.006 C 255.357,665.113 255.077,665.22 254.74,665.329 C 254.409,665.436 254.036,665.525 253.592,665.6 C 253.159,665.666 252.657,665.698 252.106,665.698 C 251.381,665.698 250.692,665.55 250.057,665.242 C 249.431,664.932 248.865,664.509 248.384,663.951 C 247.895,663.4 247.523,662.754 247.249,662.012 C 246.974,661.268 246.844,660.491 246.844,659.656 C 246.844,658.535 247.086,657.511 247.583,656.584 C 248.069,655.669 248.741,654.941 249.589,654.408 C 250.422,653.87 251.343,653.598 252.342,653.598 C 253.411,653.598 254.243,653.698 254.822,653.9 C 255.411,654.102 255.935,654.35 256.379,654.636"
       id="path17"
       style="fill:#0081c5;fill-opacity:1;fill-rule:nonzero;stroke:none" /><path
       d="M 259.169,652.37 L 261.1006,652.37 L 261.1006,666.936 L 259.169,666.936 L 259.169,652.37 z"
       id="path19"
       style="fill:#0081c5;fill-opacity:1;fill-rule:nonzero;stroke:none" /><path
       d="M 263.381,665.493 L 263.381,666.936 L 274.61,666.936 L 274.61,665.493 L 269.958,665.493 L 269.958,652.37 L 268.035,652.37 L 268.035,665.493 L 263.381,665.493"
       id="path21"
       style="fill:#0081c5;fill-opacity:1;fill-rule:nonzero;stroke:none" /><path
       d="M 285.121,666.936 L 286.962,666.936 L 282.259,659.436 L 282.259,652.37 L 280.32,652.37 L 280.32,659.436 L 275.713,666.936 L 277.807,666.936 L 281.483,660.907 L 285.121,666.936"
       id="path23"
       style="fill:#0081c5;fill-opacity:1;fill-rule:nonzero;stroke:none" /><path
       d="M 300.949,665.796 C 299.962,665.796 299.083,665.55 298.323,665.028 C 297.564,664.516 296.976,663.797 296.565,662.872 C 296.161,661.945 295.955,660.881 295.955,659.656 C 295.955,658.437 296.161,657.361 296.565,656.433 C 296.976,655.508 297.564,654.787 298.323,654.277 C 299.083,653.752 299.962,653.502 300.949,653.502 C 301.688,653.502 302.368,653.641 302.988,653.934 C 303.607,654.231 304.14,654.644 304.584,655.198 C 305.031,655.744 305.373,656.39 305.599,657.144 C 305.834,657.893 305.949,658.733 305.949,659.656 C 305.949,660.584 305.834,661.413 305.594,662.17 C 305.361,662.929 305.026,663.576 304.589,664.109 C 304.158,664.651 303.635,665.066 303.022,665.364 C 302.408,665.66 301.717,665.796 300.949,665.796 z M 300.949,667.219 C 302.422,667.219 303.697,666.894 304.775,666.259 C 305.841,665.635 306.657,664.744 307.213,663.594 C 307.767,662.447 308.045,661.127 308.045,659.656 C 308.045,658.538 307.868,657.501 307.518,656.555 C 307.163,655.618 306.663,654.808 306.016,654.142 C 305.374,653.476 304.617,652.958 303.748,652.612 C 302.879,652.255 301.947,652.078 300.949,652.078 C 299.893,652.078 298.927,652.257 298.054,652.617 C 297.183,652.968 296.43,653.485 295.802,654.147 C 295.169,654.811 294.685,655.612 294.351,656.543 C 294.014,657.485 293.848,658.52 293.848,659.656 C 293.848,660.745 294.014,661.737 294.351,662.664 C 294.685,663.59 295.163,664.391 295.782,665.066 C 296.395,665.736 297.15,666.265 298.04,666.65 C 298.93,667.025 299.902,667.219 300.949,667.219"
       id="path25"
       style="fill:#0081c5;fill-opacity:1;fill-rule:nonzero;stroke:none" /><path
       d="M 312.696,652.37 L 310.763,652.37 L 310.763,666.936 L 318.312,666.936 L 318.312,665.493 L 312.696,665.493 L 312.696,660.6 L 316.642,660.6 L 316.642,659.151 L 312.696,659.151 L 312.696,652.37"
       id="path27"
       style="fill:#0081c5;fill-opacity:1;fill-rule:nonzero;stroke:none" /><path
       d="M 234.472,646.086 L 226.615,624.66 L 224.638,624.66 L 217.623,646.086 L 221.365,646.086 L 226.051,631.122 L 231.229,646.086 L 234.472,646.086"
       id="path29"
       style="fill:#6c0;fill-opacity:1;fill-rule:nonzero;stroke:none" /><path
       d="M 246.078,632.597 L 243.296,640.25 L 240.326,632.597 L 246.078,632.597 z M 239.368,630.119 L 237.312,624.846 L 234.028,624.846 L 242.672,646.157 L 244.849,646.157 L 252.688,624.846 L 248.888,624.846 L 246.983,630.119 L 239.368,630.119"
       id="path31"
       style="fill:#6c0;fill-opacity:1;fill-rule:nonzero;stroke:none" /><path
       d="M 271.024,646.086 L 274.227,646.086 L 274.227,624.846 L 270.995,624.846 L 259.006,640.158 L 259.006,624.846 L 255.807,624.846 L 255.807,646.086 L 258.897,646.086 L 271.024,630.54 L 271.024,646.086"
       id="path33"
       style="fill:#6c0;fill-opacity:1;fill-rule:nonzero;stroke:none" /><path
       d="M 294.502,628.593 L 295.679,626.181 C 294.763,625.647 293.722,625.215 292.561,624.898 C 291.401,624.584 289.949,624.424 288.183,624.424 C 286.591,624.424 285.139,624.714 283.804,625.283 C 282.467,625.852 281.313,626.665 280.327,627.705 C 279.34,628.736 278.59,629.928 278.068,631.268 C 277.55,632.586 277.288,633.999 277.288,635.472 C 277.288,636.951 277.551,638.349 278.077,639.697 C 278.603,641.038 279.354,642.222 280.335,643.25 C 281.318,644.28 282.467,645.077 283.804,645.646 C 285.139,646.22 286.591,646.492 288.183,646.492 C 289.533,646.492 290.67,646.426 291.596,646.249 C 292.525,646.08 293.263,645.877 293.809,645.653 C 294.356,645.437 294.876,645.19 295.37,644.914 L 294.299,642.379 C 293.79,642.621 293.328,642.813 292.911,642.975 C 292.495,643.137 291.904,643.299 291.135,643.456 C 290.373,643.614 289.491,643.681 288.493,643.681 C 287.248,643.681 286.057,643.332 284.924,642.615 C 283.786,641.889 282.881,640.906 282.204,639.645 C 281.53,638.375 281.201,636.996 281.201,635.472 C 281.201,633.946 281.538,632.552 282.229,631.309 C 282.92,630.045 283.839,629.05 284.987,628.327 C 286.127,627.609 287.356,627.243 288.665,627.243 C 290.068,627.243 291.174,627.362 292,627.612 C 292.827,627.841 293.662,628.175 294.502,628.593"
       id="path35"
       style="fill:#6c0;fill-opacity:1;fill-rule:nonzero;stroke:none" /><path
       d="M 308.779,643.824 C 307.74,643.824 306.794,643.629 305.941,643.211 C 305.084,642.798 304.365,642.222 303.763,641.483 C 303.161,640.737 302.698,639.851 302.38,638.82 C 302.064,637.791 301.904,636.677 301.904,635.472 C 301.904,634.299 302.064,633.198 302.38,632.173 C 302.698,631.134 303.165,630.24 303.78,629.483 C 304.391,628.716 305.115,628.133 305.954,627.727 C 306.798,627.309 307.74,627.098 308.779,627.098 C 310.166,627.098 311.377,627.463 312.415,628.167 C 313.442,628.884 314.254,629.882 314.826,631.174 C 315.39,632.452 315.674,633.884 315.674,635.472 C 315.674,636.645 315.514,637.741 315.198,638.764 C 314.883,639.79 314.417,640.682 313.806,641.444 C 313.198,642.199 312.48,642.783 311.635,643.206 C 310.785,643.625 309.831,643.824 308.779,643.824 z M 308.779,646.492 C 310.924,646.492 312.818,646.038 314.477,645.101 C 316.113,644.168 317.361,642.858 318.247,641.196 C 319.135,639.529 319.565,637.618 319.565,635.472 C 319.565,633.812 319.297,632.307 318.737,630.939 C 318.173,629.572 317.385,628.402 316.381,627.433 C 315.412,626.458 314.247,625.714 312.929,625.195 C 311.625,624.686 310.236,624.424 308.779,624.424 C 306.708,624.424 304.858,624.878 303.228,625.782 C 301.59,626.685 300.307,627.965 299.391,629.644 C 298.467,631.326 298.003,633.262 298.003,635.472 C 298.003,637.037 298.268,638.475 298.799,639.831 C 299.33,641.179 300.066,642.342 301.022,643.336 C 301.977,644.327 303.123,645.101 304.46,645.658 C 305.788,646.229 307.231,646.492 308.779,646.492"
       id="path37"
       style="fill:#6c0;fill-opacity:1;fill-rule:nonzero;stroke:none" /><path
       d="M 340.338,646.086 L 340.338,631.914 C 340.338,630.683 340.032,629.502 339.417,628.352 C 338.818,627.21 337.883,626.266 336.577,625.535 C 335.277,624.801 333.694,624.424 331.748,624.424 C 329.939,624.424 328.363,624.734 327.093,625.344 C 325.802,625.956 324.839,626.817 324.169,627.914 C 323.526,629.021 323.201,630.321 323.201,631.803 L 323.201,646.086 L 326.865,646.086 L 326.865,632.19 C 326.865,631.063 327.044,630.139 327.397,629.402 C 327.756,628.662 328.316,628.105 329.089,627.747 C 329.861,627.38 330.832,627.195 332.001,627.195 C 333.105,627.195 334.033,627.426 334.776,627.873 C 335.5,628.342 336.069,628.951 336.447,629.715 C 336.826,630.483 337.012,631.309 337.012,632.19 L 337.012,646.086 L 340.338,646.086"
       id="path39"
       style="fill:#6c0;fill-opacity:1;fill-rule:nonzero;stroke:none" /><path
       d="M 359.945,646.086 L 352.102,624.66 L 350.091,624.66 L 343.082,646.086 L 346.811,646.086 L 351.514,631.122 L 356.703,646.086 L 359.945,646.086"
       id="path41"
       style="fill:#6c0;fill-opacity:1;fill-rule:nonzero;stroke:none" /><path
       d="M 375.553,627.571 L 375.553,624.846 L 362.682,624.846 L 362.682,646.086 L 375.181,646.086 L 375.181,643.363 L 366.346,643.363 L 366.346,637.14 L 372.775,637.14 L 372.775,634.437 L 366.346,634.437 L 366.346,627.571 L 375.553,627.571"
       id="path43"
       style="fill:#6c0;fill-opacity:1;fill-rule:nonzero;stroke:none" /><path
       d="M 382.455,636.909 L 384.401,636.909 C 385.782,636.909 386.848,637.233 387.584,637.917 C 388.324,638.588 388.703,639.379 388.703,640.28 C 388.703,641.228 388.344,642.008 387.641,642.648 C 386.937,643.28 385.863,643.599 384.416,643.599 L 382.455,643.599 L 382.455,636.909 z M 394.733,624.854 L 390.629,624.543 L 384.649,634.415 L 382.455,634.415 L 382.455,624.846 L 378.794,624.846 L 378.794,646.086 L 384.682,646.086 C 386.328,646.086 387.704,645.82 388.87,645.301 C 390.046,644.767 390.899,644.091 391.448,643.255 C 392.01,642.418 392.291,641.545 392.291,640.622 C 392.291,639.287 391.858,638.123 391.011,637.14 C 390.163,636.15 389.229,635.499 388.233,635.205 L 394.733,624.854"
       id="path45"
       style="fill:#6c0;fill-opacity:1;fill-rule:nonzero;stroke:none" /><path
       d="M 249.839,702.796 C 249.839,702.796 233.12,689.07 232.038,669.507 C 232.038,669.507 226.79,687.406 207.01,692.493 C 207.01,692.493 204.233,674.167 224.768,661.261 C 224.768,661.261 202.788,662.894 190,646.568 C 190,646.568 197.269,661.039 216.476,664.575 C 216.476,664.575 203.843,673.687 204.689,694.72 C 204.689,694.72 219.684,694.691 231.071,677.653 C 231.071,677.653 231.456,691.715 249.839,702.796"
       id="path47"
       style="fill:#6c0;fill-opacity:1;fill-rule:nonzero;stroke:none" /><path
       d="M 271.267,686.687 C 271.267,686.687 248.728,685.899 239.665,667.307 C 239.665,667.307 247.865,692.036 230.537,701.659 C 230.537,701.659 215.597,685.832 228.436,666.481 C 228.436,666.481 209.875,680.631 192.523,671.576 C 192.523,671.576 202.743,649.431 230.27,658.418 C 230.27,658.418 202.819,642.334 190.64,672.007 C 190.64,672.007 203.375,684.378 223.505,672.133 C 223.505,672.133 212.613,687.643 229.953,704.06 C 229.953,704.06 248.973,696.877 243.284,676.949 C 243.284,676.949 249.841,687.053 271.267,686.687"
       id="path49"
       style="fill:#0081c5;fill-opacity:1;fill-rule:nonzero;stroke:none" /></g></svg>