<?xml version="1.0" encoding="utf-8"?>
<!-- Generator: Adobe Illustrator 19.1.1, SVG Export Plug-In . SVG Version: 6.00 Build 0)  -->
<svg version="1.1" id="svg2" xmlns:svg="http://www.w3.org/2000/svg"
	 xmlns="http://www.w3.org/2000/svg" xmlns:xlink="http://www.w3.org/1999/xlink" x="0px" y="0px" viewBox="-351 231.5 255.9 99.5"
	 style="enable-background:new -351 231.5 255.9 99.5;" xml:space="preserve">
<style type="text/css">
	.st0{fill:#FFFFFF;}
</style>
<g id="g11" transform="matrix(1.25,0,0,-1.25,-237.5,880.075)">
	<text transform="matrix(0.8 0 0 -0.8 131.7231 -147.8337)" class="st0" style="font-family:'ArialMT'; font-size:10px;">S</text>
	<text transform="matrix(0.8 0 0 -0.8 135.827 -147.8337)" class="st0" style="font-family:'ArialMT'; font-size:10px;">t</text>
	<text transform="matrix(0.8 0 0 -0.8 138.707 -147.8337)" class="st0" style="font-family:'ArialMT'; font-size:10px;">a</text>
	<text transform="matrix(0.8 0 0 -0.8 142.3469 -147.8337)" class="st0" style="font-family:'ArialMT'; font-size:10px;">n</text>
	<text transform="matrix(0.8 0 0 -0.8 146.3551 -147.8337)" class="st0" style="font-family:'ArialMT'; font-size:10px;">d</text>
	<text transform="matrix(0.8 0 0 -0.8 150.6031 -147.8337)" class="st0" style="font-family:'ArialMT'; font-size:10px;">a</text>
	<text transform="matrix(0.8 0 0 -0.8 154.243 -147.8337)" class="st0" style="font-family:'ArialMT'; font-size:10px;">r</text>
	<text transform="matrix(0.8 0 0 -0.8 156.8992 -147.8337)" class="st0" style="font-family:'ArialMT'; font-size:10px;">d</text>
	<text transform="matrix(0.8 0 0 -0.8 161.1469 -147.8337)" class="st0" style="font-family:'ArialMT'; font-size:10px;">s</text>
	<text transform="matrix(0.8 0 0 -0.8 164.3469 -147.8337)" class="st0" style="font-family:'ArialMT'; font-size:10px;"> </text>
	<text transform="matrix(0.8 0 0 -0.8 166.3711 -147.8337)" class="st0" style="font-family:'ArialMT'; font-size:10px;">M</text>
	<text transform="matrix(0.8 0 0 -0.8 172.7231 -147.8337)" class="st0" style="font-family:'ArialMT'; font-size:10px;">a</text>
	<text transform="matrix(0.8 0 0 -0.8 176.3629 -147.8337)" class="st0" style="font-family:'ArialMT'; font-size:10px;">n</text>
	<text transform="matrix(0.8 0 0 -0.8 180.3711 -147.8337)" class="st0" style="font-family:'ArialMT'; font-size:10px;">u</text>
	<text transform="matrix(0.8 0 0 -0.8 184.3312 -147.8337)" class="st0" style="font-family:'ArialMT'; font-size:10px;">a</text>
	<text transform="matrix(0.8 0 0 -0.8 187.9711 -147.8337)" class="st0" style="font-family:'ArialMT'; font-size:10px;">l</text>
	<text transform="matrix(0.8 0 0 -0.8 189.6992 -147.8337)" class="st0" style="font-family:'ArialMT'; font-size:10px;"> </text>
	<text transform="matrix(0.8 0 0 -0.8 191.7231 -147.8337)" class="st0" style="font-family:'ArialMT'; font-size:10px;">•</text>
	<text transform="matrix(0.8 0 0 -0.8 195.2269 -147.8337)" class="st0" style="font-family:'ArialMT'; font-size:10px;"> </text>
	<text transform="matrix(0.8 0 0 -0.8 197.2508 -147.8337)" class="st0" style="font-family:'ArialMT'; font-size:10px;">C</text>
	<text transform="matrix(0.8 0 0 -0.8 202.339 -147.8337)" class="st0" style="font-family:'ArialMT'; font-size:10px;">i</text>
	<text transform="matrix(0.8 0 0 -0.8 204.0671 -147.8337)" class="st0" style="font-family:'ArialMT'; font-size:10px;">t</text>
	<text transform="matrix(0.8 0 0 -0.8 206.9469 -147.8337)" class="st0" style="font-family:'ArialMT'; font-size:10px;">y</text>
	<text transform="matrix(0.8 0 0 -0.8 210.8192 -147.8337)" class="st0" style="font-family:'ArialMT'; font-size:10px;"> </text>
	<text transform="matrix(0.8 0 0 -0.8 212.843 -147.8337)" class="st0" style="font-family:'ArialMT'; font-size:10px;">o</text>
	<text transform="matrix(0.8 0 0 -0.8 217.1313 -147.8337)" class="st0" style="font-family:'ArialMT'; font-size:10px;">f</text>
	<text transform="matrix(0.8 0 0 -0.8 219.3629 -147.8337)" class="st0" style="font-family:'ArialMT'; font-size:10px;"> </text>
	<text transform="matrix(0.8 0 0 -0.8 221.3871 -147.8337)" class="st0" style="font-family:'ArialMT'; font-size:10px;">V</text>
	<text transform="matrix(0.8 0 0 -0.8 225.8992 -147.8337)" class="st0" style="font-family:'ArialMT'; font-size:10px;">a</text>
	<text transform="matrix(0.8 0 0 -0.8 229.5391 -147.8337)" class="st0" style="font-family:'ArialMT'; font-size:10px;">n</text>
	<text transform="matrix(0.8 0 0 -0.8 233.5468 -147.8337)" class="st0" style="font-family:'ArialMT'; font-size:10px;">c</text>
	<text transform="matrix(0.8 0 0 -0.8 237.0508 -147.8337)" class="st0" style="font-family:'ArialMT'; font-size:10px;">o</text>
	<text transform="matrix(0.8 0 0 -0.8 241.339 -147.8337)" class="st0" style="font-family:'ArialMT'; font-size:10px;">u</text>
	<text transform="matrix(0.8 0 0 -0.8 245.2993 -147.8337)" class="st0" style="font-family:'ArialMT'; font-size:10px;">v</text>
	<text transform="matrix(0.8 0 0 -0.8 248.6992 -147.8337)" class="st0" style="font-family:'ArialMT'; font-size:10px;">e</text>
	<text transform="matrix(0.8 0 0 -0.8 252.4672 -147.8337)" class="st0" style="font-family:'ArialMT'; font-size:10px;">r</text>
	<text transform="matrix(0.8 0 0 -0.8 255.123 -147.8337)" class="st0" style="font-family:'ArialMT'; font-size:10px;"> </text>
	<text transform="matrix(0.8 0 0 -0.8 257.1469 -147.8337)" class="st0" style="font-family:'ArialMT'; font-size:10px;">E</text>
	<text transform="matrix(0.8 0 0 -0.8 261.075 -147.8337)" class="st0" style="font-family:'ArialMT'; font-size:10px;">m</text>
	<text transform="matrix(0.8 0 0 -0.8 266.779 -147.8337)" class="st0" style="font-family:'ArialMT'; font-size:10px;">b</text>
	<text transform="matrix(0.8 0 0 -0.8 271.027 -147.8337)" class="st0" style="font-family:'ArialMT'; font-size:10px;">l</text>
	<text transform="matrix(0.8 0 0 -0.8 272.755 -147.8337)" class="st0" style="font-family:'ArialMT'; font-size:10px;">e</text>
	<text transform="matrix(0.8 0 0 -0.8 276.523 -147.8337)" class="st0" style="font-family:'ArialMT'; font-size:10px;">m</text>
	<text transform="matrix(0.8 0 0 -0.8 282.2269 -147.8337)" class="st0" style="font-family:'ArialMT'; font-size:10px;"> </text>
	<text transform="matrix(0.8 0 0 -0.8 290.3231 -147.8337)" class="st0" style="font-family:'ArialMT'; font-size:10px;">2</text>
	<path id="path17" class="st0" d="M-24.4,469.5l0.7-1.2c-0.6-0.4-1.3-0.7-2.1-1c-0.8-0.3-1.8-0.4-3-0.4c-1.1,0-2.1,0.2-3,0.6
		c-0.9,0.4-1.7,1-2.3,1.8c-0.7,0.7-1.1,1.6-1.5,2.4c-0.3,0.9-0.5,1.8-0.5,2.8c0,0.9,0.2,1.9,0.5,2.8c0.3,0.9,0.8,1.7,1.5,2.4
		c0.6,0.7,1.4,1.3,2.3,1.7c0.9,0.4,1.9,0.6,3,0.6c0.9,0,1.6-0.1,2.2-0.2c0.6-0.1,1.1-0.3,1.5-0.4c0.4-0.2,0.7-0.3,1-0.5l-0.6-1.4
		c-0.2,0.1-0.4,0.2-0.6,0.3c-0.2,0.1-0.5,0.2-0.9,0.3c-0.3,0.1-0.7,0.2-1.1,0.3c-0.4,0.1-0.9,0.1-1.5,0.1c-0.7,0-1.4-0.1-2-0.5
		c-0.6-0.3-1.2-0.7-1.7-1.3c-0.5-0.6-0.9-1.2-1.1-1.9c-0.3-0.7-0.4-1.5-0.4-2.4c0-1.1,0.2-2.1,0.7-3.1c0.5-0.9,1.2-1.6,2-2.2
		c0.8-0.5,1.8-0.8,2.8-0.8c1.1,0,1.9,0.1,2.5,0.3C-25.4,468.9-24.9,469.2-24.4,469.5"/>
	<path id="path19" class="st0" d="M-21.6,467.2h1.9v14.6h-1.9V467.2z"/>
	<path id="path21" class="st0" d="M-17.4,480.3v1.4h11.2v-1.4h-4.7v-13.1h-1.9v13.1H-17.4"/>
	<path id="path23" class="st0" d="M4.3,481.8h1.8l-4.7-7.5v-7.1h-1.9v7.1l-4.6,7.5H-3l3.7-6L4.3,481.8"/>
	<path id="path25" class="st0" d="M20.1,480.6c-1,0-1.9-0.2-2.6-0.8c-0.8-0.5-1.3-1.2-1.8-2.2c-0.4-0.9-0.6-2-0.6-3.2
		c0-1.2,0.2-2.3,0.6-3.2c0.4-0.9,1-1.6,1.8-2.2c0.8-0.5,1.6-0.8,2.6-0.8c0.7,0,1.4,0.1,2,0.4c0.6,0.3,1.2,0.7,1.6,1.3
		c0.4,0.5,0.8,1.2,1,1.9c0.2,0.7,0.4,1.6,0.4,2.5c0,0.9-0.1,1.8-0.4,2.5c-0.2,0.8-0.6,1.4-1,1.9c-0.4,0.5-1,1-1.6,1.3
		C21.6,480.5,20.9,480.6,20.1,480.6z M20.1,482.1c1.5,0,2.7-0.3,3.8-1c1.1-0.6,1.9-1.5,2.4-2.7c0.6-1.1,0.8-2.5,0.8-3.9
		c0-1.1-0.2-2.2-0.5-3.1c-0.4-0.9-0.9-1.7-1.5-2.4c-0.6-0.7-1.4-1.2-2.3-1.5c-0.9-0.4-1.8-0.5-2.8-0.5c-1.1,0-2,0.2-2.9,0.5
		c-0.9,0.4-1.6,0.9-2.3,1.5c-0.6,0.7-1.1,1.5-1.5,2.4c-0.3,0.9-0.5,2-0.5,3.1c0,1.1,0.2,2.1,0.5,3c0.3,0.9,0.8,1.7,1.4,2.4
		c0.6,0.7,1.4,1.2,2.3,1.6C18.1,481.9,19.1,482.1,20.1,482.1"/>
	<path id="path27" class="st0" d="M31.9,467.2H30v14.6h7.5v-1.4h-5.6v-4.9h3.9V474h-3.9V467.2"/>
	<path id="path29" class="st0" d="M-46.3,460.9l-7.9-21.4h-2l-7,21.4h3.7l4.7-15l5.2,15H-46.3"/>
	<path id="path31" class="st0" d="M-34.7,447.4l-2.8,7.7l-3-7.7H-34.7z M-41.4,445l-2.1-5.3h-3.3l8.6,21.3h2.2l7.8-21.3h-3.8
		l-1.9,5.3H-41.4"/>
	<path id="path33" class="st0" d="M-9.8,460.9h3.2v-21.2h-3.2l-12,15.3v-15.3H-25v21.2h3.1l12.1-15.5V460.9"/>
	<path id="path35" class="st0" d="M13.7,443.4l1.2-2.4c-0.9-0.5-2-1-3.1-1.3c-1.2-0.3-2.6-0.5-4.4-0.5c-1.6,0-3,0.3-4.4,0.9
		c-1.3,0.6-2.5,1.4-3.5,2.4c-1,1-1.7,2.2-2.3,3.6c-0.5,1.3-0.8,2.7-0.8,4.2c0,1.5,0.3,2.9,0.8,4.2c0.5,1.3,1.3,2.5,2.3,3.6
		c1,1,2.1,1.8,3.5,2.4c1.3,0.6,2.8,0.8,4.4,0.8c1.3,0,2.5-0.1,3.4-0.2c0.9-0.2,1.7-0.4,2.2-0.6c0.5-0.2,1.1-0.5,1.6-0.7l-1.1-2.5
		c-0.5,0.2-1,0.4-1.4,0.6c-0.4,0.2-1,0.3-1.8,0.5c-0.8,0.2-1.6,0.2-2.6,0.2c-1.2,0-2.4-0.3-3.6-1.1c-1.1-0.7-2-1.7-2.7-3
		c-0.7-1.3-1-2.6-1-4.2c0-1.5,0.3-2.9,1-4.2c0.7-1.3,1.6-2.3,2.8-3c1.1-0.7,2.4-1.1,3.7-1.1c1.4,0,2.5,0.1,3.3,0.4
		C12,442.7,12.9,443,13.7,443.4"/>
	<path id="path37" class="st0" d="M28,458.7c-1,0-2-0.2-2.8-0.6c-0.9-0.4-1.6-1-2.2-1.7c-0.6-0.7-1.1-1.6-1.4-2.7
		c-0.3-1-0.5-2.1-0.5-3.3c0-1.2,0.2-2.3,0.5-3.3c0.3-1,0.8-1.9,1.4-2.7c0.6-0.8,1.3-1.3,2.2-1.8c0.8-0.4,1.8-0.6,2.8-0.6
		c1.4,0,2.6,0.4,3.6,1.1c1,0.7,1.8,1.7,2.4,3c0.6,1.3,0.8,2.7,0.8,4.3c0,1.2-0.2,2.3-0.5,3.3c-0.3,1-0.8,1.9-1.4,2.7
		c-0.6,0.8-1.3,1.3-2.2,1.8C30,458.5,29,458.7,28,458.7z M28,461.3c2.1,0,4-0.5,5.7-1.4c1.6-0.9,2.9-2.2,3.8-3.9
		c0.9-1.7,1.3-3.6,1.3-5.7c0-1.7-0.3-3.2-0.8-4.5c-0.6-1.4-1.4-2.5-2.4-3.5c-1-1-2.1-1.7-3.5-2.2c-1.3-0.5-2.7-0.8-4.1-0.8
		c-2.1,0-3.9,0.5-5.6,1.4c-1.6,0.9-2.9,2.2-3.8,3.9c-0.9,1.7-1.4,3.6-1.4,5.8c0,1.6,0.3,3,0.8,4.4c0.5,1.3,1.3,2.5,2.2,3.5
		c1,1,2.1,1.8,3.4,2.3C25,461.1,26.4,461.3,28,461.3"/>
	<path id="path39" class="st0" d="M59.5,460.9v-14.2c0-1.2-0.3-2.4-0.9-3.6c-0.6-1.1-1.5-2.1-2.8-2.8c-1.3-0.7-2.9-1.1-4.8-1.1
		c-1.8,0-3.4,0.3-4.7,0.9c-1.3,0.6-2.3,1.5-2.9,2.6c-0.6,1.1-1,2.4-1,3.9v14.3h3.7V447c0-1.1,0.2-2.1,0.5-2.8
		c0.4-0.7,0.9-1.3,1.7-1.7c0.8-0.4,1.7-0.6,2.9-0.6c1.1,0,2,0.2,2.8,0.7c0.7,0.5,1.3,1.1,1.7,1.8c0.4,0.8,0.6,1.6,0.6,2.5v13.9H59.5
		"/>
	<path id="path41" class="st0" d="M79.1,460.9l-7.8-21.4h-2l-7,21.4H66l4.7-15l5.2,15H79.1"/>
	<path id="path43" class="st0" d="M94.8,442.4v-2.7H81.9v21.2h12.5v-2.7h-8.8V452H92v-2.7h-6.4v-6.9H94.8"/>
	<path id="path45" class="st0" d="M101.7,451.7h1.9c1.4,0,2.4,0.3,3.2,1c0.7,0.7,1.1,1.5,1.1,2.4c0,0.9-0.4,1.7-1.1,2.4
		c-0.7,0.6-1.8,1-3.2,1h-2V451.7z M113.9,439.7l-4.1-0.3l-6,9.9h-2.2v-9.6H98v21.2h5.9c1.6,0,3-0.3,4.2-0.8c1.2-0.5,2-1.2,2.6-2
		c0.6-0.8,0.8-1.7,0.8-2.6c0-1.3-0.4-2.5-1.3-3.5c-0.8-1-1.8-1.6-2.8-1.9L113.9,439.7"/>
	<path id="path47" class="st0" d="M-31,517.6c0,0-16.7-13.7-17.8-33.3c0,0-5.2,17.9-25,23c0,0-2.8-18.3,17.8-31.2
		c0,0-22,1.6-34.8-14.7c0,0,7.3,14.5,26.5,18c0,0-12.6,9.1-11.8,30.1c0,0,15,0,26.4-17.1C-49.7,492.5-49.3,506.6-31,517.6"/>
	<path id="path49" class="st0" d="M-9.5,501.5c0,0-22.5-0.8-31.6-19.4c0,0,8.2,24.7-9.1,34.4c0,0-14.9-15.8-2.1-35.2
		c0,0-18.6,14.1-35.9,5.1c0,0,10.2-22.1,37.7-13.2c0,0-27.5-16.1-39.6,13.6c0,0,12.7,12.4,32.9,0.1c0,0-10.9,15.5,6.4,31.9
		c0,0,19-7.2,13.3-27.1C-37.5,491.8-31,501.9-9.5,501.5"/>
</g>
</svg>
