<?xml version="1.0" encoding="utf-8"?>
<!-- Generator: Adobe Illustrator 16.0.0, SVG Export Plug-In . SVG Version: 6.00 Build 0)  -->
<!DOCTYPE svg PUBLIC "-//W3C//DTD SVG 1.1//EN" "http://www.w3.org/Graphics/SVG/1.1/DTD/svg11.dtd">
<svg version="1.1" xmlns="http://www.w3.org/2000/svg" xmlns:xlink="http://www.w3.org/1999/xlink" x="0px" y="0px" width="216px"
	 height="202px" viewBox="0 0 216 202" enable-background="new 0 0 216 202" xml:space="preserve">
<g id="Layer_4" display="none">
</g>
<g id="Layer_5" display="none">
	<g display="inline">
		<g>
			<path fill="#FFFFFF" d="M420.958,169.189c0,97.019-116.639,175.672-260.52,175.672c-143.885,0-260.522-78.653-260.522-175.672
				c0-97.023,116.638-175.672,260.522-175.672C304.319-6.483,420.958,72.166,420.958,169.189z"/>
			<g>
			</g>
		</g>
		<path fill="#5D7A1E" d="M229,32.727C229,37.17,223.389,40,214.965,40H84.02C75.593,40,68,37.17,68,32.727v-1.342
			C68,26.941,75.593,22,84.02,22h130.945C223.389,22,229,26.941,229,31.385V32.727z"/>
		<g>
			<path fill="#5D7A1E" d="M236.724-55.355c0,48.636-39.43,88.067-88.067,88.067c-48.636,0-88.065-39.431-88.065-88.067
				c0-48.635,39.43-88.065,88.065-88.065C197.294-143.421,236.724-103.99,236.724-55.355z"/>
			<circle fill="#FFFFFF" cx="148.913" cy="-55.611" r="81.173"/>
			<rect x="120.327" y="-101.555" fill="none" width="91.888" height="81.167"/>
			<text transform="matrix(1 0 0 1 120.3281 -21.8125)" fill="#5D7A1E" font-family="'MyriadPro-Regular'" font-size="112.3145">$</text>
		</g>
	</g>
</g>
<g id="Layer_6" display="none">
</g>
<g id="Layer_9" display="none">
</g>
<g id="Layer_7" display="none">
</g>
<g id="Layer_8" display="none">
	<g display="inline">
		<g>
			<g>
				<path fill="#FFFFFF" d="M203.207,151.793c0.381,2.908-0.508,5.436-2.654,7.588l-25.234,25.041
					c-1.137,1.264-2.621,2.34-4.457,3.225c-1.832,0.887-3.637,1.455-5.404,1.707c-0.127,0-0.508,0.033-1.141,0.096
					c-0.631,0.064-1.455,0.096-2.465,0.096c-2.404,0-6.293-0.412-11.67-1.232c-5.373-0.824-11.949-2.848-19.727-6.072
					c-7.781-3.225-16.604-8.063-26.469-14.512c-9.861-6.449-20.361-15.305-31.49-26.561c-8.854-8.727-16.189-17.074-22.006-25.043
					c-5.82-7.967-10.5-15.335-14.041-22.101s-6.195-12.9-7.967-18.402s-2.971-10.246-3.605-14.229
					c-0.632-3.984-0.885-7.115-0.758-9.393c0.126-2.275,0.188-3.539,0.188-3.793c0.255-1.77,0.823-3.574,1.708-5.406
					c0.886-1.834,1.96-3.32,3.226-4.459L54.473,13.11c1.771-1.77,3.795-2.655,6.071-2.655c1.646,0,3.099,0.474,4.362,1.423
					c1.266,0.947,2.341,2.118,3.226,3.51L88.43,53.899c1.139,2.023,1.455,4.238,0.949,6.641c-0.504,2.402-1.58,4.426-3.225,6.07
					l-9.297,9.295c-0.252,0.254-0.473,0.666-0.664,1.234c-0.189,0.568-0.283,1.043-0.283,1.422c0.508,2.656,1.645,5.691,3.414,9.107
					c1.518,3.035,3.859,6.734,7.02,11.098c3.162,4.364,7.654,9.392,13.469,15.083c5.693,5.818,10.752,10.338,15.178,13.564
					c4.428,3.223,8.127,5.596,11.098,7.113c2.975,1.52,5.25,2.436,6.83,2.75l2.371,0.475c0.252,0,0.666-0.096,1.234-0.285
					c0.57-0.189,0.979-0.41,1.234-0.664l10.813-11.002c2.277-2.025,4.932-3.035,7.969-3.035c2.15,0,3.855,0.377,5.121,1.139h0.191
					l36.611,21.627C201.121,147.176,202.703,149.262,203.207,151.793z"/>
			</g>
		</g>
		<path fill="none" stroke="#5D7A1E" stroke-width="3" stroke-miterlimit="10" d="M41.824,104.47c0,0,7.143-17.053,35.531-21.279"/>
		<path fill="none" stroke="#5D7A1E" stroke-width="3" stroke-miterlimit="10" d="M106.604,170.392c0,0,17.186-6.815,21.952-35.119"
			/>
	</g>
</g>
<g id="Layer_19">
	<g>
		<path fill="#FFFFFF" d="M109.364,113.06l81.574-78.225c-4.183-2.053-9.565-3.419-16.677-3.419c-31.811,0-133.868,0-133.868,0
			s-5.747,0.014-12.149,2.689L109.364,113.06z"/>
		<path fill="#FFFFFF" d="M115.526,131.991c-1.736,1.658-3.971,2.488-6.201,2.488c-2.259,0-4.518-0.845-6.249-2.538L14.841,46.058
			c-2.173,4.067-3.603,9.195-3.603,15.841c0,30.485,1.325,108.686,1.325,108.686h192.193V57.922c0,0,0.187-4.517-1.774-9.807
			L115.526,131.991z"/>
	</g>
</g>
<g id="Layer_10" display="none">
	<g display="inline">
		<g>
			<polygon fill="#B2D362" points="56.203,144.364 -59.436,144.364 -10.377,192.314 -132.949,297.247 -216.164,226.784 
				-347.932,334.848 -347.932,381.533 -216.164,273.472 -132.949,343.927 15.104,217.199 56.203,257.384 			"/>
		</g>
		<polygon fill="#B2D362" points="-373.472,114.187 -373.472,507.821 86.57,507.821 86.57,487.909 -354.996,487.909 
			-354.996,114.187 		"/>
	</g>
</g>
<g id="Layer_11" display="none">
</g>
<g id="Layer_12" display="none">
	<g display="inline">
		<g>
			<g>
				<rect x="-513" y="-25" fill="#5D7A1E" width="963" height="690"/>
			</g>
		</g>
		<g>
			<rect x="-109" y="72" fill="#AABEC1" width="529" height="261"/>
			<rect x="-12" y="186" fill="#889799" width="340" height="149"/>
			<g>
				<rect x="-15" y="184" fill="#997648" width="340" height="149"/>
			</g>
			<rect x="-113" y="3" fill="#AABEC1" width="533" height="138"/>
		</g>
	</g>
</g>
<g id="Layer_15" display="none">
	<g display="inline">
		<rect x="-258" y="-200" fill="#87B6C1" width="837" height="628"/>
		<rect x="-226" y="-200" fill="#AABEC1" width="314" height="628"/>
		<g>
			<g>
				<rect x="-86.5" y="198.5" fill="#7C5E32" stroke="#B79E7D" stroke-width="7" stroke-miterlimit="10" width="129" height="41"/>
				<rect x="-1" y="190" fill="#91918B" width="19" height="15"/>
			</g>
		</g>
		<rect x="88" y="-200" fill="#598C91" width="33" height="628"/>
		<g>
		</g>
		<rect x="104" y="2" fill="#7C7C7B" width="477" height="12"/>
		<rect x="-228" y="-41" fill="#D8D8D8" width="271" height="200"/>
	</g>
</g>
<g id="Layer_13" display="none">
	<g display="inline">
		<rect x="-258" y="-200" fill="#AABEC1" width="833" height="641"/>
		<g>
			<rect x="-108" y="190" fill="#997648" width="541" height="237"/>
		</g>
	</g>
</g>
<g id="Layer_14" display="none">
	<g display="inline">
		<rect x="-258" y="-200" fill="#AABEC1" width="833" height="628"/>
		<g>
			<g>
				<rect x="-62" y="176" fill="#997648" width="391" height="250"/>
				<rect x="-55" y="182" fill="#D3B184" width="174" height="52"/>
				<rect x="5" y="202" fill="#7C5E32" width="59" height="9"/>
				<path fill="#7C7C7B" d="M-137,174v-8.29c0-0.401,2.316-0.71,4.76-0.71H9.407c2.444,0,4.593,0.309,4.593,0.71V174"/>
				<rect x="131" y="185" fill="#FFFFFF" width="189" height="230"/>
				<rect x="148" y="191" fill="#D8D8D8" width="157" height="38"/>
				<rect x="124" y="147" fill="#D8D8D8" width="199" height="29"/>
				<rect x="187" y="156" fill="#5D5D5D" width="78" height="17"/>
				<circle fill="#5D5D5D" cx="166.181" cy="207.749" r="10.015"/>
				<circle fill="#5D5D5D" cx="201.18" cy="207.749" r="10.014"/>
			</g>
		</g>
	</g>
</g>
<g id="Layer_16" display="none">
	<rect x="-258" y="-200" display="inline" fill="#AABEC1" width="833" height="629"/>
	<g display="inline">
		<rect x="106" y="162" fill="#4C4A4B" width="31" height="68"/>
		<rect x="106" y="162" fill="#4C4A4B" width="54" height="39"/>
		<rect x="53" y="143" fill="#4C4A4B" width="30" height="87"/>
		<rect x="32" y="143" fill="#4C4A4B" width="51" height="52"/>
		<g>
		</g>
	</g>
</g>
<g id="Layer_17" display="none">
	<g display="inline">
		<g>
			<g>
			</g>
			<g>
				<path fill="#AABEC1" d="M51,93.735c-17.06,0-31,9.788-31,21.862v100.667c0,12.075,13.94,21.863,31,21.863s31-9.788,31-21.863
					V115.597C82,103.523,68.06,93.735,51,93.735z"/>
				<path fill="#AABEC1" d="M82.986,207c0-17.06-11.761-31-26.268-31H-64.232C-78.74,176-90.5,189.94-90.5,207
					c0,17.061,11.76,31,26.268,31H56.719C71.226,238,82.986,224.061,82.986,207z"/>
				<g>
					<polyline fill="#AABEC1" points="412,241 92,241 92,82 					"/>
					<g>
						<path fill="#AABEC1" d="M93,82h262.807C386.988,82,412,107.752,412,138.934V241"/>
					</g>
				</g>
				<g>
					<circle fill="#AABEC1" cx="-39.606" cy="115.739" r="55.739"/>
				</g>
			</g>
		</g>
		<g>
			<path fill="#AABEC1" d="M68.271-146C-5.609-146-65.5-105.396-65.5-55.308c0,33.012,26.021,61.902,64.911,77.765L8.997,60
				l15.479-29.594c13.723,3.222,28.455,4.978,43.794,4.978c73.879,0,133.771-40.604,133.771-90.692
				C202.041-105.396,142.149-146,68.271-146z"/>
		</g>
	</g>
</g>
<g id="Layer_18" display="none">
	
		<polyline display="inline" fill="none" stroke="#5D7A1E" stroke-width="11" stroke-linecap="round" stroke-linejoin="round" stroke-miterlimit="10" points="
		-146.5,294 -146.5,147.5 -19.5,147.5 -19.5,294.511 0.018,226 34.092,294.511 50.743,250.994 100.702,294.5 465,294.5 	"/>
	<path display="inline" fill="#5D7A1E" d="M6.411,136.392l-11.696-7.748v-24.36c0-1.916-1.743-3.464-3.896-3.464h-19.579
		c-2.15,0-3.896,1.548-3.896,3.464l-0.182,6.123L-78.739,80.03c-1.663-1.102-3.62-1.411-5.438-1.025
		c-1.806-0.386-3.758-0.076-5.429,1.025l-85.151,56.362c-3.291,2.18-4.193,6.613-2.016,9.901c2.177,3.295,6.612,4.197,9.907,2.019
		l82.688-54.732l82.703,54.732c3.288,2.179,7.728,1.276,9.91-2.019C10.608,143.005,9.708,138.572,6.411,136.392z"/>
	<path display="inline" fill="#5D7A1E" d="M4.554,13.443c0,0,2.909,8.796-12.28,18.288c-32.393,20.271-22.793,42.711-14.34,67.755
		c-1.488-9.392,1.441-16.567,4.069-22.634c3.04-6.542,6.434-11.905,8.952-16.605c5.45-9.15,6.029-16.331,5.935-16.371
		c0.103-0.047,1.041,7.836-3.065,18.047c-1.826,5.164-4.521,11.008-6.933,17.668c-1.896,5.496-3.855,11.698-3.303,18.6
		C47.764,60.898,4.554,13.443,4.554,13.443z"/>
</g>
</svg>
