<?xml version="1.0" encoding="utf-8"?>
<!-- Generator: Adobe Illustrator 16.0.0, SVG Export Plug-In . SVG Version: 6.00 Build 0)  -->
<!DOCTYPE svg PUBLIC "-//W3C//DTD SVG 1.1//EN" "http://www.w3.org/Graphics/SVG/1.1/DTD/svg11.dtd">
<svg version="1.1" id="Layer_1" xmlns="http://www.w3.org/2000/svg" xmlns:xlink="http://www.w3.org/1999/xlink" x="0px" y="0px"
	 width="468px" height="398.321px" viewBox="10 42.5 468 398.321" enable-background="new 10 42.5 468 398.321"
	 xml:space="preserve">
<g id="Layer_1_1_" display="none">
	<g display="inline">
		<g>
			
				<ellipse transform="matrix(-0.1238 -0.9923 0.9923 -0.1238 124.99 240.7782)" fill="#2B2A2A" cx="168.798" cy="65.207" rx="209.015" ry="201.773"/>
			<g>
				<polygon fill="#2B2A2A" points="295.373,-38.751 332.624,6.031 352.811,-48.644 372.98,-103.306 315.557,-93.418 
					258.128,-83.531 				"/>
				<polygon fill="#2B2A2A" points="201.412,223.367 144.705,236.672 184.58,279.129 224.457,321.585 241.289,265.824 
					258.12,210.062 				"/>
				<polygon fill="#2B2A2A" points="104.688,220.739 50.549,199.25 58.996,256.915 67.45,314.563 113.137,278.396 158.826,242.227 
									"/>
				<polygon fill="#2B2A2A" points="49.434,164.812 16.409,116.831 -8.663,169.443 -33.717,222.046 24.371,217.418 82.458,212.791 
									"/>
				<polygon fill="#2B2A2A" points="340.533,184.871 320.23,130.274 283.064,175.169 245.918,220.056 303.378,229.761 
					360.833,239.468 				"/>
				<polygon fill="#2B2A2A" points="320.785,110.986 317.014,169.11 369.234,143.313 421.459,117.517 373.008,85.189 324.557,52.86 
									"/>
				<polygon fill="#2B2A2A" points="363.32,-15.619 309.044,-36.77 317.852,20.843 326.666,78.437 372.128,41.984 417.59,5.533 				
					"/>
				<polygon fill="#2B2A2A" points="22.045,102.018 38.689,157.835 -17.971,144.338 -74.633,130.844 -34.618,88.521 5.401,46.199 
									"/>
				<polygon fill="#2B2A2A" points="-30.587,-23.876 22.474,-47.907 16.771,10.095 11.057,68.079 -36.295,34.117 -83.646,0.155 				
					"/>
			</g>
		</g>
		
			<line fill="none" stroke="#1E1E1E" stroke-width="10" stroke-miterlimit="10" x1="-32.472" y1="73.508" x2="369.053" y2="58.737"/>
		<g>
			
				<ellipse transform="matrix(-0.0447 -0.999 0.999 -0.0447 -45.1175 62.3371)" fill="#1E1E1E" cx="7.246" cy="52.74" rx="8.624" ry="7.905"/>
			
				<ellipse transform="matrix(-0.0446 -0.999 0.999 -0.0446 -22.7274 83.1754)" fill="#1E1E1E" cx="28.409" cy="52.456" rx="8.625" ry="7.905"/>
			
				<ellipse transform="matrix(-0.0447 -0.999 0.999 -0.0447 -0.3207 104.0293)" fill="#1E1E1E" cx="49.579" cy="52.168" rx="8.624" ry="7.905"/>
			
				<ellipse transform="matrix(-0.0446 -0.999 0.999 -0.0446 22.6901 124.1551)" fill="#1E1E1E" cx="70.712" cy="51.228" rx="8.625" ry="7.905"/>
			
				<ellipse transform="matrix(-0.0446 -0.999 0.999 -0.0446 45.0858 145.0036)" fill="#1E1E1E" cx="91.879" cy="50.943" rx="8.625" ry="7.905"/>
		</g>
		<g>
			
				<ellipse transform="matrix(-0.0475 -0.9989 0.9989 -0.0475 69.3457 167.926)" fill="#1E1E1E" cx="114.738" cy="50.9" rx="8.625" ry="7.906"/>
			
				<ellipse transform="matrix(-0.0475 -0.9989 0.9989 -0.0475 92.4869 187.9856)" fill="#1E1E1E" cx="135.873" cy="49.896" rx="8.624" ry="7.905"/>
			
				<ellipse transform="matrix(-0.0476 -0.9989 0.9989 -0.0476 115.0366 208.7627)" fill="#1E1E1E" cx="157.043" cy="49.539" rx="8.625" ry="7.905"/>
			
				<ellipse transform="matrix(-0.0475 -0.9989 0.9989 -0.0475 137.5214 229.5455)" fill="#1E1E1E" cx="178.205" cy="49.204" rx="8.624" ry="7.905"/>
			
				<ellipse transform="matrix(-0.0476 -0.9989 0.9989 -0.0476 160.6988 249.5967)" fill="#1E1E1E" cx="199.344" cy="48.185" rx="8.625" ry="7.906"/>
			
				<ellipse transform="matrix(-0.0475 -0.9989 0.9989 -0.0475 183.1803 270.3833)" fill="#1E1E1E" cx="220.506" cy="47.853" rx="8.625" ry="7.906"/>
		</g>
		<g>
			
				<ellipse transform="matrix(-0.0446 -0.999 0.999 -0.0446 -79.3394 103.5304)" fill="#1E1E1E" cx="9.837" cy="89.704" rx="8.624" ry="7.905"/>
			
				<ellipse transform="matrix(-0.0447 -0.999 0.999 -0.0447 -56.9326 124.3906)" fill="#1E1E1E" cx="31.009" cy="89.417" rx="8.625" ry="7.905"/>
			
				<ellipse transform="matrix(-0.0446 -0.999 0.999 -0.0446 -34.5483 145.2283)" fill="#1E1E1E" cx="52.169" cy="89.134" rx="8.624" ry="7.905"/>
			
				<ellipse transform="matrix(-0.0447 -0.999 0.999 -0.0447 -11.5079 165.3666)" fill="#1E1E1E" cx="73.313" cy="88.186" rx="8.625" ry="7.905"/>
			
				<ellipse transform="matrix(-0.0446 -0.999 0.999 -0.0446 10.8751 186.2065)" fill="#1E1E1E" cx="94.476" cy="87.903" rx="8.625" ry="7.905"/>
		</g>
		<g>
			
				<ellipse transform="matrix(-0.0475 -0.9989 0.9989 -0.0475 35.1391 209.2379)" fill="#1E1E1E" cx="117.332" cy="87.865" rx="8.625" ry="7.905"/>
			
				<ellipse transform="matrix(-0.0475 -0.9989 0.9989 -0.0475 58.2799 229.2957)" fill="#1E1E1E" cx="138.466" cy="86.861" rx="8.625" ry="7.905"/>
			
				<ellipse transform="matrix(-0.0476 -0.9989 0.9989 -0.0476 80.8349 250.0802)" fill="#1E1E1E" cx="159.64" cy="86.503" rx="8.625" ry="7.905"/>
			
				<ellipse transform="matrix(-0.0475 -0.9989 0.9989 -0.0475 103.3157 270.8566)" fill="#1E1E1E" cx="180.799" cy="86.169" rx="8.624" ry="7.905"/>
			
				<ellipse transform="matrix(-0.0475 -0.9989 0.9989 -0.0475 126.4602 290.9159)" fill="#1E1E1E" cx="201.935" cy="85.163" rx="8.624" ry="7.906"/>
			
				<ellipse transform="matrix(-0.0475 -0.9989 0.9989 -0.0475 148.9747 311.6955)" fill="#1E1E1E" cx="223.101" cy="84.818" rx="8.625" ry="7.906"/>
		</g>
		<g>
			
				<ellipse transform="matrix(-0.0475 -0.9989 0.9989 -0.0475 208.4685 292.5984)" fill="#1E1E1E" cx="243.742" cy="46.904" rx="8.625" ry="7.905"/>
			
				<ellipse transform="matrix(-0.0475 -0.9989 0.9989 -0.0475 231.6101 312.6577)" fill="#1E1E1E" cx="264.876" cy="45.9" rx="8.624" ry="7.906"/>
			
				<ellipse transform="matrix(-0.0476 -0.9989 0.9989 -0.0476 254.1669 333.4225)" fill="#1E1E1E" cx="286.047" cy="45.534" rx="8.625" ry="7.905"/>
			
				<ellipse transform="matrix(-0.0476 -0.9989 0.9989 -0.0476 276.6623 354.2196)" fill="#1E1E1E" cx="307.209" cy="45.208" rx="8.624" ry="7.905"/>
			
				<ellipse transform="matrix(-0.0476 -0.9989 0.9989 -0.0476 299.8518 374.2581)" fill="#1E1E1E" cx="328.348" cy="44.179" rx="8.625" ry="7.907"/>
			
				<ellipse transform="matrix(-0.0475 -0.9989 0.9989 -0.0475 322.3041 395.055)" fill="#1E1E1E" cx="349.51" cy="43.856" rx="8.625" ry="7.907"/>
		</g>
		<g>
			
				<ellipse transform="matrix(-0.0475 -0.9989 0.9989 -0.0475 174.6502 334.352)" fill="#1E1E1E" cx="246.741" cy="83.905" rx="8.625" ry="7.905"/>
			
				<ellipse transform="matrix(-0.0475 -0.9989 0.9989 -0.0475 197.7926 354.4122)" fill="#1E1E1E" cx="267.875" cy="82.901" rx="8.624" ry="7.905"/>
			
				<ellipse transform="matrix(-0.0476 -0.9989 0.9989 -0.0476 220.3685 375.1849)" fill="#1E1E1E" cx="289.048" cy="82.535" rx="8.625" ry="7.906"/>
			
				<ellipse transform="matrix(-0.0474 -0.9989 0.9989 -0.0474 242.8093 395.9684)" fill="#1E1E1E" cx="310.208" cy="82.209" rx="8.624" ry="7.905"/>
			
				<ellipse transform="matrix(-0.0476 -0.9989 0.9989 -0.0476 266.0369 416.0194)" fill="#1E1E1E" cx="331.35" cy="81.18" rx="8.626" ry="7.907"/>
			
				<ellipse transform="matrix(-0.0476 -0.9989 0.9989 -0.0476 288.5065 436.8137)" fill="#1E1E1E" cx="352.51" cy="80.858" rx="8.625" ry="7.905"/>
		</g>
	</g>
</g>
<g id="Layer_2" display="none">
	<rect x="70" y="-200" display="inline" fill="#DDB63A" width="200" height="288"/>
	<path display="inline" fill="#1E1E1E" d="M277,93c0,3.279-2.12,6-4.734,6H66.736C64.121,99,62,96.279,62,93l0,0
		c0-3.278,2.121-6,4.736-6h205.53C274.88,87,277,89.722,277,93L277,93z"/>
	<path display="inline" fill="#1E1E1E" d="M277,34c0,3.279-2.102,6-4.691,6H68.691C66.101,40,64,37.279,64,34l0,0
		c0-3.278,2.101-6,4.691-6h203.618C274.898,28,277,30.722,277,34L277,34z"/>
	<g display="inline">
		<circle fill="#1E1E1E" cx="170.297" cy="-56.217" r="58.202"/>
	</g>
</g>
<g id="Layer_3" display="none">
	<path display="inline" fill="#4DAD6A" d="M135.332,377.95c0,0,4.232,116.072-54.219,131.54c0,0,32.347,5.576,75.365-33.809
		c0,0,32.202-33.548,38.149-59.083c0,0,8.11-26.701-3.253-42.897C180.011,357.505,135.332,377.95,135.332,377.95z"/>
	<ellipse display="inline" fill="#4DAD6A" cx="50.592" cy="387.874" rx="69.996" ry="79.634"/>
	<ellipse display="inline" fill="#4DAD6A" cx="266.592" cy="396.874" rx="69.996" ry="79.634"/>
	<ellipse display="inline" fill="#4DAD6A" cx="300.088" cy="166.874" rx="85.492" ry="79.634"/>
	<ellipse display="inline" fill="#4DAD6A" cx="22.595" cy="168.874" rx="83.993" ry="79.634"/>
	<g display="inline">
		<ellipse fill="#4DAD6A" cx="158.592" cy="48.874" rx="69.996" ry="79.634"/>
		<g>
			<polygon fill="#51514F" points="224.194,15.796 230.217,3.291 216.89,-16.189 203.989,-13.741 			"/>
			<polygon fill="#1C1C1C" points="221.399,31.074 230.721,11.713 210.091,-18.445 190.119,-14.654 			"/>
		</g>
		<g>
			<polygon fill="#51514F" points="93.646,18.796 87.623,6.291 100.95,-13.189 113.851,-10.741 			"/>
			<polygon fill="#1C1C1C" points="96.44,34.074 87.119,14.713 107.749,-15.445 127.721,-11.654 			"/>
		</g>
	</g>
	<g display="inline">
		<path fill="#CCAB5A" d="M359.578,240.035c0,122.073-88.645,221.034-197.99,221.034c-109.347,0-197.99-98.961-197.99-221.034
			C-36.402,117.961,52.241,70,161.588,70C270.936,70,359.578,117.961,359.578,240.035z"/>
		<path fill="#93684C" d="M343.48,241.822c0,111.87-81.234,202.56-181.441,202.56c-100.208,0-181.441-90.688-181.441-202.56
			S61.832,86,162.039,86S343.48,129.952,343.48,241.822z"/>
		
			<rect x="51.008" y="74.999" transform="matrix(-0.9382 0.346 -0.346 -0.9382 187.9086 195.4616)" fill="#1E1E1E" width="51.003" height="79.005"/>
		
			<rect x="215.992" y="72.981" transform="matrix(0.9382 0.346 -0.346 0.9382 53.8313 -76.6052)" fill="#1E1E1E" width="51.003" height="79.005"/>
	</g>
	
		<rect x="241.972" y="282.851" transform="matrix(0.5902 -0.8073 0.8073 0.5902 -168.598 357.1621)" display="inline" fill="#1E1E1E" width="51.002" height="123.567"/>
	
		<rect x="31.987" y="282.848" transform="matrix(0.5902 0.8073 -0.8073 0.5902 301.7705 94.8281)" display="inline" fill="#1E1E1E" width="51.001" height="123.568"/>
	<g display="inline">
		<rect x="67" y="117" fill="#1E1E1E" width="178" height="243"/>
		<rect x="63" y="89" fill="#1E1E1E" width="40" height="64"/>
		<rect x="103" y="104" fill="#1E1E1E" width="19" height="55"/>
		<rect x="59" y="153" fill="#B7A763" width="40" height="96"/>
		<rect x="129" y="104" fill="#B7A763" width="69" height="77"/>
		<rect x="138" y="98" fill="#B7A763" width="51" height="34"/>
		<circle fill="#31604E" cx="202.821" cy="253.969" r="22.238"/>
		<circle fill="#B7A763" cx="83.056" cy="103.391" r="6.542"/>
		<circle fill="#B7A763" cx="83.056" cy="131.296" r="6.542"/>
		<rect x="203" y="110" fill="#B7A763" width="51" height="57"/>
		<rect x="99" y="138" fill="#5B5A57" width="30" height="101"/>
		<rect x="89" y="154" fill="#B7A763" width="51" height="11"/>
		<rect x="95" y="189" fill="#B7A763" width="34" height="10"/>
		<rect x="135" y="138" fill="#B55848" width="57" height="33"/>
		<circle fill="#B7A763" cx="202.631" cy="253.778" r="11.002"/>
		<rect x="67" y="250" fill="#31604E" width="78" height="29"/>
		<circle fill="#31604E" cx="155.274" cy="353.001" r="82.844"/>
		
			<ellipse transform="matrix(-0.6298 -0.7767 0.7767 -0.6298 -40.7314 609.8697)" fill="#214737" cx="124.959" cy="314.641" rx="24.933" ry="19.271"/>
		<rect x="59" y="345" fill="#214737" width="195" height="29"/>
		<rect x="131" y="332" fill="#214737" width="50" height="57"/>
		
			<ellipse transform="matrix(-0.6299 0.7767 -0.7767 -0.6299 549.9267 368.3861)" fill="#214737" cx="187.191" cy="315.22" rx="24.935" ry="19.272"/>
		<circle fill="#214737" cx="89.739" cy="264.723" r="10.608"/>
		<circle fill="#214737" cx="121.715" cy="264.723" r="10.608"/>
		<g>
			<rect x="255" y="317" fill="#B7A763" width="5" height="16"/>
			<rect x="248" y="102" fill="#51514F" width="15" height="98"/>
			<polygon fill="#B7A763" points="276.535,227 239,227 239,167.22 			"/>
			<polygon fill="#60605F" points="295,188.835 295,227 279,227 279,167.22 			"/>
			<path fill="#B7A763" d="M248.273,211.589"/>
			<rect x="239" y="167" fill="#353533" width="40" height="60"/>
			<rect x="273" y="167" fill="#51514F" width="7" height="60"/>
			<rect x="242" y="218" fill="#353533" width="27" height="39"/>
			<rect x="261" y="212" fill="#353533" width="14" height="38"/>
			<rect x="249" y="218" fill="#353533" width="12" height="106"/>
			<rect x="249" y="300" fill="#353533" width="16" height="15"/>
		</g>
		
			<ellipse transform="matrix(-0.6299 -0.7767 0.7767 -0.6299 -108.3402 754.3881)" fill="#214737" cx="125.571" cy="403.007" rx="24.935" ry="19.272"/>
		
			<ellipse transform="matrix(-0.6299 0.7767 -0.7767 -0.6299 619.5252 511.9689)" fill="#214737" cx="187.78" cy="403.593" rx="24.935" ry="19.273"/>
	</g>
</g>
<g id="Layer_4" display="none">
	<g display="inline">
		<path fill="#5D7A1E" stroke="#FFFFFF" stroke-width="3" stroke-miterlimit="10" d="M-74.5,210.008c0,0,74-50.471,141,5.313V366.5
			h-141V210.008z"/>
		<path fill="#5D7A1E" stroke="#FFFFFF" stroke-width="3" stroke-miterlimit="10" d="M-74.5,291.811c0,0,74-23.629,141,2.486V367.5
			h-141V291.811z"/>
		<path fill="#5D7A1E" stroke="#FFFFFF" stroke-width="3" stroke-miterlimit="10" d="M88.5,369.416c0,3.912-3.172,7.084-7.084,7.084
			H56.584c-3.912,0-7.084-3.172-7.084-7.084v-79.832c0-3.912,3.172-7.084,7.084-7.084h24.832c3.912,0,7.084,3.172,7.084,7.084
			V369.416z"/>
		<circle fill="#5D7A1E" stroke="#FFFFFF" stroke-width="3" stroke-miterlimit="10" cx="74.2" cy="284.537" r="27.892"/>
	</g>
</g>
<g id="Layer_5" display="none">
	<g display="inline">
		<g>
			<ellipse fill="#5D7A1E" cx="23.578" cy="222.949" rx="115.314" ry="77.758"/>
			<g>
				<rect x="118" y="206" fill="#5D7A1E" width="35" height="34"/>
				<rect x="63" y="278" fill="#5D7A1E" width="26" height="36"/>
				<path fill="#5D7A1E" d="M104.918,181.079c0,0-10.066-58.956-27.301-47.839c0,0-5.963,9.454-15.723,32.141L104.918,181.079z"/>
				<circle fill="#FFFFFF" cx="83.358" cy="194.374" r="11.108"/>
			</g>
		</g>
		<path fill="#FFFFFF" d="M54,162.547c0,1.967-2.559,3.453-6.287,3.453h-57.96c-3.729,0-6.753-1.486-6.753-3.453v-0.594
			c0-1.967,3.023-3.953,6.753-3.953h57.96c3.729,0,6.287,1.986,6.287,3.953V162.547z"/>
		<g>
			<circle fill="#FFFFFF" cx="18.363" cy="123.56" r="38.98"/>
			<circle fill="#5D7A1E" cx="18.477" cy="123.446" r="35.93"/>
			<rect x="5.824" y="103.11" fill="none" width="40.672" height="35.927"/>
			<text transform="matrix(1 0 0 1 5.8242 138.4063)" fill="#FFFFFF" font-family="'MyriadPro-Regular'" font-size="49.7136">$</text>
		</g>
	</g>
</g>
<g id="Layer_6" display="none">
	<g display="inline">
		<rect x="165" y="-105" fill="#5D7A1E" width="143" height="148"/>
		<path fill="#5D7A1E" d="M165,46.287c0,22.242-0.006,36.16,3.781,36.16l135.328-0.037c3.787,0,3.76-13.779,3.76-36.02"/>
		<path fill="#5D7A1E" d="M221.393,86.395c0,13.436-10.891,24.326-24.326,24.326s-24.326-10.891-24.326-24.326"/>
		<path fill="#5D7A1E" d="M298.797,86.395c0,13.436-10.893,24.326-24.326,24.326c-13.437,0-24.328-10.891-24.328-24.326"/>
		<path fill="#FFFFFF" d="M295,23.576c0,2.443-1.98,4.424-4.423,4.424H181.423C178.98,28,177,26.02,177,23.576v-5.152
			c0-2.443,1.98-4.424,4.423-4.424h109.154c2.442,0,4.423,1.98,4.423,4.424V23.576z"/>
		<path fill="#FFFFFF" d="M235.475-53.669c0,0,24.195,16.219,21.354,38.517c0,0,8.121-2.025,5.938-15.441
			c0,0,11.717,11.304,11.52,21.525c-0.162,8.303-10.553,20.271-30.093,20.271c0,0,17.619-15.758-5.662-35.699
			c0,0-21.537,21.248-7.325,35.699c0,0-28.655-7.289-20.249-25.543C219.363-32.596,237.75-34.208,235.475-53.669z"/>
	</g>
</g>
<g id="Layer_9" display="none">
	<g display="inline">
		<circle fill="#70B79A" cx="424.089" cy="81.592" r="155.992"/>
		<path fill="#3F7257" stroke="#64D8A9" stroke-width="2" stroke-miterlimit="10" d="M412.703-17.003
			c0,0,65.646,44.001,57.935,104.503c0,0,22.035-5.5,16.115-41.896c0,0,31.786,30.669,31.25,58.396
			c-0.44,22.526-28.63,55.001-81.644,55.001c0,0,47.804-42.755-15.362-96.854c0,0-58.429,57.645-19.873,96.854
			c0,0-77.743-19.776-54.937-69.3C368.992,40.169,418.879,35.797,412.703-17.003z"/>
	</g>
</g>
<g id="Layer_7" display="none">
	<g display="inline">
		<rect x="93" y="-17" fill="#3F7257" width="143" height="148"/>
		<path fill="#3F7257" d="M93,133.989c0,22.241-0.006,36.16,3.781,36.16l135.328-0.038c3.787,0,3.76-13.778,3.76-36.02"/>
		<path fill="#3F7257" d="M149.393,174.096c0,13.437-10.891,24.327-24.326,24.327s-24.326-10.891-24.326-24.327"/>
		<path fill="#3F7257" d="M226.797,174.096c0,13.437-10.892,24.327-24.326,24.327c-13.437,0-24.328-10.891-24.328-24.327"/>
		<path fill="#70B79A" d="M223,111.577c0,2.442-1.98,4.423-4.423,4.423H109.423c-2.442,0-4.423-1.98-4.423-4.423v-5.154
			c0-2.442,1.98-4.423,4.423-4.423h109.154c2.442,0,4.423,1.98,4.423,4.423V111.577z"/>
		<g>
			<circle fill="#70B79A" cx="163.929" cy="7.128" r="16.586"/>
			<g>
				<polyline fill="#3F7257" points="164.066,-7.616 162.455,4.67 164.066,8.544 				"/>
				<polyline fill="#3F7257" points="163.994,-7.616 165.605,4.67 163.994,8.544 				"/>
			</g>
		</g>
		<path fill="#70B79A" stroke="#7FF4C1" stroke-miterlimit="10" d="M162.063,34.032c0,0,24.195,16.219,21.354,38.518
			c0,0,8.121-2.026,5.939-15.441c0,0,11.716,11.305,11.519,21.524c-0.162,8.303-10.553,20.272-30.093,20.272
			c0,0,17.619-15.759-5.662-35.699c0,0-21.537,21.247-7.325,35.699c0,0-28.655-7.29-20.249-25.543
			C145.951,55.105,164.338,53.494,162.063,34.032z"/>
	</g>
</g>
<g id="Layer_8" display="none">
	<g display="inline">
		<g>
			<g>
				<path fill="#5D7A1E" d="M339.295,267.561c0.381,2.907-0.508,5.436-2.654,7.588l-25.233,25.041
					c-1.138,1.264-2.621,2.34-4.457,3.225c-1.832,0.887-3.638,1.455-5.404,1.707c-0.127,0-0.508,0.033-1.141,0.096
					c-0.632,0.064-1.455,0.096-2.466,0.096c-2.403,0-6.293-0.412-11.67-1.231c-5.373-0.824-11.949-2.849-19.727-6.071
					c-7.781-3.226-16.604-8.063-26.469-14.513c-9.861-6.449-20.361-15.306-31.49-26.561c-8.854-8.727-16.189-17.074-22.006-25.043
					c-5.82-7.967-10.5-15.335-14.041-22.101s-6.195-12.9-7.967-18.402s-2.971-10.246-3.605-14.229
					c-0.632-3.984-0.885-7.115-0.758-9.393c0.126-2.275,0.188-3.539,0.188-3.793c0.255-1.77,0.823-3.574,1.708-5.406
					c0.886-1.834,1.96-3.32,3.226-4.459l25.231-25.232c1.771-1.77,3.795-2.655,6.071-2.655c1.646,0,3.099,0.474,4.362,1.423
					c1.266,0.947,2.341,2.118,3.226,3.51l20.298,38.511c1.139,2.023,1.455,4.238,0.949,6.641c-0.504,2.402-1.58,4.426-3.225,6.07
					l-9.297,9.295c-0.252,0.254-0.473,0.666-0.664,1.234c-0.189,0.568-0.283,1.043-0.283,1.422c0.508,2.656,1.645,5.691,3.414,9.107
					c1.518,3.035,3.859,6.734,7.02,11.098c3.162,4.364,7.654,9.392,13.469,15.083c5.693,5.818,10.752,10.338,15.178,13.564
					c4.428,3.223,8.127,5.596,11.098,7.113c2.975,1.52,5.25,2.436,6.83,2.75l2.371,0.475c0.252,0,0.666-0.096,1.234-0.285
					c0.57-0.189,0.979-0.41,1.234-0.664l10.813-11.002c2.277-2.025,4.932-3.035,7.969-3.035c2.15,0,3.855,0.377,5.121,1.139h0.191
					l36.61,21.627C337.209,262.942,338.791,265.027,339.295,267.561z"/>
			</g>
		</g>
		<path fill="none" stroke="#FFFFFF" stroke-width="4" stroke-miterlimit="10" d="M177.912,220.236c0,0,7.143-17.053,35.531-21.279"
			/>
		<path fill="none" stroke="#FFFFFF" stroke-width="4" stroke-miterlimit="10" d="M242.691,286.158c0,0,17.186-6.815,21.952-35.119"
			/>
	</g>
</g>
<g>
	<g>
		<polygon fill="#B2D362" points="444.203,77.364 328.564,77.364 377.623,125.314 255.051,230.247 171.836,159.784 40.068,267.848 
			40.068,314.533 171.836,206.472 255.051,276.927 403.104,150.199 444.203,190.384 		"/>
	</g>
	<polygon fill="#B2D362" points="14.528,47.187 14.528,440.821 474.57,440.821 474.57,420.909 33.004,420.909 33.004,47.187 	"/>
</g>
<g>
	<g>
		<path fill="#5D7A1E" d="M96.539,338.699v-1.521c2.204-0.213,3.938-1.96,4.09-4.21h-23.94c0.139,2.25,1.883,3.997,4.09,4.21v1.521
			c-14.798,1.076-26.475,13.399-26.475,28.483v38.362c0,1.649,0.468,3.175,1.234,4.507l5.17-5.185c1.2-1.19,3.136-1.19,4.317,0
			c1.201,1.203,1.201,3.124,0,4.326l-4.847,4.854c1.01,0.381,2.097,0.621,3.243,0.621h50.47c1.152,0,2.24-0.24,3.256-0.621
			l-4.861-4.854c-1.201-1.202-1.201-3.123,0-4.326c1.196-1.19,3.131-1.19,4.325,0l5.179,5.185c0.758-1.332,1.23-2.856,1.23-4.507
			v-38.362C123.02,352.1,111.343,339.775,96.539,338.699z"/>
		<rect x="54" y="385" fill="#5D7A1E" width="69" height="30"/>
	</g>
	<path fill="#5D7A1E" d="M81.38,325.103c-2.435,0-4.373,1.905-4.533,4.289h23.94c-0.157-2.384-2.1-4.289-4.521-4.289h-0.08
		l12.118-15.261c-6.493-3.511-12.997-0.708-19.483-0.14c-6.498-0.568-12.991-3.371-19.496,0.14l12.125,15.261H81.38z"/>
	<g>
		<rect x="87.308" y="352.828" fill="#FFFFFF" width="3.035" height="46.268"/>
		<g>
			<g>
				<path fill="#FFFFFF" d="M85.588,391.856c-3.187-1.063-5.38-3.514-6.569-7.401l-4.041,1.006c1.927,5.98,5.461,9.559,10.61,10.748
					V391.856z"/>
				<path fill="#FFFFFF" d="M76.905,367.86c0.761,4.032,4.133,7.367,8.683,8.801v-4.607c-3.049-0.947-5.22-3.278-5.22-6.039
					c0-2.689,2.091-4.999,5.035-5.979c0.059-0.024,0.129-0.061,0.185-0.094v-4.225c-0.416,0.079-0.842,0.194-1.247,0.332
					c-3.787,1.546-6.569,4.473-7.391,7.979c-0.102,0.683-0.17,1.374-0.17,2.111C76.78,366.731,76.824,367.298,76.905,367.86z"/>
			</g>
			<g>
				<path fill="#FFFFFF" d="M94.261,361.247c1.752,1.178,2.874,2.934,3.336,5.217l4.065-1.327c-1.722-5.449-5.059-8.577-9.963-9.42
					v4.258C92.561,360.275,93.428,360.692,94.261,361.247z"/>
				<path fill="#FFFFFF" d="M98.9,385.066c0,2.077-1.189,3.96-3.047,5.265c-0.854,0.703-1.918,1.188-3.221,1.47
					c-0.277,0.077-0.564,0.161-0.866,0.213v4.195c0.172-0.021,0.322-0.048,0.495-0.082c6.155-2.054,10.405-6.352,10.405-11.349
					c0-5.152-4.48-9.171-10.912-11.152l0.012,4.455C95.863,378.865,98.9,381.682,98.9,385.066z"/>
			</g>
		</g>
	</g>
</g>
<g>
	<g>
		<path fill="#5D7A1E" d="M195.242,316.708v-1.938c2.811-0.271,5.021-2.498,5.215-5.367h-30.525c0.177,2.869,2.4,5.097,5.215,5.367
			v1.938c-18.869,1.372-33.758,17.087-33.758,36.321v48.916c0,2.103,0.596,4.048,1.573,5.746l6.593-6.61
			c1.529-1.519,3.999-1.519,5.504,0c1.532,1.534,1.532,3.983,0,5.516l-6.181,6.19c1.288,0.485,2.675,0.792,4.135,0.792h64.354
			c1.469,0,2.856-0.307,4.151-0.792l-6.198-6.19c-1.532-1.531-1.532-3.98,0-5.516c1.525-1.519,3.992-1.519,5.515,0l6.604,6.61
			c0.966-1.698,1.569-3.645,1.569-5.746v-48.916C229.008,333.795,214.118,318.08,195.242,316.708z"/>
		<rect x="141" y="376" fill="#5D7A1E" width="88" height="38"/>
	</g>
	<path fill="#5D7A1E" d="M175.914,299.371c-3.106,0-5.576,2.43-5.781,5.469h30.525c-0.199-3.039-2.677-5.469-5.765-5.469h-0.102
		l15.452-19.459c-8.279-4.477-16.573-0.903-24.845-0.18c-8.284-0.725-16.563-4.297-24.858,0.18L176,299.371H175.914L175.914,299.371
		z"/>
	<g>
		<rect x="183.472" y="334.725" fill="#FFFFFF" width="3.87" height="58.996"/>
		<g>
			<g>
				<path fill="#FFFFFF" d="M181.278,384.489c-4.063-1.355-6.86-4.479-8.377-9.438l-5.151,1.282
					c2.457,7.626,6.963,12.188,13.528,13.705V384.489z"/>
				<path fill="#FFFFFF" d="M170.207,353.892c0.97,5.144,5.27,9.396,11.071,11.223v-5.874c-3.888-1.21-6.657-4.183-6.657-7.701
					c0-3.431,2.667-6.374,6.42-7.626c0.076-0.03,0.165-0.075,0.237-0.119v-5.386c-0.531,0.102-1.073,0.248-1.591,0.424
					c-4.829,1.971-8.376,5.703-9.425,10.173c-0.13,0.871-0.217,1.752-0.217,2.693C170.046,352.452,170.104,353.175,170.207,353.892z
					"/>
			</g>
			<g>
				<path fill="#FFFFFF" d="M192.337,345.459c2.235,1.502,3.665,3.741,4.254,6.652l5.184-1.692
					c-2.196-6.949-6.45-10.937-12.705-12.012v5.43C190.169,344.22,191.274,344.752,192.337,345.459z"/>
				<path fill="#FFFFFF" d="M198.253,375.831c0,2.65-1.517,5.05-3.885,6.713c-1.091,0.897-2.446,1.516-4.108,1.874
					c-0.353,0.099-0.72,0.206-1.104,0.271v5.35c0.219-0.028,0.411-0.062,0.631-0.104c7.849-2.617,13.269-8.099,13.269-14.471
					c0-6.569-5.713-11.692-13.914-14.221l0.015,5.681C194.38,367.924,198.253,371.516,198.253,375.831z"/>
			</g>
		</g>
	</g>
</g>
<g>
	<g>
		<path fill="#5D7A1E" d="M294.539,336.699v-1.521c2.204-0.213,3.938-1.96,4.09-4.21h-23.939c0.14,2.25,1.884,3.997,4.09,4.21v1.521
			c-14.797,1.076-26.475,13.399-26.475,28.483v38.362c0,1.649,0.469,3.175,1.233,4.507l5.171-5.185c1.199-1.19,3.136-1.19,4.316,0
			c1.201,1.203,1.201,3.124,0,4.326l-4.849,4.854c1.011,0.381,2.099,0.621,3.243,0.621h50.471c1.151,0,2.239-0.24,3.256-0.621
			l-4.861-4.854c-1.201-1.202-1.201-3.123,0-4.326c1.195-1.19,3.131-1.19,4.324,0l5.18,5.185c0.758-1.332,1.23-2.856,1.23-4.507
			v-38.362C321.02,350.1,309.343,337.775,294.539,336.699z"/>
		<rect x="252" y="383" fill="#5D7A1E" width="69" height="30"/>
	</g>
	<path fill="#5D7A1E" d="M279.381,323.103c-2.436,0-4.373,1.905-4.533,4.289h23.939c-0.156-2.384-2.1-4.289-4.521-4.289h-0.078
		l12.117-15.261c-6.492-3.511-12.998-0.708-19.484-0.14c-6.496-0.568-12.989-3.371-19.494,0.14l12.125,15.261H279.381z"/>
	<g>
		<rect x="285.309" y="350.828" fill="#FFFFFF" width="3.035" height="46.268"/>
		<g>
			<g>
				<path fill="#FFFFFF" d="M283.588,389.856c-3.188-1.063-5.38-3.514-6.568-7.401l-4.041,1.006
					c1.928,5.98,5.461,9.559,10.609,10.748V389.856z"/>
				<path fill="#FFFFFF" d="M274.904,365.86c0.762,4.032,4.134,7.367,8.684,8.801v-4.607c-3.049-0.947-5.221-3.278-5.221-6.039
					c0-2.689,2.092-4.999,5.035-5.979c0.06-0.024,0.129-0.061,0.186-0.094v-4.225c-0.416,0.079-0.842,0.194-1.247,0.332
					c-3.786,1.546-6.569,4.473-7.392,7.979c-0.102,0.683-0.17,1.374-0.17,2.111C274.779,364.731,274.824,365.298,274.904,365.86z"/>
			</g>
			<g>
				<path fill="#FFFFFF" d="M292.261,359.247c1.753,1.178,2.874,2.934,3.337,5.217l4.064-1.327c-1.723-5.449-5.059-8.577-9.964-9.42
					v4.258C290.561,358.275,291.428,358.692,292.261,359.247z"/>
				<path fill="#FFFFFF" d="M296.9,383.066c0,2.077-1.189,3.96-3.047,5.265c-0.855,0.703-1.918,1.188-3.223,1.47
					c-0.275,0.077-0.564,0.161-0.865,0.213v4.195c0.172-0.021,0.321-0.048,0.494-0.082c6.155-2.054,10.405-6.352,10.405-11.349
					c0-5.152-4.479-9.171-10.912-11.152l0.013,4.455C293.863,376.865,296.9,379.682,296.9,383.066z"/>
			</g>
		</g>
	</g>
</g>
<g>
	<path fill="#5D7A1E" d="M411.029,290.186v-2.468c3.576-0.346,6.39-3.181,6.637-6.831h-38.848c0.226,3.65,3.056,6.485,6.637,6.831
		v2.468c-24.014,1.746-42.961,21.745-42.961,46.223v62.251c0,2.677,0.76,5.151,2.002,7.313l8.391-8.413
		c1.946-1.932,5.09-1.932,7.006,0c1.947,1.953,1.947,5.069,0,7.021l-7.867,7.878c1.639,0.617,3.404,1.008,5.263,1.008h81.897
		c1.87,0,3.637-0.391,5.283-1.008l-7.889-7.878c-1.949-1.951-1.949-5.067,0-7.021c1.941-1.932,5.081-1.932,7.02,0l8.403,8.413
		c1.229-2.161,1.996-4.637,1.996-7.313v-62.251C453.999,311.931,435.052,291.932,411.029,290.186z"/>
	<rect x="342" y="365" fill="#5D7A1E" width="112" height="49"/>
</g>
<path fill="#5D7A1E" d="M386.432,268.121c-3.951,0-7.097,3.092-7.355,6.96h38.848c-0.254-3.868-3.407-6.96-7.338-6.96h-0.128
	l19.664-24.764c-10.536-5.697-21.092-1.148-31.617-0.227c-10.543-0.922-21.08-5.471-31.636,0.227l19.676,24.764H386.432z"/>
<g>
	<rect x="396.051" y="313.112" fill="#FFFFFF" width="4.925" height="75.079"/>
	<g>
		<g>
			<path fill="#FFFFFF" d="M393.259,376.444c-5.171-1.727-8.729-5.7-10.661-12.011l-6.556,1.633
				c3.127,9.704,8.862,15.511,17.217,17.44V376.444z"/>
			<path fill="#FFFFFF" d="M379.169,337.506c1.233,6.545,6.706,11.956,14.09,14.281v-7.478c-4.948-1.538-8.473-5.321-8.473-9.8
				c0-4.365,3.396-8.111,8.171-9.705c0.098-0.039,0.209-0.097,0.302-0.151V317.8c-0.676,0.129-1.366,0.315-2.024,0.539
				c-6.146,2.509-10.659,7.258-11.993,12.946c-0.165,1.107-0.275,2.229-0.275,3.428
				C378.965,335.674,379.037,336.593,379.169,337.506z"/>
		</g>
		<g>
			<path fill="#FFFFFF" d="M407.332,326.774c2.845,1.91,4.664,4.76,5.413,8.465l6.597-2.153
				c-2.795-8.844-8.208-13.918-16.168-15.286v6.909C404.573,325.197,405.98,325.874,407.332,326.774z"/>
			<path fill="#FFFFFF" d="M414.86,365.426c0,3.373-1.931,6.426-4.943,8.543c-1.389,1.143-3.112,1.93-5.229,2.387
				c-0.447,0.125-0.915,0.261-1.404,0.345v6.809c0.277-0.037,0.521-0.078,0.804-0.134c9.988-3.332,16.885-10.307,16.885-18.415
				c0-8.361-7.271-14.882-17.708-18.098l0.021,7.229C409.933,355.363,414.86,359.934,414.86,365.426z"/>
		</g>
	</g>
</g>
<g id="Layer_11" display="none">
	<g display="inline">
		<g>
			<path fill="#5D7A1E" d="M330.236,245.28l-11.695-7.748v-24.36c0-1.916-1.743-3.464-3.896-3.464h-19.578
				c-2.15,0-3.896,1.548-3.896,3.464l-0.182,6.123l-45.901-30.377c-1.663-1.102-3.62-1.411-5.438-1.025
				c-1.806-0.386-3.758-0.076-5.429,1.025l-85.151,56.362c-3.291,2.18-4.193,6.613-2.016,9.901c2.177,3.295,6.612,4.197,9.907,2.019
				l82.688-54.732l82.704,54.732c3.287,2.179,7.728,1.276,9.909-2.019C334.436,251.894,333.534,247.46,330.236,245.28z
				 M158.832,264.895v80.144c0,4.734,3.841,8.577,8.577,8.577h73.587c-0.365-0.834-0.577-1.756-0.577-2.719v-56.854
				c0-3.758,3.051-6.803,6.81-6.803h34.18c3.754,0,6.799,3.045,6.799,6.803v56.854c0,0.963-0.205,1.885-0.564,2.719h22.928
				c4.74,0,8.58-3.843,8.58-8.577v-81.021l-79.5-52.608L158.832,264.895z M222.759,305.666c0,2.227-2.195,4.04-4.886,4.04h-24.545
				c-2.695,0-4.889-1.813-4.889-4.04V271.88c0-2.235,2.193-4.042,4.889-4.042h24.545c2.69,0,4.886,1.807,4.886,4.042V305.666z"/>
			<path fill="#5D7A1E" d="M330.904,118.386c0,0,2.908,8.796-12.28,18.288c-32.394,20.271-22.793,42.711-14.34,67.755
				c-1.488-9.392,1.44-16.567,4.069-22.634c3.039-6.542,6.434-11.905,8.951-16.605c5.45-9.15,6.029-16.331,5.936-16.371
				c0.103-0.047,1.041,7.836-3.065,18.047c-1.825,5.164-4.521,11.008-6.933,17.668c-1.896,5.496-3.855,11.698-3.303,18.6
				C374.114,165.841,330.904,118.386,330.904,118.386z"/>
		</g>
		<g>
			<g>
				<path fill="#5D7A1E" d="M159.351,264.867v80.144c0,4.734,3.84,8.578,8.576,8.578h73.587c-0.365-0.835-0.578-1.756-0.578-2.719
					v-56.853c0-3.761,3.054-6.805,6.811-6.805h34.179c3.754,0,6.801,3.044,6.801,6.805v56.853c0,0.963-0.205,1.884-0.564,2.719
					h22.926c4.741,0,8.581-3.844,8.581-8.578V263.99l-79.5-52.608L159.351,264.867z"/>
				<path fill="#5D7A1E" d="M223.276,305.641c0,2.228-2.194,4.04-4.884,4.04h-24.546c-2.696,0-4.889-1.813-4.889-4.04v-33.787
					c0-2.233,2.192-4.041,4.889-4.041h24.546c2.689,0,4.884,1.808,4.884,4.041V305.641L223.276,305.641z"/>
			</g>
			<polygon fill="#5D7A1E" points="159.128,265.438 240.223,211.667 320,263.99 320,345.609 311.086,354 167.506,354 
				159.351,344.947 			"/>
		</g>
	</g>
</g>
</svg>
